<?xml version="1.0" standalone="no"?>
<!DOCTYPE svg PUBLIC "-//W3C//DTD SVG 1.1//EN" "http://www.w3.org/Graphics/SVG/1.1/DTD/svg11.dtd" >
<svg xmlns="http://www.w3.org/2000/svg">
<metadata>
Created by FontPrep 20130207 at Wed Apr  9 16:24:02 2014
 By Thomas Tau
he digitally encoded machine readable outline data for producing the typefaces licensed to you is copyrighted , 2000 by The Foundry, London. All Rights Reserved.
</metadata>
<defs>
<font id="b15753971c58aea08c08130fb54f7158" horiz-adv-x='1024' >
  <font-face 
    font-family="FoundryMonoline-Light"
    font-weight="300"
    font-stretch="normal"
    units-per-em="2048"
    panose-1="2 0 5 3 3 0 0 2 0 4"
    ascent="1487"
    descent="-561"
    x-height="979"
    cap-height="1366"
    bbox="-387.003 -606 2230 1776"
    underline-thickness="102"
    underline-position="-102"
    unicode-range="U+0020-FB02"
  />
<missing-glyph horiz-adv-x="2048" 
 />
    <glyph glyph-name="fi" unicode="fi" horiz-adv-x="1128" 
d="M213 1161q1 281 311 281q342 0 342 -228h-84q0 143 -237 144q-123 0 -183 -41t-61 -156v-182h440v-80h-440v-899h-88v899h-164v80h164v182zM956 0h-88v979h88v-979z" />
    <glyph glyph-name="fl" unicode="fl" horiz-adv-x="1267" 
d="M213 1161q1 281 311 281q342 0 342 -228h-84q0 143 -237 144q-123 0 -183 -41t-61 -156v-182h440v-80h-440v-899h-88v899h-164v80h164v182zM1096 0h-88v1427h88v-1427z" />
    <glyph glyph-name=".notdef" horiz-adv-x="2048" 
 />
    <glyph glyph-name=".null" horiz-adv-x="0" 
 />
    <glyph glyph-name="nonmarkingreturn" horiz-adv-x="681" 
 />
    <glyph glyph-name="space" unicode=" " horiz-adv-x="552" 
 />
    <glyph glyph-name="exclam" unicode="!" horiz-adv-x="575" 
d="M358 55q0 -69 -70 -69t-71 70q1 70 71 69q70 0 70 -70zM330 389h-86v977h86v-977z" />
    <glyph glyph-name="quotedbl" unicode="&#x22;" horiz-adv-x="880" 
d="M330 942h-84v424h84v-424zM637 942h-84v424h84v-424z" />
    <glyph glyph-name="numbersign" unicode="#" 
d="M762 868h-289l-82 -315h287zM1118 868h-274l-84 -315h252v-78h-273l-125 -475h-82l125 475h-288l-125 -475h-82l125 475h-254v78h274l84 315h-252v78h275l127 475h82l-129 -475h288l129 475h82l-129 -475h254v-78z" />
    <glyph glyph-name="dollar" unicode="$" horiz-adv-x="1130" 
d="M903 393q0 168 -59 215t-240 60v-588q162 4 230 74t69 239zM520 756v528q-154 -2 -218 -63t-64 -215t62 -197t220 -53zM987 385q0 -199 -91 -291t-292 -94v-203l-84 2v201q-195 2 -287 64t-92 210h86q0 -106 67 -148t226 -44v590q-98 6 -160 21t-112 52q-98 71 -97 262
t93 273t276 86v195h84v-195q193 -2 281 -63t88 -211h-86q-1 106 -63 148t-220 44v-532q187 -18 227 -37q39 -19 67 -37t41 -44t31 -73q18 -46 17 -176z" />
    <glyph glyph-name="percent" unicode="%" horiz-adv-x="1753" 
d="M614 977q0 209 -22 260q-33 70 -158 70q-76 -1 -112 -21t-52 -71t-16 -257t22 -258q35 -74 166 -74t158 93q14 49 14 258zM1499 407q0 209 -22 261q-33 70 -158 69q-76 0 -113 -20q-37 -19 -52 -71t-15 -258t22 -257q35 -74 166 -74t158 93q14 48 14 257zM692 1008
q0 -180 -5 -242q-17 -211 -253 -211q-186 0 -235 129q-23 55 -23 219t2 240t33 133q57 104 234 104t225 -131q22 -61 22 -241zM1286 1376l-721 -1376h-80l717 1376h84zM1577 438q0 -180 -5 -242q-17 -210 -253 -210q-186 0 -236 129q-29 70 -21 425q3 110 34 167
q57 104 234 104t224 -131q23 -62 23 -242z" />
    <glyph glyph-name="ampersand" unicode="&#x26;" horiz-adv-x="1230" 
d="M946 449v231h-387q-188 0 -257 -62t-69 -249t79 -243t286 -56t281 73q41 41 54 111t13 195zM1155 680h-123v-231q0 -143 -18 -225q-52 -239 -419 -240q-243 0 -345 81t-103 308q1 155 51 239t158 111q-116 33 -156 103t-40 204q0 193 90 272q90 78 301 78t306 -68
t99 -233h-86q-4 123 -74 170q-71 47 -245 47t-240 -56q-65 -56 -65 -215t72 -210t241 -51h387v143h84v-143h125v-84z" />
    <glyph glyph-name="quotesingle" unicode="'" horiz-adv-x="575" 
d="M330 942h-84v424h84v-424z" />
    <glyph glyph-name="parenleft" unicode="(" horiz-adv-x="598" 
d="M516 -391q-162 0 -248 51t-123 172q-63 213 -63 798t63 797q37 121 123 172t248 52v-78q-129 0 -188 -34q-59 -33 -89 -109q-31 -76 -51 -300t-20 -502t20 -499t50 -297t90 -110q59 -34 188 -33v-80z" />
    <glyph glyph-name="parenright" unicode=")" horiz-adv-x="598" 
d="M516 630q0 -585 -63 -798q-37 -121 -123 -172t-248 -51v80q129 -1 188 33t89 110t51 297q20 221 20 500t-20 501t-50 300q-30 76 -90 110q-59 34 -188 33v78q162 1 248 -51t123 -173q63 -212 63 -797z" />
    <glyph glyph-name="asterisk" unicode="*" horiz-adv-x="1071" 
d="M498 1366h77v-424l414 129l25 -72l-416 -131l254 -342l-61 -45l-256 340l-252 -340l-64 45l256 342l-418 131l25 72l416 -129v424z" />
    <glyph glyph-name="plus" unicode="+" 
d="M1063 451h-447v-451h-84v451h-446v81h446v447h84v-447h447v-81z" />
    <glyph glyph-name="comma" unicode="," horiz-adv-x="425" 
d="M258 -31q0 -92 -16 -142t-70 -95l-51 -45l-55 55l38 37q45 43 57 80q11 37 11 110v154h86v-154z" />
    <glyph glyph-name="hyphen" unicode="-" horiz-adv-x="983" 
d="M791 451h-598v81h598v-81z" />
    <glyph glyph-name="period" unicode="." horiz-adv-x="425" 
d="M285 55q0 -69 -71 -69t-71 70t71 69q71 0 71 -70z" />
    <glyph glyph-name="slash" unicode="/" horiz-adv-x="1011" 
d="M979 1546l-860 -1718h-86l860 1718h86z" />
    <glyph glyph-name="zero" unicode="0" horiz-adv-x="1148" 
d="M903 666q0 366 -29 457t-98 133q-70 42 -203 42t-201 -42t-98 -133q-28 -91 -28 -459t35 -449q35 -80 103 -114q68 -33 190 -33t190 34t98 105q41 93 41 459zM991 620q0 -316 -33 -411q-74 -223 -384 -223t-384 223q-32 95 -32 413t9 416t40 162q89 180 367 180t366 -180
q31 -64 41 -164t10 -416z" />
    <glyph glyph-name="one" unicode="1" horiz-adv-x="917" 
d="M872 0h-751v82h332v1175l-283 -253l-57 57l344 305h84v-1284h331v-82z" />
    <glyph glyph-name="two" unicode="2" horiz-adv-x="1126" 
d="M174 1092q0 158 98 224t303 64q205 0 307 -82t101 -282q0 -200 -98 -295q-76 -72 -314 -144q-102 -32 -135 -47q-110 -45 -142 -100t-32 -170v-178h717v-82h-805v299q0 125 60 196t180 115q31 12 134 44q216 67 281 135q66 69 66 198t-33 195q-59 117 -284 116
q-166 0 -242 -46t-76 -160h-86z" />
    <glyph glyph-name="three" unicode="3" horiz-adv-x="1128" 
d="M971 373q1 -215 -101 -301t-310 -86t-310 64t-103 226h86q0 -112 75 -160t249 -48t250 61t76 245t-75 238q-75 55 -255 56h-193v84h193q174 0 246 54q71 54 71 216t-66 219q-67 57 -243 57t-252 -47t-76 -159h-86q1 158 101 224t313 64q213 0 305 -78t92 -272
q0 -127 -40 -207t-148 -112q113 -29 157 -111t44 -227z" />
    <glyph glyph-name="four" unicode="4" horiz-adv-x="1130" 
d="M723 489v740l-510 -740h510zM1012 408h-201v-408h-88v408h-612v79l608 879h92v-877h201v-81z" />
    <glyph glyph-name="five" unicode="5" 
d="M591 856q226 0 312 -108t86 -335t-95 -327q-94 -100 -310 -100t-312 66t-96 224h84q0 -114 71 -160t247 -46t250 72q73 72 73 268q0 194 -60 278t-249 84q-303 0 -311 -180h-82v774h745v-82h-661v-534q82 106 308 106z" />
    <glyph glyph-name="six" unicode="6" horiz-adv-x="1144" 
d="M583 70q171 0 245 78t73 274t-67 272q-66 78 -234 78q-344 0 -344 -346q0 -188 78 -272t249 -84zM987 424q0 -232 -97 -334q-97 -104 -308 -104q-299 0 -381 223q-43 119 -43 437t26 460q26 143 124 209q99 66 280 65q379 0 379 -288h-86q0 207 -291 206q-137 0 -209 -41
q-73 -41 -103 -141t-30 -438q98 178 328 178t320 -100q91 -100 91 -332z" />
    <glyph glyph-name="seven" unicode="7" horiz-adv-x="931" 
d="M59 1284v82h815v-80l-595 -1286h-97l598 1284h-721z" />
    <glyph glyph-name="eight" unicode="8" 
d="M905 366q0 179 -74 240q-74 62 -259 62t-256 -58q-70 -58 -70 -241q0 -182 70 -241q71 -58 257 -58t260 58q72 59 72 238zM893 1021q0 163 -67 220t-251 57q-185 0 -251 -57t-66 -218t72 -217t246 -56t246 54q71 54 71 217zM993 371q0 -215 -99 -300q-98 -85 -318 -85
t-319 85t-99 300q0 153 50 233t161 107q-119 31 -159 105t-40 214q0 193 92 272q92 78 313 78t314 -78q92 -79 92 -272q0 -135 -40 -212t-157 -107q111 -27 160 -107t49 -233z" />
    <glyph glyph-name="nine" unicode="9" horiz-adv-x="1140" 
d="M885 940q0 188 -78 272t-249 84t-245 -78q-73 -78 -73 -273t66 -273t235 -78q344 0 344 346zM983 720q0 -316 -26 -460q-27 -143 -125 -209t-279 -65q-379 0 -379 288h86q0 -207 291 -206q137 0 209 41t102 141t31 438q-97 -178 -327 -178t-321 100t-91 332t97 334
q97 104 308 104q299 0 381 -223q43 -121 43 -437z" />
    <glyph glyph-name="colon" unicode=":" horiz-adv-x="425" 
d="M285 55q0 -69 -71 -69t-71 70t71 69q71 0 71 -70zM285 926q0 -70 -71 -70t-71 70t71 70t71 -70z" />
    <glyph glyph-name="semicolon" unicode=";" horiz-adv-x="425" 
d="M258 -31q0 -92 -16 -142t-70 -95l-51 -45l-55 55l38 37q45 43 57 80q11 37 11 110v154h86v-154zM285 926q0 -70 -71 -70t-71 70t71 70t71 -70z" />
    <glyph glyph-name="less" unicode="&#x3c;" 
d="M1069 78l-35 -78l-952 451v81l952 447l35 -78l-883 -407z" />
    <glyph glyph-name="equal" unicode="=" horiz-adv-x="1153" 
d="M1065 254h-977v82h977v-82zM1065 649h-977v82h977v-82z" />
    <glyph glyph-name="greater" unicode="&#x3e;" 
d="M1069 451l-952 -451l-35 78l883 416l-883 407l35 78l952 -447v-81z" />
    <glyph glyph-name="question" unicode="?" horiz-adv-x="860" 
d="M471 55q0 -69 -71 -69t-70 69q0 70 70 70t71 -70zM801 1040q0 -128 -52 -202q-51 -74 -157 -120t-128 -92t-22 -163v-74h-88v109q0 125 41 184t136 99q95 41 139 95t45 182t-61 184t-217 56t-221 -46t-64 -160h-82q0 156 88 222t276 66t278 -75q89 -77 89 -265z" />
    <glyph glyph-name="at" unicode="@" horiz-adv-x="1564" 
d="M1028 636q0 187 -61 260t-198 73t-192 -60q-42 -44 -51 -163q-2 -40 -2 -120t5 -128q15 -137 95 -171q48 -22 130 -22q154 0 214 72t60 259zM1397 782q0 -362 -99 -460q-82 -80 -270 -80v100q-82 -113 -268 -113q-240 0 -291 159q-29 90 -29 221q0 130 10 195
q24 166 137 213q67 28 171 27q188 0 270 -112v98h78v-711q160 0 192 192q16 97 16 285t-22 272q-23 85 -73 134q-104 100 -426 100t-424 -106q-119 -122 -119 -568t106 -566t447 -121q182 1 293 35t176 145l71 -37q-98 -200 -424 -218q-54 -3 -126 -3q-201 0 -320 35
t-186 112q-119 138 -119 626t136 616t495 128t483 -116q63 -59 89 -163t26 -319z" />
    <glyph glyph-name="A" unicode="A" horiz-adv-x="1243" 
d="M903 496l-282 764l-287 -764h569zM1190 0h-96l-160 418h-631l-158 -418h-92l520 1366h95z" />
    <glyph glyph-name="B" unicode="B" horiz-adv-x="1323" 
d="M1061 369q0 187 -77 238q-32 22 -54 32q-52 23 -240 23h-401v-580h326q270 0 305 16q90 41 108 88q33 85 33 183zM1051 1010q0 173 -72 224q-72 52 -208 52h-482v-547h323q138 0 180 2q44 3 104 17t87 43t47 84q21 55 21 125zM1151 404q0 -179 -37 -245q-20 -38 -40 -66
t-61 -45q-40 -18 -70 -28q-59 -21 -286 -20h-456v1366h433q228 0 264 -9t74 -21t58 -28q65 -55 86 -122t23 -168q0 -264 -172 -316q106 -30 145 -114t39 -184z" />
    <glyph glyph-name="C" unicode="C" horiz-adv-x="1300" 
d="M1151 348q-1 -200 -107 -282t-326 -82t-360 60q-85 37 -148 176q-38 83 -41 284q-1 57 -1 178q0 374 42 462q63 139 148 176q138 60 359 60t327 -82t107 -280h-84q-2 158 -85 218t-304 60t-330 -91q-43 -36 -63 -127q-27 -124 -27 -306v-90q0 -291 23 -383
q37 -158 182 -203q82 -27 209 -26q227 0 310 60t85 218h84z" />
    <glyph glyph-name="D" unicode="D" horiz-adv-x="1351" 
d="M1094 684q0 216 -16 320t-58 166q-41 62 -122 90q-81 27 -247 26h-362v-1204h362q166 0 247 27t122 89q42 62 58 166t16 320zM1184 684q0 -225 -16 -334q-37 -246 -218 -313q-98 -37 -286 -37h-463v1366h463q188 0 286 -37q181 -68 217 -312q17 -108 17 -333z" />
    <glyph glyph-name="E" unicode="E" horiz-adv-x="1193" 
d="M1022 0h-821v1366h821v-82h-729v-541h708v-81h-708v-580h729v-82z" />
    <glyph glyph-name="F" unicode="F" horiz-adv-x="1142" 
d="M1012 1284h-721v-541h702v-81h-702v-662h-90v1366h811v-82z" />
    <glyph glyph-name="G" unicode="G" horiz-adv-x="1349" 
d="M1174 0h-82v186q-111 -203 -426 -202q-144 0 -242 36t-149 80q-51 46 -75 150t-28 177t-4 159v96q0 311 29 422q47 180 219 239q106 37 278 37q250 0 365 -83t115 -279h-87q-2 156 -93 217t-313 61t-333 -90q-43 -35 -63 -124q-27 -120 -27 -303v-97q0 -289 14 -367
q31 -162 164 -213q86 -33 234 -32q301 0 382 190q30 78 33 167q5 113 5 177v58h-439v81h523v-743z" />
    <glyph glyph-name="H" unicode="H" horiz-adv-x="1337" 
d="M1137 0h-90v662h-756v-662h-90v1366h90v-623h756v623h90v-1366z" />
    <glyph glyph-name="I" unicode="I" horiz-adv-x="491" 
d="M291 0h-90v1366h90v-1366z" />
    <glyph glyph-name="J" unicode="J" horiz-adv-x="1077" 
d="M889 422q0 -226 -85 -332q-86 -106 -304 -106t-316 82t-98 282h84q0 -162 75 -220t253 -58t239 80t62 268v948h90v-944z" />
    <glyph glyph-name="K" unicode="K" horiz-adv-x="1171" 
d="M291 0h-90v1366h88v-645l706 645h125l-753 -680l755 -686h-133l-698 643v-643z" />
    <glyph glyph-name="L" unicode="L" horiz-adv-x="1042" 
d="M1012 0h-811v1366h90v-1284h721v-82z" />
    <glyph glyph-name="M" unicode="M" horiz-adv-x="1677" 
d="M1477 0h-88v1239l-504 -1239h-97l-501 1239v-1239h-86v1366h121l518 -1270l514 1270h123v-1366z" />
    <glyph glyph-name="N" unicode="N" horiz-adv-x="1333" 
d="M1133 0h-115l-729 1241v-1241h-88v1366h110l733 -1239v1239h89v-1366z" />
    <glyph glyph-name="O" unicode="O" horiz-adv-x="1361" 
d="M1102 553v170q0 141 -3 206t-23 153t-64 123q-111 93 -333 92t-331 -92q-43 -36 -63 -124q-19 -88 -23 -151q-4 -62 -4 -148v-260q0 -131 11 -178q30 -129 56 -155q25 -25 57 -53t74 -39t98 -19t126 -8t126 8t98 19t74 39t52 48t41 90q31 102 31 279zM1192 684
q0 -299 -21 -399q-43 -197 -217 -262q-106 -39 -265 -39t-259 36t-152 79t-77 147t-29 176t-4 161v101q0 297 20 397q43 195 215 260q106 39 284 39t320 -59q79 -34 145 -173q40 -84 40 -384v-80z" />
    <glyph glyph-name="P" unicode="P" horiz-adv-x="1232" 
d="M1049 1012q-1 72 -21 128t-46 85t-86 43q-77 18 -198 18h-407v-571h314q127 0 200 2t103 16t62 35q79 49 79 244zM1139 1038q-1 -98 -9 -146t-19 -85t-36 -64t-49 -49t-88 -38q-99 -23 -297 -23h-350v-633h-90v1366h440q264 0 324 -29q99 -45 129 -104q45 -97 45 -195z
" />
    <glyph glyph-name="Q" unicode="Q" horiz-adv-x="1359" 
d="M1102 514v209q0 141 -3 206t-23 153t-64 123q-111 93 -333 92t-331 -92q-43 -36 -63 -124q-19 -88 -23 -151q-4 -62 -4 -148v-145q0 -139 3 -203t23 -150q20 -87 64 -122q115 -94 328 -92l-86 202l78 33l98 -231q83 6 177 40q33 12 59 42q26 29 44 52t37 108
q19 86 19 198zM1192 758v-111q0 -141 -3 -208t-23 -164t-58 -143q-39 -46 -116 -87t-191 -53l106 -244l-78 -35l-120 273q-204 -4 -344 53q-89 36 -154 173q-38 81 -42 277q-1 55 -1 122v73q0 297 20 397q43 195 215 260q106 39 284 39t320 -59q79 -34 145 -173
q40 -84 40 -390z" />
    <glyph glyph-name="R" unicode="R" horiz-adv-x="1318" 
d="M1051 998q0 156 -51 205q-22 22 -35 36t-71 31q-59 16 -117 16h-486v-553h354q201 0 252 12q154 35 154 253zM1139 0h-88v307q0 88 -3 137q-2 50 -20 94t-40 61t-76 31t-113 17q-59 2 -168 2h-340v-649h-90v1366h440q229 0 305 -23q152 -43 182 -221q10 -55 11 -125
q0 -254 -176 -305q62 -13 110 -59q19 -17 39 -65q27 -66 27 -145v-423z" />
    <glyph glyph-name="S" unicode="S" horiz-adv-x="1302" 
d="M238 348q0 -143 80 -213q63 -53 204 -62q49 -3 131 -3q207 0 308 63q100 63 100 254q0 146 -58 203q-58 56 -185 64q-48 3 -100 3h-69q-233 4 -311 29q-186 57 -186 307t139 323q71 38 151 51t231 13q269 0 368 -91q98 -91 98 -271h-84q0 213 -175 257q-84 21 -202 21
t-171 -4q-140 -11 -203 -74q-64 -64 -64 -212t62 -200q78 -65 280 -65h82q236 -4 321 -36q164 -69 165 -307t-126 -326t-402 -88t-373 93q-99 93 -97 271h86z" />
    <glyph glyph-name="T" unicode="T" horiz-adv-x="1097" 
d="M1036 1284h-442v-1284h-90v1284h-443v82h975v-82z" />
    <glyph glyph-name="U" unicode="U" horiz-adv-x="1329" 
d="M1141 1366v-852q0 -250 -64 -352q-113 -178 -413 -178q-417 0 -464 306q-16 106 -14 246t2 152v678h91v-876q0 -182 21 -239q67 -181 364 -181q262 0 342 143q38 68 44 243q1 60 1 232v678h90z" />
    <glyph glyph-name="V" unicode="V" horiz-adv-x="1148" 
d="M1124 1366l-506 -1366h-94l-499 1366h94l456 -1253l457 1253h92z" />
    <glyph glyph-name="W" unicode="W" horiz-adv-x="1785" 
d="M1683 1366l-340 -1366h-108l-342 1247l-344 -1247h-111l-336 1366h93l303 -1239l342 1239h108l342 -1239l305 1239h88z" />
    <glyph glyph-name="X" unicode="X" horiz-adv-x="1126" 
d="M1051 0h-105l-387 618l-381 -618h-102l432 690l-426 676h102l381 -608l375 608h104l-428 -676z" />
    <glyph glyph-name="Y" unicode="Y" horiz-adv-x="1067" 
d="M575 0h-88v602l-464 764h100l414 -678l409 678h98l-469 -764v-602z" />
    <glyph glyph-name="Z" unicode="Z" horiz-adv-x="1224" 
d="M1079 0h-934v84l832 1200h-832v82h934v-84l-833 -1200h833v-82z" />
    <glyph glyph-name="bracketleft" unicode="[" horiz-adv-x="598" 
d="M516 -391h-393v2042h393v-78h-307v-1884h307v-80z" />
    <glyph glyph-name="backslash" unicode="\" horiz-adv-x="1064" 
d="M1006 -172h-86l-861 1718h86z" />
    <glyph glyph-name="bracketright" unicode="]" horiz-adv-x="598" 
d="M475 -391h-393v80h307v1884h-307v78h393v-2042z" />
    <glyph glyph-name="asciicircum" unicode="^" 
d="M1065 426l-78 -35l-412 883l-411 -883l-78 35l449 952h81z" />
    <glyph glyph-name="underscore" unicode="_" horiz-adv-x="1024" 
d="M1024 -606h-1024v86h1024v-86z" />
    <glyph glyph-name="grave" unicode="`" horiz-adv-x="823" 
d="M600 1102h-104l-273 264h111z" />
    <glyph glyph-name="a" unicode="a" horiz-adv-x="1087" 
d="M487 500q-145 0 -213 -43t-68 -168t62 -174t198 -49t212 28t112 89q36 62 46 132t8 185h-357zM932 0h-82v154q-82 -168 -365 -168q-190 0 -278 68t-88 236q0 166 92 228t285 62h348q-2 166 -13 204q-27 94 -155 117q-57 10 -142 10q-84 0 -144 -10t-111 -57t-52 -133h-82
q0 172 129 233q107 51 281 51q262 0 332 -114q53 -89 47 -251q-2 -47 -2 -61v-569z" />
    <glyph glyph-name="b" unicode="b" horiz-adv-x="1130" 
d="M866 189q41 73 41 322t-72 324q-72 76 -223 74q-198 0 -276 -90t-78 -329q0 -240 78 -330t276 -90q145 0 204 57q32 31 50 62zM995 487q0 -102 -6 -170q-15 -169 -103 -251t-284 -80q-252 0 -346 161v-147h-84v1427h88v-589q94 158 342 157q197 0 294 -90q80 -74 94 -248
q6 -68 5 -170z" />
    <glyph glyph-name="c" unicode="c" horiz-adv-x="1054" 
d="M936 268q0 -283 -385 -282q-208 0 -298 74t-110 249q-8 72 -8 231t33 248q33 90 78 126q103 83 305 81q385 0 385 -284h-82q0 201 -301 200q-171 0 -252 -67q-60 -50 -74 -202q-4 -54 -4 -150t4 -150q11 -149 82 -211q71 -61 244 -61q220 0 275 95q26 42 26 103h82z" />
    <glyph glyph-name="d" unicode="d" horiz-adv-x="1130" 
d="M872 488q0 241 -77 331q-78 90 -277 90q-149 0 -225 -76q-55 -57 -67 -206q-3 -51 -3 -139t3 -137q9 -145 65 -205q75 -78 227 -76q202 0 278 88t76 330zM958 0h-84v147q-94 -162 -346 -161q-202 0 -287 80q-84 80 -100 252q-6 67 -6 169t6 169q15 174 93 248
q97 92 294 91q248 0 342 -157v589h88v-1427z" />
    <glyph glyph-name="e" unicode="e" horiz-adv-x="1085" 
d="M864 561q0 190 -67 272q-68 81 -252 81t-253 -83q-69 -82 -69 -270h641zM950 481h-727q1 -170 23 -243q22 -74 57 -103q78 -65 248 -65q301 0 301 198h82q0 -283 -385 -282q-135 0 -218 30q-149 53 -183 251q-13 83 -13 219t13 220q12 84 54 154q79 136 341 135
q205 0 294 -79t106 -256q7 -70 7 -179z" />
    <glyph glyph-name="f" unicode="f" horiz-adv-x="886" 
d="M213 1161q1 281 311 281q342 0 342 -228h-84q0 143 -237 144q-123 0 -183 -41t-61 -156v-182h440v-80h-440v-899h-88v899h-164v80h164v182z" />
    <glyph glyph-name="g" unicode="g" horiz-adv-x="1128" 
d="M870 497q0 237 -78 325t-276 89q-151 0 -226 -75q-52 -53 -64 -202q-3 -48 -3 -128q0 -240 45 -314t128 -95q50 -13 120 -13q199 0 277 88q77 88 77 325zM956 88q0 -209 -43 -303q-86 -182 -376 -182q-377 0 -379 282h84q0 -201 288 -200q240 0 304 135q37 75 35 197
q-1 122 -1 141q-94 -160 -342 -160q-199 0 -295 87q-96 89 -96 365q0 148 5 209t27 133q21 72 61 112q40 38 115 65t181 26q254 0 348 -159v143h84v-891z" />
    <glyph glyph-name="h" unicode="h" horiz-adv-x="1097" 
d="M942 0h-88v506q0 123 -2 169q-5 125 -64 181q-58 55 -191 55t-219 -50q-52 -29 -93 -131q-25 -62 -25 -246v-484h-88v1427h88v-591q88 160 326 159q190 0 274 -84q54 -57 68 -131t14 -160v-620z" />
    <glyph glyph-name="i" unicode="i" horiz-adv-x="432" 
d="M260 0h-88v979h88v-979zM217 1249q-65 -1 -65 65t66 66t65 -66q0 -66 -66 -65z" />
    <glyph glyph-name="j" unicode="j" horiz-adv-x="432" 
d="M260 -104q0 -293 -324 -293t-323 252h84q4 -172 229 -172q131 0 201 69q45 45 45 166v1061h88v-1083zM217 1249q-65 -1 -65 65t66 66t65 -66q0 -66 -66 -65z" />
    <glyph glyph-name="k" unicode="k" horiz-adv-x="950" 
d="M260 0h-88v1427h88v-870l522 422h123l-561 -453l567 -526h-123l-528 496v-496z" />
    <glyph glyph-name="l" unicode="l" horiz-adv-x="432" 
d="M260 0h-88v1427h88v-1427z" />
    <glyph glyph-name="m" unicode="m" horiz-adv-x="1652" 
d="M1497 0h-88v596q0 90 -5 135t-28 93q-22 48 -72 66t-135 19q-221 0 -270 -190q-20 -78 -20 -289v-430h-88v596q-1 88 -7 135q-18 127 -101 161q-49 19 -117 19t-118 -11t-117 -73q-22 -20 -35 -61q-14 -41 -22 -67q-14 -44 -14 -154v-545h-88v979h84v-139q80 156 314 156
t286 -179q84 178 320 178q92 -1 158 -27t97 -59q32 -33 48 -94t17 -95t1 -76v-644z" />
    <glyph glyph-name="n" unicode="n" horiz-adv-x="1097" 
d="M942 0h-88v506q0 123 -2 169q-5 125 -64 181q-58 55 -191 55t-219 -50q-52 -29 -93 -131q-25 -62 -25 -246v-484h-88v979h84v-148q88 164 330 164q272 0 332 -180q24 -76 24 -217v-598z" />
    <glyph glyph-name="o" unicode="o" horiz-adv-x="1110" 
d="M887 476q0 108 -4 164q-11 149 -84 210t-244 61t-252 -67q-62 -52 -76 -203q-4 -55 -4 -151t4 -151q11 -148 84 -209q73 -60 216 -60t211 24t101 86q32 60 40 124t8 172zM975 476q0 -116 -11 -192q-12 -76 -52 -153q-78 -147 -357 -145q-220 0 -318 91q-80 73 -96 246
q-6 65 -6 167t6 166q16 178 96 248q107 93 320 92t314 -93q44 -39 68 -111t30 -136t6 -180z" />
    <glyph glyph-name="p" unicode="p" horiz-adv-x="1130" 
d="M840 148q67 69 67 320t-44 328q-44 78 -130 100q-51 13 -121 13q-202 0 -278 -89q-76 -90 -76 -330t78 -330t276 -90q150 0 228 78zM995 502q0 -118 -6 -184q-16 -174 -93 -244q-97 -90 -294 -88q-248 0 -342 157v-534h-88v1370h84v-148q94 164 346 164q131 1 212 -33
t120 -109t50 -154t11 -197z" />
    <glyph glyph-name="q" unicode="q" horiz-adv-x="1130" 
d="M872 489q0 240 -77 330q-78 90 -279 90q-146 0 -203 -57q-31 -30 -50 -62q-40 -66 -40 -301q0 -88 3 -137q9 -145 64 -206q73 -78 226 -76q200 0 278 90t78 329zM958 -391h-88v534q-94 -157 -350 -157t-325 142q-37 75 -49 154q-11 80 -11 196t6 182q15 171 100 254
t285 81q252 0 346 -159v143h86v-1370z" />
    <glyph glyph-name="r" unicode="r" horiz-adv-x="886" 
d="M862 715h-82q0 111 -57 153t-173 43q-116 0 -168 -42q-30 -23 -52 -45t-34 -62t-24 -78q-12 -37 -12 -104v-580h-88v979h84v-143q86 160 303 159q303 1 303 -280z" />
    <glyph glyph-name="s" unicode="s" horiz-adv-x="1026" 
d="M123 268h82q0 -116 62 -158q63 -42 233 -42t242 46t73 150q0 104 -39 139t-162 46q-45 4 -159 10q-207 10 -262 67q-54 58 -55 202q-1 143 93 206q93 63 309 62t298 -85q63 -68 63 -196h-84q0 106 -60 152t-224 46t-235 -42t-73 -145t37 -135t121 -40t162 -12
q80 -5 120 -9q130 -15 174 -58q64 -64 64 -209t-97 -213t-304 -64q-207 2 -293 63t-86 219z" />
    <glyph glyph-name="t" unicode="t" horiz-adv-x="894" 
d="M844 268q0 -283 -316 -282q-156 0 -232 66t-75 216v631h-168v80h168v387h88v-387h453v-80h-453v-631q0 -116 52 -158t171 -42t175 46q55 46 55 154h82z" />
    <glyph glyph-name="u" unicode="u" horiz-adv-x="1097" 
d="M926 0h-84v147q-90 -164 -330 -163q-272 0 -332 180q-24 76 -24 217v598h88v-506q0 -123 2 -169q5 -125 64 -181q58 -55 192 -55t218 50q52 29 93 131q25 62 25 269v461h88v-979z" />
    <glyph glyph-name="v" unicode="v" horiz-adv-x="935" 
d="M893 979l-375 -979h-98l-377 979h92l336 -879l330 879h92z" />
    <glyph glyph-name="w" unicode="w" horiz-adv-x="1419" 
d="M1360 979l-291 -979h-102l-256 870l-258 -870h-103l-291 979h93l251 -866l259 866h98l260 -866l250 866h90z" />
    <glyph glyph-name="x" unicode="x" horiz-adv-x="935" 
d="M877 0h-107l-303 426l-303 -426h-105l357 496l-348 483h106l295 -416l299 416h102l-350 -481z" />
    <glyph glyph-name="y" unicode="y" horiz-adv-x="931" 
d="M877 979l-504 -1370h-90l147 393l-362 977h92l317 -866l307 866h93z" />
    <glyph glyph-name="z" unicode="z" horiz-adv-x="970" 
d="M860 0h-749v78l639 821h-639v80h749v-74l-637 -821h637v-84z" />
    <glyph glyph-name="braceleft" unicode="{" horiz-adv-x="743" 
d="M662 -391q-152 0 -226 74q-54 55 -74 125t-20 194v383q0 20 -12 33l-125 125q-39 39 -39 88t57 106l111 111q8 8 8 18v432q0 125 19 195t75 125q74 74 226 74v-78q-116 0 -176 -60t-60 -251v-420q0 -66 -43 -109q-98 -96 -122 -120t5 -54l115 -111q45 -45 45 -116v-373
q0 -190 62 -252t174 -61v-78z" />
    <glyph glyph-name="bar" unicode="|" horiz-adv-x="573" 
d="M330 -391h-86v1757h86v-1757z" />
    <glyph glyph-name="braceright" unicode="}" horiz-adv-x="743" 
d="M578 631q0 -49 -39 -88l-125 -125q-12 -12 -13 -33v-383q0 -125 -19 -195t-75 -124q-74 -74 -225 -74v78q112 -1 174 61t61 252v373q0 72 45 116l115 111q31 31 0 59l-117 115q-43 43 -43 109v420q0 190 -60 250t-175 61v78q152 0 225 -74q55 -55 75 -125t19 -195v-432
q0 -10 9 -18l110 -111q58 -57 58 -106z" />
    <glyph glyph-name="asciitilde" unicode="~" 
d="M1079 528l-161 -102q-68 -43 -157 -44t-157 40q-29 18 -110 65q-106 61 -211 -4l-162 -98l-49 68l161 100q68 43 156 45t158 -39q10 -6 48 -30q99 -62 158 -65q60 -3 115 32l166 102z" />
    <glyph glyph-name="exclamdown" unicode="&#xa1;" horiz-adv-x="575" 
d="M332 -387h-86v977h86v-977zM358 926q0 -70 -70 -70t-71 70q1 70 71 70t70 -70z" />
    <glyph glyph-name="cent" unicode="&#xa2;" horiz-adv-x="1054" 
d="M223 492q0 -266 67 -341q67 -74 218 -81v839q-148 -4 -216 -77q-69 -74 -69 -340zM936 268q0 -272 -344 -282v-181h-84v181q-243 8 -313 149q-37 74 -49 153q-11 78 -11 190t6 178q15 164 98 250q83 85 269 87v185h84v-185q344 -8 344 -282h-84q0 190 -260 198v-839
q260 8 260 198h84z" />
    <glyph glyph-name="sterling" unicode="&#xa3;" 
d="M1051 0h-920v82h115v563h-115v80h115v294q0 149 29 195t49 66q104 100 327 100t303 -71t78 -217h-86q0 135 -79 170q-79 36 -203 36q-275 0 -315 -146q-5 -22 -9 -35q-6 -20 -6 -82v-310h604v-80h-604v-563h717v-82z" />
    <glyph glyph-name="currency" unicode="&#xa4;" 
d="M1028 276q0 -164 -102 -227t-292 -63t-273 73q-44 39 -71 82q-61 94 -61 389h-106v80h106v148h-106v80h106q0 298 66 398q66 99 183 127q71 17 160 17q286 0 360 -144q30 -58 30 -144h-86q0 122 -81 164t-183 42q-239 0 -300 -102q-24 -39 -35 -69q-26 -71 -26 -289h373
v-80h-373v-148h373v-80h-373v-14q0 -221 31 -299q63 -147 295 -147q137 0 218 43t81 163h86z" />
    <glyph glyph-name="yen" unicode="&#xa5;" horiz-adv-x="1091" 
d="M915 838v-78h-231l-84 -146h315v-79h-323v-535h-88v535h-326v79h320l-88 146h-232v78h187l-314 528h103l397 -680l393 680h96l-309 -528h184z" />
    <glyph glyph-name="brokenbar" unicode="&#xa6;" horiz-adv-x="573" 
d="M330 -391h-86v606h86v-606zM330 760h-86v606h86v-606z" />
    <glyph glyph-name="section" unicode="&#xa7;" 
d="M343 744q-62 -40 -62 -156t55 -165q44 -42 188 -42h72q178 0 226 49t48 167t-66 153q-67 34 -233 34t-228 -40zM958 90q0 -172 -90 -238t-292 -67q-202 0 -292 63q-91 63 -91 226h83q0 -117 68 -161t230 -44t230 46q66 46 66 173t-60 168t-196 43h-53q-196 0 -272 53
q-96 68 -96 232q0 195 145 239q-145 47 -145 252q0 172 90 239q89 66 291 66t293 -64t91 -224h-86q0 116 -68 160t-228 44q-162 0 -229 -46t-67 -163t39 -155q23 -23 41 -37t58 -19q40 -4 69 -8q28 -4 136 -4q172 -6 239 -51q96 -66 96 -231q0 -193 -145 -240
q145 -47 145 -252z" />
    <glyph glyph-name="dieresis" unicode="&#xa8;" horiz-adv-x="851" 
d="M274 1303q0 -68 -66 -68t-67 68q1 63 67 63t66 -63zM713 1303q0 -68 -67 -68t-66 68q0 63 66 63t67 -63z" />
    <glyph glyph-name="copyright" unicode="&#xa9;" horiz-adv-x="1681" 
d="M1231 496q0 -291 -387 -291q-133 -1 -216 27q-151 50 -186 241q-14 82 -14 215t14 215q33 191 186 241q83 28 216 27q387 0 387 -290h-80q0 125 -82 169t-209 44q-126 0 -194 -24t-102 -81t-43 -122t-9 -179t9 -180q9 -64 43 -121t102 -81t194 -24t209 45q82 44 82 169
h80zM1432 664q0 218 -22 328t-89 185t-179 101t-304 25q-192 0 -302 -27q-220 -53 -265 -290q-21 -112 -21 -301t22 -300t90 -187q66 -76 179 -106q113 -29 269 -29q156 1 247 13q89 12 157 44t109 77t75 147t34 320zM1513 687q-1 -210 -29 -338q-59 -266 -309 -331
q-128 -32 -335 -32t-335 34q-252 66 -309 332q-28 127 -28 337t28 337q58 263 308 324q127 30 337 30t337 -30q250 -61 308 -326q28 -127 27 -337z" />
    <glyph glyph-name="ordfeminine" unicode="&#xaa;" horiz-adv-x="774" 
d="M606 1028h-250q-96 0 -146 -29t-50 -111t40 -110t129 -28t139 16t77 40q61 54 61 222zM684 688h-66v98q-86 -109 -266 -108q-143 0 -207 46q-63 46 -63 170t85 168q69 36 195 36h246q0 123 -37 168t-157 45t-180 -27q-58 -27 -58 -104h-76q0 201 303 200q222 0 263 -119
q18 -54 18 -141v-432z" />
    <glyph glyph-name="guillemotleft" unicode="&#xab;" horiz-adv-x="915" 
d="M182 293q-73 99 -73 190t57 170q23 33 35 51t43 53q31 34 51 56t72 74l57 -60q-4 -3 -38 -37t-45 -48t-42 -47q-31 -34 -69 -94q-37 -60 -37 -115q0 -54 24 -94q25 -40 37 -60t42 -52t41 -43l45 -45l38 -38l-58 -58q-6 6 -33 34l-39 39q-57 57 -72 77t-36 47zM569 293
q-73 99 -73 190t57 170q23 33 35 51t43 53q31 34 51 56t72 74l57 -60q-4 -3 -38 -37t-45 -48t-42 -47q-31 -34 -69 -94q-37 -60 -37 -115q0 -54 24 -94l36 -60t43 -52q30 -32 41 -43l45 -45l38 -38l-57 -58l-60 60q-70 70 -85 90t-36 47z" />
    <glyph glyph-name="logicalnot" unicode="&#xac;" 
d="M1063 0h-84v649h-891v82h975v-731z" />
    <glyph glyph-name="registered" unicode="&#xae;" horiz-adv-x="1085" 
d="M692 1043q0 35 -2 51t-7 26t-8 18t-15 13q-12 4 -20 8q-7 4 -67 4h-161v-202h141q97 0 107 10t21 23t11 49zM756 627h-64v166q0 41 -8 57t-11 24t-15 14t-18 8q-8 5 -73 5h-155v-274h-66v596h197q148 0 175 -33q36 -45 37 -134t-57 -124q57 -33 58 -135v-170zM543 514
q241 0 313 82t72 325t-73 321t-312 79q-127 0 -200 -16q-73 -17 -116 -67t-56 -122t-13 -201q0 -241 72 -321t313 -80zM991 921q0 -271 -90 -369t-358 -99q-268 0 -359 98q-90 99 -90 371t88 365t360 93t361 -94q88 -94 88 -365z" />
    <glyph glyph-name="macron" unicode="&#xaf;" horiz-adv-x="849" 
d="M754 1264h-656v77h656v-77z" />
    <glyph glyph-name="degree" unicode="&#xb0;" horiz-adv-x="1155" 
d="M576 850q124 0 170 50t47 176q0 126 -45 176t-170 50t-171 -50q-47 -52 -47 -177t46 -175t170 -50zM575 772q-165 0 -231 74t-66 238t70 230t231 66t229 -68t69 -232q0 -164 -68 -236t-234 -72z" />
    <glyph glyph-name="plusminus" unicode="&#xb1;" 
d="M1075 -80h-999v80h999v-80zM1063 506h-447v-395h-84v395h-446v82h446v391h84v-391h447v-82z" />
    <glyph glyph-name="twosuperior" unicode="&#xb2;" horiz-adv-x="747" 
d="M190 618h439v-71h-516v184q0 102 48 145q19 17 30 26q24 20 97 38q162 41 215 77q52 36 52 126t-42 125t-139 35q-98 0 -142 -25t-44 -92h-77q0 104 65 146q66 42 197 42t195 -51t63 -162q0 -111 -47 -178q-33 -47 -199 -92q-83 -21 -105 -29q-72 -24 -82 -76
q-7 -29 -8 -75v-93z" />
    <glyph glyph-name="threesuperior" unicode="&#xb3;" horiz-adv-x="747" 
d="M643 778q-1 -133 -67 -184t-200 -51t-200 43t-65 149h77q2 -69 44 -95t147 -26t147 29t41 133q0 104 -41 137t-149 33h-131v70h131q96 0 139 26t43 116q0 89 -37 120t-140 31t-146 -27t-43 -94h-76q0 104 65 148q66 44 199 44t193 -49t61 -168q-1 -75 -19 -117t-75 -65
q102 -37 102 -203z" />
    <glyph glyph-name="acute" unicode="&#xb4;" horiz-adv-x="823" 
d="M600 1366l-272 -264h-105l266 264h111z" />
    <glyph glyph-name="mu" unicode="&#xb5;" horiz-adv-x="1107" 
d="M936 0h-86v150q-86 -164 -328 -164q-188 0 -262 94v-471h-88v1370h88v-559q-7 -136 10 -200t53 -96q60 -54 177 -54q194 0 274 90q59 66 71 235q3 55 3 152v432h88v-979z" />
    <glyph glyph-name="paragraph" unicode="&#xb6;" horiz-adv-x="1144" 
d="M594 719v565q-207 0 -268 -18q-148 -44 -148 -265q0 -147 48 -200q28 -31 52 -48q48 -34 225 -34h91zM911 0h-86v1284h-145v-1284h-86v637q-261 0 -325 28q-99 40 -132 104q-47 99 -47 235t45 229q26 56 129 104q54 24 147 27q93 2 177 2h323v-1366z" />
    <glyph glyph-name="periodcentered" unicode="&#xb7;" horiz-adv-x="428" 
d="M285 686q0 -70 -71 -70t-71 70t71 70t71 -70z" />
    <glyph glyph-name="cedilla" unicode="&#xb8;" horiz-adv-x="849" 
d="M571 -229q1 -78 -35 -114t-120 -36t-120 29t-36 96h68q0 -39 19 -52t71 -13t66 20q15 20 16 64t-12 56q-13 13 -19 18q-5 5 -23 8t-24 5t-29 1h-26v147h71v-92q133 0 133 -137z" />
    <glyph glyph-name="onesuperior" unicode="&#xb9;" horiz-adv-x="747" 
d="M569 547h-452v71h186v644l-141 -129l-51 49l200 184h70v-748h188v-71z" />
    <glyph glyph-name="ordmasculine" unicode="&#xba;" horiz-adv-x="774" 
d="M618 1030q0 84 -6 128q-15 111 -98 136q-47 14 -127 14t-127 -14q-85 -26 -98 -136q-6 -44 -6 -128t6 -128t28 -83t70 -53q47 -14 127 -14t127 14q85 25 98 136q6 44 6 128zM696 1030q0 -94 -9 -150t-40 -106q-59 -95 -260 -95q-202 1 -260 94q-31 51 -40 107t-9 150
t9 150t40 107q59 95 261 94t259 -94q31 -51 40 -107t9 -150z" />
    <glyph glyph-name="guillemotright" unicode="&#xbb;" horiz-adv-x="915" 
d="M402 572q18 -48 18 -94t-16 -82q-49 -106 -129 -189q-27 -27 -37 -38t-38 -39l-34 -34l-57 58l37 37q108 108 124 135q16 26 41 68t25 95q0 54 -36 111t-69 93t-44 49q-11 14 -45 48t-38 37l58 60q52 -52 72 -74t51 -56t43 -52q12 -17 34 -51t40 -82zM790 572
q17 -48 17 -94t-27 -104t-59 -99q-45 -56 -88 -99l-80 -80l-57 58l38 38t45 44q69 72 83 96q45 75 53 103t8 68t-36 97t-69 93t-47 52t-79 82l57 60q52 -52 72 -74t51 -56t43 -52q12 -17 35 -51t40 -82z" />
    <glyph glyph-name="onequarter" unicode="&#xbc;" horiz-adv-x="1597" 
d="M1233 295v405l-283 -405h283zM569 547h-452v69h186v646l-141 -129l-51 49l200 184h70v-750h188v-69zM1219 1376l-721 -1376h-80l717 1376h84zM1436 229h-127v-229h-76v229h-369v68l373 522h72v-524h127v-66z" />
    <glyph glyph-name="onehalf" unicode="&#xbd;" horiz-adv-x="1597" 
d="M569 547h-452v69h186v646l-141 -129l-51 49l200 184h70v-750h188v-69zM1219 1376l-721 -1376h-80l717 1376h84zM1083 72h439v-72h-516v184q0 102 48 145q19 17 30 26q24 20 97 38q160 40 213 76q54 36 54 127q0 90 -42 125t-139 35t-141 -25t-45 -92h-77q0 104 65 146
q66 42 197 42q130 0 194 -51t64 -162t-47 -178q-17 -22 -63 -44t-130 -45t-108 -32q-75 -25 -85 -75q-7 -29 -8 -76v-92z" />
    <glyph glyph-name="threequarters" unicode="&#xbe;" horiz-adv-x="1597" 
d="M1294 295v405l-282 -405h282zM643 778q-1 -133 -67 -184t-200 -51t-200 43t-65 149h77q2 -69 44 -95t147 -26t147 29t41 133q0 104 -41 137t-149 33h-131v70h131q96 0 139 26t43 116q0 89 -37 120t-140 31t-146 -27t-43 -94h-76q0 104 65 148q66 44 199 44t193 -49
t61 -168q-1 -75 -19 -117t-75 -65q102 -37 102 -203zM1280 1376l-721 -1376h-80l717 1376h84zM1497 229h-127v-229h-76v229h-368v68l372 522h72v-524h127v-66z" />
    <glyph glyph-name="questiondown" unicode="&#xbf;" horiz-adv-x="860" 
d="M797 -109q0 -157 -88 -223q-89 -66 -277 -66t-277 76t-89 265q0 129 52 203t158 119q106 46 126 92q22 46 22 163v74h88v-109q0 -125 -41 -184t-136 -99t-139 -94t-44 -182t61 -184t216 -57q155 0 221 46t65 160h82zM537 926q0 -70 -71 -70t-71 70t71 70t71 -70z" />
    <glyph glyph-name="Agrave" unicode="&#xc0;" horiz-adv-x="1243" 
d="M903 496l-282 764l-287 -764h569zM1190 0h-96l-160 418h-631l-158 -418h-92l520 1366h95zM805 1497h-105l-272 264h111z" />
    <glyph glyph-name="Aacute" unicode="&#xc1;" horiz-adv-x="1243" 
d="M903 496l-282 764l-287 -764h569zM1190 0h-96l-160 418h-631l-158 -418h-92l520 1366h95zM821 1761l-272 -264h-105l267 264h110z" />
    <glyph glyph-name="Acircumflex" unicode="&#xc2;" horiz-adv-x="1243" 
d="M903 496l-282 764l-287 -764h569zM1190 0h-96l-160 418h-631l-158 -418h-92l520 1366h95zM936 1497h-105l-206 205l-209 -205h-107l273 264h84z" />
    <glyph glyph-name="Atilde" unicode="&#xc3;" horiz-adv-x="1243" 
d="M1004 1692l-109 -60q-131 -72 -250 -8q-8 4 -41 24t-71 31q-57 18 -115 -14l-133 -74l-41 64q12 6 55 32q120 73 191 75q71 3 154 -46q22 -12 31 -17q91 -51 167 -7l125 65zM903 496l-282 764l-287 -764h569zM1190 0h-96l-160 418h-631l-158 -418h-92l520 1366h95z" />
    <glyph glyph-name="Adieresis" unicode="&#xc4;" horiz-adv-x="1243" 
d="M903 496l-282 764l-287 -764h569zM1190 0h-96l-160 418h-631l-158 -418h-92l520 1366h95zM471 1696q0 -68 -67 -68t-66 68q0 63 66 63t67 -63zM909 1696q-1 -68 -67 -68t-66 68q0 63 66 63t67 -63z" />
    <glyph glyph-name="Aring" unicode="&#xc5;" horiz-adv-x="1243" 
d="M905 496l-282 764l-287 -764h569zM774 1493q0 92 -31 125t-123 33t-121 -32q-28 -32 -28 -126t30 -125t122 -31q91 0 121 32t30 124zM393 1516q0 110 52 157q51 47 175 47t178 -49t54 -172q0 -205 -147 -225l485 -1274h-94l-160 418h-631l-158 -418h-94l486 1274
q-84 14 -115 74q-31 58 -31 168z" />
    <glyph glyph-name="AE" unicode="&#xc6;" horiz-adv-x="1845" 
d="M926 502v753l-494 -753h494zM1673 0h-747v422h-545l-277 -422h-100l901 1366h768v-82h-659v-541h639v-81h-639v-580h659v-82z" />
    <glyph glyph-name="Ccedilla" unicode="&#xc7;" horiz-adv-x="1300" 
d="M1151 348q0 -202 -105 -282t-356 -80v-82q133 0 133 -137q0 -78 -36 -114q-35 -36 -119 -36t-120 29t-36 96h68q0 -39 19 -52q19 -14 69 -14t72 24q21 24 10 89q-2 11 -8 21t-8 16q-3 6 -13 10t-14 6q-3 2 -19 3t-21 2t-23 1h-26v138q-131 6 -219 45t-134 85t-67 150
q-22 104 -26 180t-4 216q0 393 42 482q63 139 148 176q138 60 360 60t328 -82t105 -280h-84q-2 158 -85 218t-304 60t-330 -91q-43 -36 -63 -127q-27 -124 -27 -306v-90q0 -291 23 -383q37 -158 182 -203q82 -27 209 -26q227 0 310 60t85 218h84z" />
    <glyph glyph-name="Egrave" unicode="&#xc8;" horiz-adv-x="1193" 
d="M766 1497h-104l-273 264h111zM1022 0h-821v1366h821v-82h-729v-541h708v-81h-708v-580h729v-82z" />
    <glyph glyph-name="Eacute" unicode="&#xc9;" horiz-adv-x="1193" 
d="M1022 0h-821v1366h821v-82h-729v-541h708v-81h-708v-580h729v-82zM791 1761l-273 -264h-104l266 264h111z" />
    <glyph glyph-name="Ecircumflex" unicode="&#xca;" horiz-adv-x="1193" 
d="M915 1497h-104l-207 205l-209 -205h-106l272 264h84zM1022 0h-821v1366h821v-82h-729v-541h708v-81h-708v-580h729v-82z" />
    <glyph glyph-name="Edieresis" unicode="&#xcb;" horiz-adv-x="1193" 
d="M1022 0h-821v1366h821v-82h-729v-541h708v-81h-708v-580h729v-82zM461 1698q0 -68 -67 -68t-66 68q0 63 66 63t67 -63zM899 1698q0 -68 -67 -68t-66 68q0 63 66 63t67 -63z" />
    <glyph glyph-name="Igrave" unicode="&#xcc;" horiz-adv-x="491" 
d="M457 1497h-105l-272 264h110zM291 0h-90v1366h90v-1366z" />
    <glyph glyph-name="Iacute" unicode="&#xcd;" horiz-adv-x="491" 
d="M291 0h-90v1366h90v-1366zM471 1761l-272 -264h-105l266 264h111z" />
    <glyph glyph-name="Icircumflex" unicode="&#xce;" horiz-adv-x="491" 
d="M590 1497h-105l-206 205l-209 -205h-107l273 264h83zM291 0h-90v1366h90v-1366z" />
    <glyph glyph-name="Idieresis" unicode="&#xcf;" horiz-adv-x="491" 
d="M291 0h-90v1366h90v-1366zM125 1698q0 -68 -67 -68t-66 68q0 63 66 63t67 -63zM563 1698q-1 -68 -67 -68t-66 68q0 63 66 63t67 -63z" />
    <glyph glyph-name="Eth" unicode="&#xd0;" horiz-adv-x="1388" 
d="M1130 684q0 216 -16 320t-57 166t-122 90q-81 27 -247 26h-362v-557h387v-82h-387v-565h362q166 0 247 27t122 89t57 166t16 320zM1221 684q-1 -225 -17 -334q-37 -246 -217 -313q-98 -37 -287 -37h-462v647h-179v82h179v637h462q188 0 286 -37q181 -68 218 -312
q17 -108 17 -333z" />
    <glyph glyph-name="Ntilde" unicode="&#xd1;" horiz-adv-x="1333" 
d="M1133 0h-115l-729 1241v-1241h-88v1366h110l733 -1239v1239h89v-1366zM1044 1692l-108 -60q-131 -72 -250 -8q-8 4 -41 24t-71 31q-57 18 -115 -14l-133 -74l-41 64q12 6 55 32q120 73 191 75q71 3 154 -46q22 -12 31 -17q91 -51 167 -7l125 65z" />
    <glyph glyph-name="Ograve" unicode="&#xd2;" horiz-adv-x="1361" 
d="M1102 553v170q0 141 -3 206t-23 153t-64 123q-111 93 -333 92t-331 -92q-43 -36 -63 -124q-19 -88 -23 -151q-4 -62 -4 -148v-260q0 -131 11 -178q30 -129 56 -155q25 -25 57 -53t74 -39t98 -19t126 -8t126 8t98 19t74 39t52 48t41 90q31 102 31 279zM1192 684
q0 -299 -21 -399q-43 -197 -217 -262q-106 -39 -265 -39t-259 36t-152 79t-77 147t-29 176t-4 161v101q0 297 20 397q43 195 215 260q106 39 284 39t320 -59q79 -34 145 -173q40 -84 40 -384v-80zM883 1497h-105l-272 264h110z" />
    <glyph glyph-name="Oacute" unicode="&#xd3;" horiz-adv-x="1361" 
d="M1102 553v170q0 141 -3 206t-23 153t-64 123q-111 93 -333 92t-331 -92q-43 -36 -63 -124q-19 -88 -23 -151q-4 -62 -4 -148v-260q0 -131 11 -178q30 -129 56 -155q25 -25 57 -53t74 -39t98 -19t126 -8t126 8t98 19t74 39t52 48t41 90q31 102 31 279zM1192 684
q0 -299 -21 -399q-43 -197 -217 -262q-106 -39 -265 -39t-259 36t-152 79t-77 147t-29 176t-4 161v101q0 297 20 397q43 195 215 260q106 39 284 39t320 -59q79 -34 145 -173q40 -84 40 -384v-80zM856 1761l-272 -264h-105l266 264h111z" />
    <glyph glyph-name="Ocircumflex" unicode="&#xd4;" horiz-adv-x="1361" 
d="M993 1497h-104l-207 205l-209 -205h-106l272 264h84zM1102 553v170q0 141 -3 206t-23 153t-64 123q-111 93 -333 92t-331 -92q-43 -36 -63 -124q-19 -88 -23 -151q-4 -62 -4 -148v-260q0 -131 11 -178q30 -129 56 -155q25 -25 57 -53t74 -39t98 -19t126 -8t126 8t98 19
t74 39t52 48t41 90q31 102 31 279zM1192 684q0 -299 -21 -399q-43 -197 -217 -262q-106 -39 -265 -39t-259 36t-152 79t-77 147t-29 176t-4 161v101q0 297 20 397q43 195 215 260q106 39 284 39t320 -59q79 -34 145 -173q40 -84 40 -384v-80z" />
    <glyph glyph-name="Otilde" unicode="&#xd5;" horiz-adv-x="1361" 
d="M1102 553v170q0 141 -3 206t-23 153t-64 123q-111 93 -333 92t-331 -92q-43 -36 -63 -124q-19 -88 -23 -151q-4 -62 -4 -148v-260q0 -131 11 -178q30 -129 56 -155q25 -25 57 -53t74 -39t98 -19t126 -8t126 8t98 19t74 39t52 48t41 90q31 102 31 279zM1192 684
q0 -299 -21 -399q-43 -197 -217 -262q-106 -39 -265 -39t-259 36t-152 79t-77 147t-29 176t-4 161v101q0 297 20 397q43 195 215 260q106 39 284 39t320 -59q79 -34 145 -173q40 -84 40 -384v-80zM1061 1692l-109 -60q-131 -72 -250 -8q-8 4 -40 24t-72 30q-58 17 -115 -13
l-133 -74l-41 64q12 6 55 32q120 73 193 75q73 3 152 -46q22 -12 31 -17q91 -51 167 -7l125 65z" />
    <glyph glyph-name="Odieresis" unicode="&#xd6;" horiz-adv-x="1361" 
d="M1102 553v170q0 141 -3 206t-23 153t-64 123q-111 93 -333 92t-331 -92q-43 -36 -63 -124q-19 -88 -23 -151q-4 -62 -4 -148v-260q0 -131 11 -178q30 -129 56 -155q25 -25 57 -53t74 -39t98 -19t126 -8t126 8t98 19t74 39t52 48t41 90q31 102 31 279zM1192 684
q0 -299 -21 -399q-43 -197 -217 -262q-106 -39 -265 -39t-259 36t-152 79t-77 147t-29 176t-4 161v101q0 297 20 397q43 195 215 260q106 39 284 39t320 -59q79 -34 145 -173q40 -84 40 -384v-80zM528 1696q0 -68 -66 -68t-67 68q1 63 67 63t66 -63zM967 1696q0 -68 -67 -68
t-66 68q0 63 66 63t67 -63z" />
    <glyph glyph-name="multiply" unicode="&#xd7;" horiz-adv-x="1153" 
d="M1032 104l-59 -57l-398 399l-395 -399l-59 57l397 398l-395 395l57 57l395 -393l398 393l57 -57l-395 -395z" />
    <glyph glyph-name="Oslash" unicode="&#xd8;" horiz-adv-x="1359" 
d="M778 1292q-61 4 -90 4q-272 2 -358 -120q-40 -56 -56 -150t-18 -341t10 -339q30 -227 234 -262zM1028 186q40 56 56 148t18 341t-9 342q-27 225 -235 261l-278 -1208q31 -2 92 -2q270 -2 356 118zM1124 1208q44 -74 58 -190t10 -346q-4 -232 -20 -346t-64 -187
q-109 -160 -436 -157q-37 0 -111 8l-61 -279l-80 17l61 274q-174 33 -248 154q-45 74 -57 188t-8 350t18 348t64 185q109 156 438 153q53 0 109 -6l61 273l80 -19l-59 -266q168 -31 245 -154z" />
    <glyph glyph-name="Ugrave" unicode="&#xd9;" horiz-adv-x="1329" 
d="M1141 1366v-852q0 -250 -64 -352q-113 -178 -413 -178q-417 0 -464 306q-16 106 -14 246t2 152v678h91v-876q0 -182 21 -239q67 -181 364 -181q262 0 342 143q38 68 44 243q1 60 1 232v678h90zM840 1497h-105l-272 264h110z" />
    <glyph glyph-name="Uacute" unicode="&#xda;" horiz-adv-x="1329" 
d="M1141 1366v-852q0 -250 -64 -352q-113 -178 -413 -178q-417 0 -464 306q-16 106 -14 246t2 152v678h91v-876q0 -182 21 -239q67 -181 364 -181q262 0 342 143q38 68 44 243q1 60 1 232v678h90zM858 1761l-272 -264h-105l267 264h110z" />
    <glyph glyph-name="Ucircumflex" unicode="&#xdb;" horiz-adv-x="1329" 
d="M979 1497h-105l-206 205l-209 -205h-107l273 264h84zM1141 1366v-852q0 -250 -64 -352q-113 -178 -413 -178q-417 0 -464 306q-16 106 -14 246t2 152v678h91v-876q0 -182 21 -239q67 -181 364 -181q262 0 342 143q38 68 44 243q1 60 1 232v678h90z" />
    <glyph glyph-name="Udieresis" unicode="&#xdc;" horiz-adv-x="1329" 
d="M518 1696q0 -68 -66 -68t-67 68q1 63 67 63t66 -63zM956 1696q0 -68 -66 -68t-67 68q1 63 67 63t66 -63zM1141 1366v-852q0 -250 -64 -352q-113 -178 -413 -178q-417 0 -464 306q-16 106 -14 246t2 152v678h91v-876q0 -182 21 -239q67 -181 364 -181q262 0 342 143
q38 68 44 243q1 60 1 232v678h90z" />
    <glyph glyph-name="Yacute" unicode="&#xdd;" horiz-adv-x="1067" 
d="M575 0h-88v602l-464 764h100l414 -678l409 678h98l-469 -764v-602zM805 1776l-273 -265h-104l266 265h111z" />
    <glyph glyph-name="Thorn" unicode="&#xde;" horiz-adv-x="1232" 
d="M1049 700q0 72 -21 127q-20 55 -46 84q-56 62 -284 62h-407v-572h314q259 0 310 23q23 10 55 31q79 50 79 245zM1139 725q-1 -98 -9 -146t-19 -85t-36 -64t-45 -46q-20 -20 -59 -32q-72 -23 -147 -27t-183 -6h-350v-319h-90v1366h90v-313h350q260 0 324 -29
q99 -45 129 -104q45 -97 45 -195z" />
    <glyph glyph-name="germandbls" unicode="&#xdf;" 
d="M991 397q0 -217 -101 -307t-321 -90h-161v80h165q180 0 255 66t75 252t-77 256t-269 69h-149v80h149q186 0 260 61t74 220q0 160 -68 218t-253 58t-247 -80t-63 -270v-1010h-88v1004q0 112 14 184t56 134q80 120 315 120t329 -79t93 -271q0 -129 -41 -213t-150 -117
q109 -27 156 -117t47 -248z" />
    <glyph glyph-name="agrave" unicode="&#xe0;" horiz-adv-x="1087" 
d="M723 1102h-105l-272 264h111zM487 500q-145 0 -213 -43t-68 -168t62 -174t198 -49t212 28t112 89q36 62 46 132t8 185h-357zM932 0h-82v154q-82 -168 -365 -168q-190 0 -278 68t-88 236q0 166 92 228t285 62h348q-2 166 -13 204q-27 94 -155 117q-57 10 -142 10
q-84 0 -144 -10t-111 -57t-52 -133h-82q0 172 129 233q107 51 281 51q262 0 332 -114q53 -89 47 -251q-2 -47 -2 -61v-569z" />
    <glyph glyph-name="aacute" unicode="&#xe1;" horiz-adv-x="1087" 
d="M487 500q-145 0 -213 -43t-68 -168t62 -174t198 -49t212 28t112 89q36 62 46 132t8 185h-357zM932 0h-82v154q-82 -168 -365 -168q-190 0 -278 68t-88 236q0 166 92 228t285 62h348q-2 166 -13 204q-27 94 -155 117q-57 10 -142 10q-84 0 -144 -10t-111 -57t-52 -133h-82
q0 172 129 233q107 51 281 51q262 0 332 -114q53 -89 47 -251q-2 -47 -2 -61v-569zM743 1366l-272 -264h-104l266 264h110z" />
    <glyph glyph-name="acircumflex" unicode="&#xe2;" horiz-adv-x="1087" 
d="M487 500q-145 0 -213 -43t-68 -168t62 -174t198 -49t212 28t112 89q36 62 46 132t8 185h-357zM932 0h-82v154q-82 -168 -365 -168q-190 0 -278 68t-88 236q0 166 92 228t285 62h348q-2 166 -13 204q-27 94 -155 117q-57 10 -142 10q-84 0 -144 -10t-111 -57t-52 -133h-82
q0 172 129 233q107 51 281 51q262 0 332 -114q53 -89 47 -251q-2 -47 -2 -61v-569zM856 1102h-104l-207 205l-209 -205h-107l273 264h84z" />
    <glyph glyph-name="atilde" unicode="&#xe3;" horiz-adv-x="1087" 
d="M487 500q-145 0 -213 -43t-68 -168t62 -174t198 -49t212 28t112 89q36 62 46 132t8 185h-357zM932 0h-82v154q-82 -168 -365 -168q-190 0 -278 68t-88 236q0 166 92 228t285 62h348q-2 166 -13 204q-27 94 -155 117q-57 10 -142 10q-84 0 -144 -10t-111 -57t-52 -133h-82
q0 172 129 233q107 51 281 51q262 0 332 -114q53 -89 47 -251q-2 -47 -2 -61v-569zM920 1300l-109 -59q-131 -72 -250 -8q-8 4 -41 23t-69 31q-56 19 -117 -13l-133 -74l-41 64q12 6 55 32q123 73 190 75q66 3 125 -30q16 -8 43 -23t64 -30q55 -23 121 12l125 66z" />
    <glyph glyph-name="adieresis" unicode="&#xe4;" horiz-adv-x="1087" 
d="M391 1303q-1 -68 -67 -68t-66 68q0 63 66 63t67 -63zM829 1303q-1 -68 -67 -68t-66 68q0 63 66 63t67 -63zM487 500q-145 0 -213 -43t-68 -168t62 -174t198 -49t212 28t112 89q36 62 46 132t8 185h-357zM932 0h-82v154q-82 -168 -365 -168q-190 0 -278 68t-88 236
q0 166 92 228t285 62h348q-2 166 -13 204q-27 94 -155 117q-57 10 -142 10q-84 0 -144 -10t-111 -57t-52 -133h-82q0 172 129 233q107 51 281 51q262 0 332 -114q53 -89 47 -251q-2 -47 -2 -61v-569z" />
    <glyph glyph-name="aring" unicode="&#xe5;" horiz-adv-x="1087" 
d="M487 500q-145 0 -213 -43t-68 -168t62 -174t198 -49t212 28t112 89q36 62 46 132t8 185h-357zM702 1140q0 91 -30 125q-31 33 -123 33t-122 -32t-30 -126q0 -93 31 -122t123 -29t122 30q29 30 29 121zM932 0h-82v154q-82 -168 -365 -168q-190 0 -278 68t-88 236
q0 166 92 228t285 62h348q-2 166 -13 204q-27 94 -155 117q-57 10 -142 10q-84 0 -144 -10t-111 -57t-52 -133h-82q0 223 236 270q-59 31 -59 158t52 175t176 48t177 -48t53 -174t-61 -159q113 -26 149 -78q16 -23 26 -35t18 -43t12 -43q8 -23 8 -101v-681z" />
    <glyph glyph-name="ae" unicode="&#xe6;" horiz-adv-x="1796" 
d="M848 496h-359q-143 0 -213 -45t-70 -169t62 -170q61 -46 187 -46q217 0 294 66q78 66 94 216q5 56 5 148zM1575 575q0 191 -67 265t-251 74q-185 0 -253 -78q-68 -76 -68 -261h639zM887 197q-69 -211 -428 -211q-165 0 -253 66t-87 230q0 166 94 230t285 63h350
q0 199 -22 230q-11 16 -32 44q-22 28 -56 37q-94 25 -192 25q-96 0 -156 -10t-111 -57t-52 -133h-82q0 172 129 233q107 51 281 51q295 0 350 -166q76 166 350 166q236 0 321 -103t85 -349v-49h-727q0 -96 4 -152q11 -149 83 -210q72 -62 243 -62q301 0 301 198h82
q0 -283 -385 -282q-324 0 -375 211z" />
    <glyph glyph-name="ccedilla" unicode="&#xe7;" horiz-adv-x="1054" 
d="M936 268q0 -270 -354 -282v-82q133 0 133 -137q0 -78 -36 -114t-120 -36t-120 29t-36 96h68q0 -39 19 -52q18 -14 70 -14t68 20t15 65q0 44 -12 56q-12 13 -24 22t-52 9h-45v138q-242 8 -312 139q-38 71 -50 151t-13 201q0 121 8 193q20 176 103 243q102 84 305 82
q385 0 385 -284h-82q0 201 -301 200q-171 0 -252 -67q-60 -50 -74 -202q-4 -54 -4 -142q0 -253 52 -328t145 -93q55 -11 133 -11q301 0 301 200h82z" />
    <glyph glyph-name="egrave" unicode="&#xe8;" horiz-adv-x="1085" 
d="M721 1102h-105l-272 264h111zM864 561q0 190 -67 272q-68 81 -252 81t-253 -83q-69 -82 -69 -270h641zM950 481h-727q1 -170 23 -243q22 -74 57 -103q78 -65 248 -65q301 0 301 198h82q0 -283 -385 -282q-135 0 -218 30q-149 53 -183 251q-13 83 -13 219t13 220
q12 84 54 154q79 136 341 135q205 0 294 -79t106 -256q7 -70 7 -179z" />
    <glyph glyph-name="eacute" unicode="&#xe9;" horiz-adv-x="1085" 
d="M864 561q0 190 -67 272q-68 81 -252 81t-253 -83q-69 -82 -69 -270h641zM950 481h-727q1 -170 23 -243q22 -74 57 -103q78 -65 248 -65q301 0 301 198h82q0 -283 -385 -282q-135 0 -218 30q-149 53 -183 251q-13 83 -13 219t13 220q12 84 54 154q79 136 341 135
q205 0 294 -79t106 -256q7 -70 7 -179zM741 1366l-272 -264h-104l266 264h110z" />
    <glyph glyph-name="ecircumflex" unicode="&#xea;" horiz-adv-x="1085" 
d="M864 561q0 190 -67 272q-68 81 -252 81t-253 -83q-69 -82 -69 -270h641zM950 481h-727q1 -170 23 -243q22 -74 57 -103q78 -65 248 -65q301 0 301 198h82q0 -283 -385 -282q-135 0 -218 30q-149 53 -183 251q-13 83 -13 219t13 220q12 84 54 154q79 136 341 135
q205 0 294 -79t106 -256q7 -70 7 -179zM852 1102h-104l-207 205l-209 -205h-107l273 264h84z" />
    <glyph glyph-name="edieresis" unicode="&#xeb;" horiz-adv-x="1085" 
d="M391 1303q-1 -68 -67 -68t-66 68q0 63 66 63t67 -63zM829 1303q-1 -68 -67 -68t-66 68q0 63 66 63t67 -63zM864 561q0 190 -67 272q-68 81 -252 81t-253 -83q-69 -82 -69 -270h641zM950 481h-727q1 -170 23 -243q22 -74 57 -103q78 -65 248 -65q301 0 301 198h82
q0 -283 -385 -282q-135 0 -218 30q-149 53 -183 251q-13 83 -13 219t13 220q12 84 54 154q79 136 341 135q205 0 294 -79t106 -256q7 -70 7 -179z" />
    <glyph glyph-name="igrave" unicode="&#xec;" horiz-adv-x="432" 
d="M260 0h-88v979h88v-979zM406 1102h-105l-272 264h110z" />
    <glyph glyph-name="iacute" unicode="&#xed;" horiz-adv-x="432" 
d="M403 1366l-272 -264h-104l266 264h110zM260 0h-88v979h88v-979z" />
    <glyph glyph-name="icircumflex" unicode="&#xee;" horiz-adv-x="432" 
d="M528 1102h-104l-207 205l-209 -205h-106l272 264h84zM260 0h-88v979h88v-979z" />
    <glyph glyph-name="idieresis" unicode="&#xef;" horiz-adv-x="432" 
d="M260 0h-88v979h88v-979zM63 1303q-1 -68 -67 -68t-66 68q0 63 66 63t67 -63zM502 1303q0 -68 -67 -68t-66 68q1 63 67 63t66 -63z" />
    <glyph glyph-name="eth" unicode="&#xf0;" horiz-adv-x="1105" 
d="M883 489q0 233 -81 327t-278 95q-156 0 -230 -76q-55 -58 -69 -207q-4 -52 -4 -144t4 -146q11 -151 75 -203q83 -67 253 -67q115 0 183 24t99 86q32 62 40 126t8 185zM135 434q0 153 6 221q15 172 93 248q96 94 288 92q88 0 150 -16l-248 246l-125 -109l-49 58l123 104
l-115 115l59 53l117 -117l125 109l49 -58l-121 -104l304 -309q111 -113 145 -203t34 -250t-14 -244t-57 -154q-82 -132 -346 -130q-208 0 -306 81q-46 38 -79 126t-33 241z" />
    <glyph glyph-name="ntilde" unicode="&#xf1;" horiz-adv-x="1097" 
d="M932 1300l-109 -59q-131 -72 -250 -8q-8 4 -41 23t-69 31q-56 19 -117 -13l-133 -74l-41 64q12 6 55 32q124 73 191 75q68 3 154 -46q22 -12 31 -17q89 -49 167 -8l125 66zM944 0h-88v506q0 123 -2 169q-5 125 -64 181q-58 55 -192 55t-218 -50q-52 -29 -93 -131
q-25 -62 -25 -246v-484h-88v979h84v-148q88 164 330 164q272 0 332 -180q24 -76 24 -217v-598z" />
    <glyph glyph-name="ograve" unicode="&#xf2;" horiz-adv-x="1110" 
d="M750 1102h-105l-272 264h110zM887 476q0 108 -4 164q-11 149 -84 210t-244 61t-252 -67q-62 -52 -76 -203q-4 -55 -4 -151t4 -151q11 -148 84 -209q73 -60 216 -60t211 24t101 86q32 60 40 124t8 172zM975 476q0 -116 -11 -192q-12 -76 -52 -153q-78 -147 -357 -145
q-220 0 -318 91q-80 73 -96 246q-6 65 -6 167t6 166q16 178 96 248q107 93 320 92t314 -93q44 -39 68 -111t30 -136t6 -180z" />
    <glyph glyph-name="oacute" unicode="&#xf3;" horiz-adv-x="1110" 
d="M887 476q0 108 -4 164q-11 149 -84 210t-244 61t-252 -67q-62 -52 -76 -203q-4 -55 -4 -151t4 -151q11 -148 84 -209q73 -60 216 -60t211 24t101 86q32 60 40 124t8 172zM975 476q0 -116 -11 -192q-12 -76 -52 -153q-78 -147 -357 -145q-220 0 -318 91q-80 73 -96 246
q-6 65 -6 167t6 166q16 178 96 248q107 93 320 92t314 -93q44 -39 68 -111t30 -136t6 -180zM733 1366l-272 -264h-105l267 264h110z" />
    <glyph glyph-name="ocircumflex" unicode="&#xf4;" horiz-adv-x="1110" 
d="M887 476q0 108 -4 164q-11 149 -84 210t-244 61t-252 -67q-62 -52 -76 -203q-4 -55 -4 -151t4 -151q11 -148 84 -209q73 -60 216 -60t211 24t101 86q32 60 40 124t8 172zM975 476q0 -116 -11 -192q-12 -76 -52 -153q-78 -147 -357 -145q-220 0 -318 91q-80 73 -96 246
q-6 65 -6 167t6 166q16 178 96 248q107 93 320 92t314 -93q44 -39 68 -111t30 -136t6 -180zM866 1102h-104l-207 205l-209 -205h-106l272 264h84z" />
    <glyph glyph-name="otilde" unicode="&#xf5;" horiz-adv-x="1110" 
d="M887 476q0 108 -4 164q-11 149 -84 210t-244 61t-252 -67q-62 -52 -76 -203q-4 -55 -4 -151t4 -151q11 -148 84 -209q73 -60 216 -60t211 24t101 86q32 60 40 124t8 172zM975 476q0 -116 -11 -192q-12 -76 -52 -153q-78 -147 -357 -145q-220 0 -318 91q-80 73 -96 246
q-6 65 -6 167t6 166q16 178 96 248q107 93 320 92t314 -93q44 -39 68 -111t30 -136t6 -180zM934 1300l-109 -59q-131 -72 -250 -8q-9 4 -41 23q-83 48 -136 37q-24 -5 -50 -19l-133 -74l-41 64q12 6 55 32q124 73 191 75q68 3 154 -46q22 -12 31 -17q89 -49 167 -8l125 66z
" />
    <glyph glyph-name="odieresis" unicode="&#xf6;" horiz-adv-x="1110" 
d="M401 1303q-1 -68 -67 -68t-66 68q0 63 66 63t67 -63zM840 1303q0 -68 -67 -68t-66 68q1 63 67 63t66 -63zM887 476q0 108 -4 164q-11 149 -84 210t-244 61t-252 -67q-62 -52 -76 -203q-4 -55 -4 -151t4 -151q11 -148 84 -209q73 -60 216 -60t211 24t101 86q32 60 40 124
t8 172zM975 476q0 -116 -11 -192q-12 -76 -52 -153q-78 -147 -357 -145q-220 0 -318 91q-80 73 -96 246q-6 65 -6 167t6 166q16 178 96 248q107 93 320 92t314 -93q44 -39 68 -111t30 -136t6 -180z" />
    <glyph glyph-name="divide" unicode="&#xf7;" 
d="M647 55q0 -69 -71 -69t-70 69q0 70 70 70t71 -70zM1075 451h-999v81h999v-81zM647 926q0 -70 -71 -70t-70 70q0 70 70 70t71 -70z" />
    <glyph glyph-name="oslash" unicode="&#xf8;" horiz-adv-x="1110" 
d="M527 911q-83 1 -151 -23t-102 -85q-33 -61 -42 -126t-9 -185q-18 -238 56 -330q35 -45 94 -66l280 809q-43 6 -126 6zM856 221q44 143 31 384q-8 157 -62 218q-35 41 -92 62l-282 -809q237 -33 350 56q37 30 55 89zM135 472q0 124 6 187t31 135t69 112q105 94 318 89
q61 0 123 -10l66 186l77 -26l-63 -180q151 -54 186 -199q27 -110 26 -264q0 -154 -16 -238t-60 -152q-84 -131 -351 -126q-57 0 -123 10l-68 -191l-77 27l65 184q-61 23 -103 63q-43 40 -63 80t-32 114q-12 75 -11 199z" />
    <glyph glyph-name="ugrave" unicode="&#xf9;" horiz-adv-x="1097" 
d="M735 1102h-104l-273 264h111zM926 0h-84v147q-90 -164 -330 -163q-272 0 -332 180q-24 76 -24 217v598h88v-506q0 -123 2 -169q5 -125 64 -181q58 -55 192 -55t218 50q52 29 93 131q25 62 25 269v461h88v-979z" />
    <glyph glyph-name="uacute" unicode="&#xfa;" horiz-adv-x="1097" 
d="M926 0h-84v147q-90 -164 -330 -163q-272 0 -332 180q-24 76 -24 217v598h88v-506q0 -123 2 -169q5 -125 64 -181q58 -55 192 -55t218 50q52 29 93 131q25 62 25 269v461h88v-979zM748 1366l-273 -264h-104l266 264h111z" />
    <glyph glyph-name="ucircumflex" unicode="&#xfb;" horiz-adv-x="1097" 
d="M926 0h-84v147q-90 -164 -330 -163q-272 0 -332 180q-24 76 -24 217v598h88v-506q0 -123 2 -169q5 -125 64 -181q58 -55 192 -55t218 50q52 29 93 131q25 62 25 269v461h88v-979zM862 1102h-104l-207 205l-209 -205h-106l272 264h84z" />
    <glyph glyph-name="udieresis" unicode="&#xfc;" horiz-adv-x="1097" 
d="M395 1303q-1 -68 -67 -68t-66 68q0 63 66 63t67 -63zM834 1303q0 -68 -67 -68t-67 68q0 63 67 63t67 -63zM926 0h-84v147q-90 -164 -330 -163q-272 0 -332 180q-24 76 -24 217v598h88v-506q0 -123 2 -169q5 -125 64 -181q58 -55 192 -55t218 50q52 29 93 131
q25 62 25 269v461h88v-979z" />
    <glyph glyph-name="yacute" unicode="&#xfd;" horiz-adv-x="931" 
d="M731 1366l-272 -264h-105l267 264h110zM877 979l-504 -1370h-90l147 393l-362 977h92l317 -866l307 866h93z" />
    <glyph glyph-name="thorn" unicode="&#xfe;" horiz-adv-x="1130" 
d="M612 909q-202 0 -278 -89q-76 -90 -76 -330t78 -330t254 -90t246 74q71 74 71 325q0 250 -44 327q-44 78 -130 100q-51 13 -121 13zM260 -391h-88v1818h88v-589q94 158 342 157q201 0 287 -83q87 -83 100 -252q6 -67 6 -219q0 -277 -98 -367t-295 -88q-248 0 -342 157
v-534z" />
    <glyph glyph-name="ydieresis" unicode="&#xff;" horiz-adv-x="931" 
d="M877 979l-504 -1370h-90l147 393l-362 977h92l317 -866l307 866h93zM324 1303q0 -68 -67 -68t-67 68q0 63 67 63t67 -63zM762 1303q0 -68 -67 -68t-66 68q1 63 67 63t66 -63z" />
    <glyph glyph-name="dotlessi" unicode="&#x131;" horiz-adv-x="432" 
d="M260 0h-88v979h88v-979z" />
    <glyph glyph-name="Lslash" unicode="&#x141;" horiz-adv-x="1077" 
d="M1047 0h-811v614l-134 -135l-55 56l189 192v639h88v-565l180 180l55 -55l-235 -238v-606h723v-82z" />
    <glyph glyph-name="lslash" unicode="&#x142;" horiz-adv-x="432" 
d="M260 0h-88v625l-139 -146l-56 53l195 205v690h88v-620l141 145l54 -53l-195 -205v-694z" />
    <glyph glyph-name="OE" unicode="&#x152;" horiz-adv-x="1875" 
d="M948 82v1202h-250q-166 0 -246 -27t-122 -89q-40 -62 -56 -163t-16 -321t16 -322t58 -164t121 -90q80 -26 247 -26h248zM1704 0h-1016q-186 0 -286 37q-180 67 -218 312q-16 108 -16 334t16 335t62 180q57 94 156 131t286 37h1016v-82h-668v-541h647v-81h-647v-580h668
v-82z" />
    <glyph glyph-name="oe" unicode="&#x153;" horiz-adv-x="1832" 
d="M887 490q0 94 -4 150q-11 149 -83 210q-73 61 -245 61q-171 0 -252 -67q-62 -52 -76 -203q-4 -55 -4 -151t4 -152q11 -149 84 -210q73 -60 243 -60t252 68q62 50 76 202q6 56 5 152zM1612 561q0 189 -68 271t-252 82t-253 -83q-69 -82 -68 -270h641zM1698 481h-727
q0 -117 8 -181q20 -163 139 -208q68 -25 180 -24q301 0 301 200h82q0 -283 -385 -282q-311 0 -368 198q-31 -106 -137 -152q-107 -46 -239 -46t-217 30q-151 54 -185 254q-14 84 -14 202t5 184q6 65 30 137q24 73 68 111q107 93 316 91q309 0 373 -198q59 199 362 198
q209 0 304 -86q79 -70 97 -249q7 -70 7 -179z" />
    <glyph glyph-name="Scaron" unicode="&#x160;" horiz-adv-x="1302" 
d="M238 348q0 -143 80 -213q63 -53 204 -62q49 -3 131 -3q207 0 308 63q100 63 100 254q0 146 -58 203q-58 56 -185 64q-48 3 -100 3h-69q-233 4 -311 29q-186 57 -186 307t139 323q71 38 151 51t231 13q269 0 368 -91q98 -91 98 -271h-84q0 213 -175 257q-84 21 -202 21
t-171 -4q-140 -11 -203 -74q-64 -64 -64 -212t62 -200q78 -65 280 -65h82q236 -4 321 -36q164 -69 165 -307t-126 -326t-402 -88t-373 93q-99 93 -97 271h86zM965 1765l-273 -264h-84l-270 264h104l207 -204l209 204h107z" />
    <glyph glyph-name="scaron" unicode="&#x161;" horiz-adv-x="1026" 
d="M838 1366l-273 -264h-84l-270 264h104l207 -205l209 205h107zM123 268h82q0 -116 62 -158q63 -42 233 -42t242 46t73 150q0 104 -39 139t-162 46q-45 4 -159 10q-207 10 -262 67q-54 58 -55 202q-1 143 93 206q93 63 309 62t298 -85q63 -68 63 -196h-84q0 106 -60 152
t-224 46t-235 -42t-73 -145t37 -135t121 -40t162 -12q80 -5 120 -9q130 -15 174 -58q64 -64 64 -209t-97 -213t-304 -64q-207 2 -293 63t-86 219z" />
    <glyph glyph-name="Ydieresis" unicode="&#x178;" horiz-adv-x="1067" 
d="M381 1690q0 -68 -67 -68t-66 68q0 63 66 63t67 -63zM819 1690q-1 -68 -67 -68t-66 68q0 63 66 63t67 -63zM575 0h-88v602l-464 764h100l414 -678l409 678h98l-469 -764v-602z" />
    <glyph glyph-name="Zcaron" unicode="&#x17d;" horiz-adv-x="1224" 
d="M1079 0h-934v84l832 1200h-832v82h934v-84l-833 -1200h833v-82zM926 1765l-273 -264h-84l-270 264h104l207 -204l209 204h107z" />
    <glyph glyph-name="zcaron" unicode="&#x17e;" horiz-adv-x="970" 
d="M805 1366l-273 -264h-83l-271 264h105l206 -205l209 205h107zM860 0h-749v78l639 821h-639v80h749v-74l-637 -821h637v-84z" />
    <glyph glyph-name="florin" unicode="&#x192;" 
d="M1051 1092h-86q0 134 -79 170t-204 36q-281 0 -314 -146q-6 -22 -10 -35q-6 -19 -6 -82v-310h604v-80h-604v-1036h-88v1036h-114v80h114v294q0 100 8 127q8 26 15 46q6 20 14 34q92 154 361 154q231 0 310 -70q79 -69 79 -218z" />
    <glyph glyph-name="circumflex" unicode="&#x2c6;" horiz-adv-x="849" 
d="M739 1102h-104l-207 205l-209 -205h-106l272 264h84z" />
    <glyph glyph-name="caron" unicode="&#x2c7;" horiz-adv-x="849" 
d="M739 1366l-272 -264h-84l-270 264h104l207 -205l209 205h106z" />
    <glyph glyph-name="breve" unicode="&#x2d8;" horiz-adv-x="849" 
d="M707 1366q1 -150 -61 -209t-216 -59t-219 56t-66 212h84q0 -123 40 -157q40 -33 157 -33t158 34t41 156h82z" />
    <glyph glyph-name="dotaccent" unicode="&#x2d9;" horiz-adv-x="849" 
d="M492 1303q0 -68 -67 -68t-67 68q0 63 67 63t67 -63z" />
    <glyph glyph-name="ring" unicode="&#x2da;" horiz-adv-x="849" 
d="M571 1218q1 100 -27 128t-120 28t-119 -29t-27 -127t28 -130q28 -31 119 -31t119 31t27 130zM643 1216q0 -128 -48 -176t-170 -49q-122 0 -170 48q-48 49 -48 177t49 177t169 49t169 -49t49 -177z" />
    <glyph glyph-name="ogonek" unicode="&#x2db;" horiz-adv-x="839" 
d="M563 -254q0 -68 -35 -96q-34 -28 -122 -29q-88 0 -117 47t-29 152q0 104 35 142t131 38v-59q-66 0 -80 -23q-14 -24 -14 -88t1 -80q3 -52 34 -63q16 -6 56 -6t58 13t19 52h63z" />
    <glyph glyph-name="tilde" unicode="&#x2dc;" horiz-adv-x="849" 
d="M803 1300l-109 -59q-131 -72 -250 -8q-8 4 -41 23t-69 31q-56 19 -117 -13l-133 -74l-41 64q12 6 55 32q124 73 191 75q68 3 154 -46q22 -12 31 -17q89 -49 167 -8l125 66z" />
    <glyph glyph-name="hungarumlaut" unicode="&#x2dd;" horiz-adv-x="849" 
d="M444 1366l-321 -313h-109l324 313h106zM838 1366l-322 -313h-108l323 313h107z" />
    <glyph glyph-name="pi" unicode="&#x3c0;" horiz-adv-x="1476" 
d="M254 424v942h942v-78l-807 2l834 -833l-58 -58l-833 834l2 -809h-80z" />
    <glyph glyph-name="endash" unicode="&#x2013;" 
d="M1087 451h-1024v81h1024v-81z" />
    <glyph glyph-name="emdash" unicode="&#x2014;" horiz-adv-x="2048" 
d="M1843 451h-1638v81h1638v-81z" />
    <glyph glyph-name="quoteleft" unicode="&#x2018;" horiz-adv-x="425" 
d="M254 1102v-154h-86v154q0 92 16 142t70 95l51 45l55 -55l-38 -37q-44 -43 -56 -80t-12 -110z" />
    <glyph glyph-name="quoteright" unicode="&#x2019;" horiz-adv-x="425" 
d="M258 1212q0 -92 -16 -142t-70 -95l-51 -45l-55 55l38 37q45 43 57 80q11 37 11 110v154h86v-154z" />
    <glyph glyph-name="quotesinglbase" unicode="&#x201a;" horiz-adv-x="425" 
d="M258 -31q0 -92 -16 -142t-70 -95l-51 -45l-55 55q8 6 46 44t49 74t11 109v154h86v-154z" />
    <glyph glyph-name="quotedblleft" unicode="&#x201c;" horiz-adv-x="757" 
d="M254 1102v-154h-86v154q0 92 16 142t70 95l51 45l55 -55l-38 -37q-44 -43 -56 -80t-12 -110zM586 1102v-154h-86v154q0 92 16 142t70 95l51 45l55 -55l-39 -37q-45 -43 -56 -80t-11 -110z" />
    <glyph glyph-name="quotedblright" unicode="&#x201d;" horiz-adv-x="757" 
d="M258 1212q0 -92 -16 -142t-70 -95l-51 -45l-55 55l38 37q45 43 57 80q11 37 11 110v154h86v-154zM590 1212q0 -92 -16 -142t-70 -95l-51 -45l-56 55l39 37q45 43 57 80q11 37 11 110v154h86v-154z" />
    <glyph glyph-name="quotedblbase" unicode="&#x201e;" horiz-adv-x="757" 
d="M258 -31q0 -92 -16 -142t-70 -95l-51 -45l-55 55l38 37q45 43 57 80q11 37 11 110v154h86v-154zM590 -31q0 -92 -16 -142t-70 -95l-51 -45l-56 55l39 37q45 43 57 80q11 37 11 110v154h86v-154z" />
    <glyph glyph-name="dagger" unicode="&#x2020;" horiz-adv-x="1153" 
d="M928 899h-310v-1085h-83v1085h-310v80h310v387h83v-387h310v-80z" />
    <glyph glyph-name="daggerdbl" unicode="&#x2021;" horiz-adv-x="1153" 
d="M928 418h-310v-604h-83v604h-310v80h310v401h-310v80h310v387h83v-387h310v-80h-310v-401h310v-80z" />
    <glyph glyph-name="bullet" unicode="&#x2022;" horiz-adv-x="1024" 
d="M686 684q0 -90 -41 -130t-133 -40t-133 40t-41 130t41 131t133 41t133 -41t41 -131z" />
    <glyph glyph-name="ellipsis" unicode="&#x2026;" horiz-adv-x="2052" 
d="M412 55h2q0 -69 -72 -69t-72 70t71 69q71 0 71 -70zM1096 55h2q0 -69 -72 -69t-72 70t71 69q71 0 71 -70zM1782 55q0 -69 -72 -69t-72 70t72 69q72 0 72 -70z" />
    <glyph glyph-name="perthousand" unicode="&#x2030;" horiz-adv-x="2406" 
d="M614 977q0 209 -22 260q-33 70 -158 70q-76 -1 -112 -21t-52 -71t-16 -257t22 -258q35 -74 166 -74t158 93q14 49 14 258zM1499 407q0 209 -22 261q-33 70 -158 69q-76 0 -113 -20q-37 -19 -52 -71t-15 -258t22 -257q35 -74 166 -74t158 93q14 48 14 257zM2152 407
q0 209 -22 261q-33 70 -158 69q-76 0 -112 -20q-36 -19 -52 -71t-16 -258t23 -257q35 -74 157 -74q76 0 114 23q38 22 52 70t14 257zM692 1008q0 -180 -5 -242q-17 -211 -253 -211q-186 0 -235 129q-23 55 -23 219t2 240t33 133q57 104 234 104t225 -131q22 -61 22 -241z
M1286 1376l-721 -1376h-80l717 1376h84zM1577 438q0 -180 -5 -242q-17 -210 -253 -210q-186 0 -236 129q-29 70 -21 425q3 110 34 167q57 104 234 104t224 -131q23 -62 23 -242zM2230 438q0 -180 -5 -242q-17 -210 -253 -210q-186 0 -235 129q-23 55 -23 219t2 239
q6 238 267 238q177 0 225 -131q22 -62 22 -242z" />
    <glyph glyph-name="guilsinglleft" unicode="&#x2039;" horiz-adv-x="528" 
d="M182 293q-73 99 -73 190t57 170q23 33 35 51t43 53q31 34 51 56t72 74l57 -60q-4 -3 -38 -37t-45 -48t-42 -47q-31 -34 -69 -94q-37 -60 -37 -115q0 -54 24 -94q25 -40 37 -60t42 -52t41 -43l45 -45l38 -38l-58 -58q-6 6 -33 34l-39 39q-57 57 -72 77t-36 47z" />
    <glyph glyph-name="guilsinglright" unicode="&#x203a;" horiz-adv-x="528" 
d="M402 572q18 -48 18 -94t-16 -82q-49 -106 -129 -189q-27 -27 -37 -38t-38 -39l-34 -34l-57 58l37 37q108 108 124 135q16 26 41 68t25 95q0 54 -36 111t-69 93t-44 49q-11 14 -45 48t-38 37l58 60q52 -52 72 -74t51 -56t43 -52q12 -17 34 -51t40 -82z" />
    <glyph glyph-name="fraction" unicode="&#x2044;" horiz-adv-x="591" 
d="M696 1376l-721 -1376h-79l716 1376h84z" />
    <glyph glyph-name="trademark" unicode="&#x2122;" horiz-adv-x="1736" 
d="M664 1296h-275v-819h-80v819h-276v70h631v-70zM1552 477h-73v776l-283 -776h-94l-279 776v-776h-75v889h110l291 -805l295 805h108v-889z" />
    <glyph glyph-name="Omega" unicode="&#x2126;" horiz-adv-x="1474" 
d="M1194 0h-940v944h78l-2 -809l831 834l60 -60l-834 -833l807 4v-80z" />
    <glyph glyph-name="partialdiff" unicode="&#x2202;" horiz-adv-x="1128" 
d="M956 -104q0 -293 -323 -293t-324 252h84q4 -172 230 -172q131 0 200 69q45 45 45 166v1061h88v-1083zM213 1161q1 281 311 281q342 0 342 -228h-84q0 143 -237 144q-123 0 -183 -41t-61 -156v-182h440v-80h-440v-899h-88v899h-164v80h164v182z" />
    <glyph glyph-name="Delta" unicode="&#x2206;" horiz-adv-x="1474" 
d="M1403 627h-1178l574 -570l-58 -57l-667 668l667 665l58 -57l-574 -567h1178v-82z" />
    <glyph glyph-name="product" unicode="&#x220f;" horiz-adv-x="1476" 
d="M281 1366h942l-2 -942h-72l-6 20l2 789l-834 -834l-57 58l833 833l-806 -2v78z" />
    <glyph glyph-name="summation" unicode="&#x2211;" horiz-adv-x="901" 
 />
    <glyph glyph-name="minus" unicode="&#x2212;" horiz-adv-x="1153" 
d="M1065 451h-977v81h977v-81z" />
    <glyph glyph-name="radical" unicode="&#x221a;" horiz-adv-x="1474" 
d="M698 1329h82v-1177l568 573l57 -57l-666 -668l-667 668l57 57l569 -573v1177z" />
    <glyph glyph-name="infinity" unicode="&#x221e;" horiz-adv-x="1476" 
d="M780 0h-82v1178l-569 -574l-57 58l665 667l668 -667l-57 -58l-568 574v-1178z" />
    <glyph glyph-name="integral" unicode="&#x222b;" horiz-adv-x="1474" 
d="M1221 0h-942v80l808 -2l-833 833l57 58l834 -834l-2 809h78v-944z" />
    <glyph glyph-name="approxequal" unicode="&#x2248;" 
d="M1079 336l-161 -103q-68 -43 -157 -44t-157 40q-30 17 -122 71t-199 -9l-162 -98l-49 67l161 100q68 44 156 46t158 -39q10 -6 47 -29q100 -62 157 -66t117 31l166 103zM1079 733l-161 -102q-68 -43 -157 -44t-157 40q-30 18 -122 71t-199 -10l-162 -98l-49 67l161 101
q68 43 156 45t158 -39q10 -6 47 -29q102 -64 160 -66q58 -3 114 31l166 103z" />
    <glyph glyph-name="notequal" unicode="&#x2260;" 
d="M1073 254h-682l-258 -254l-53 57l199 197h-201v82h284l320 313h-604v82h688l254 248l53 -57l-194 -191h194v-82h-278l-318 -313h596v-82z" />
    <glyph glyph-name="lessequal" unicode="&#x2264;" 
d="M1075 -80h-999v80h999v-80zM1073 188l-33 -77l-954 395v82l954 391l33 -78l-880 -352z" />
    <glyph glyph-name="greaterequal" unicode="&#x2265;" 
d="M1075 -80h-999v80h999v-80zM1065 506l-952 -395l-35 77l883 361l-883 352l35 78l952 -391v-82z" />
    <glyph glyph-name="lozenge" unicode="&#x25ca;" horiz-adv-x="1474" 
d="M74 627v82h1177l-573 567l57 57l668 -665l-668 -668l-57 57l573 570h-1177z" />
    <glyph glyph-name="CR" unicode="&#xe000;" horiz-adv-x="1024" 
 />
    <glyph glyph-name="DC1" unicode="&#xe001;" horiz-adv-x="1024" 
 />
    <glyph glyph-name="DC2" unicode="&#xe002;" horiz-adv-x="1024" 
 />
    <glyph glyph-name="DC3" unicode="&#xe003;" horiz-adv-x="1024" 
 />
    <glyph glyph-name="DC4" unicode="&#xe004;" horiz-adv-x="1024" 
 />
    <glyph glyph-name="DEL" unicode="&#xe005;" horiz-adv-x="1024" 
 />
    <glyph glyph-name="DLE" unicode="&#xe006;" horiz-adv-x="1024" 
 />
    <glyph glyph-name="HT" unicode="&#xe007;" horiz-adv-x="1024" 
 />
    <glyph glyph-name="LF" unicode="&#xe008;" horiz-adv-x="1024" 
 />
    <glyph glyph-name="NUL" unicode="&#xe009;" horiz-adv-x="1024" 
 />
    <glyph glyph-name="RS" unicode="&#xe00a;" horiz-adv-x="1024" 
 />
    <glyph glyph-name="US" unicode="&#xe00b;" horiz-adv-x="1024" 
 />
    <glyph glyph-name="apple" unicode="&#xe00c;" horiz-adv-x="1691" 
d="M1434 692q0 192 -22 300q-47 233 -266 283q-112 25 -272 25t-250 -11q-180 -22 -260 -110q-80 -87 -98 -280q-8 -86 -8 -282t32 -291t74 -131q91 -77 209 -103v576h-127v77h127v119q0 283 308 283q155 1 235 -63t82 -212h-84q-2 106 -60 150t-171 43q-113 0 -168 -45
t-56 -156v-119h465v-77h-465v-590q71 -10 223 -10t265 27q219 53 265 293q22 112 22 304zM1520 666q0 -186 -30 -315q-62 -265 -313 -332q-128 -33 -334 -33t-334 34q-253 66 -309 333q-28 128 -28 337t28 335q59 264 308 325q128 30 316 30t300 -22t193 -67
q80 -46 123 -130q44 -85 62 -197t18 -298z" />
    <glyph glyph-name="nbspace" unicode="&#xe00d;" horiz-adv-x="575" 
 />
    </font>
</defs>
</svg>
