<?xml version="1.0" standalone="no"?>
<!DOCTYPE svg PUBLIC "-//W3C//DTD SVG 1.1//EN" "http://www.w3.org/Graphics/SVG/1.1/DTD/svg11.dtd" >
<svg xmlns="http://www.w3.org/2000/svg">
<metadata>
Created by FontPrep 20130207 at Wed Apr  9 16:24:04 2014
 By Thomas Tau
he digitally encoded machine readable outline data for producing the typefaces licensed to you is copyrighted , 2000 by The Foundry, London. All Rights Reserved.
</metadata>
<defs>
<font id="335513d6804cfb422cfab590334804d3" horiz-adv-x='1024' >
  <font-face 
    font-family="FoundryMonoline-RegItalic"
    font-weight="400"
    font-style="italic"
    font-stretch="normal"
    units-per-em="2048"
    panose-1="2 0 5 3 3 0 0 2 0 4"
    ascent="1487"
    descent="-561"
    x-height="983"
    cap-height="1366"
    bbox="-543 -621 2247.06 1767"
    underline-thickness="102"
    underline-position="-102"
    unicode-range="U+0020-FB02"
  />
<missing-glyph horiz-adv-x="1024" 
 />
    <glyph glyph-name="fi" unicode="fi" horiz-adv-x="1112" 
d="M950 1274q0 -35 -4 -55h-117q2 10 2 30q0 80 -186 80q-115 0 -171 -38t-75 -142l-30 -166h428l-19 -106h-430l-153 -877h-119l153 877h-166l21 106h166l31 168q29 155 115 223t245 68q309 0 309 -168zM1012 983l-172 -983h-121l172 983h121z" />
    <glyph glyph-name="fl" unicode="fl" horiz-adv-x="1273" 
d="M950 1274q0 -35 -4 -55h-117q2 10 2 30q0 80 -186 80q-115 0 -171 -38t-75 -142l-30 -166h428l-19 -106h-430l-153 -877h-119l153 877h-166l21 106h166l31 168q29 155 115 223t245 68q309 0 309 -168zM1249 1427l-252 -1427h-120l251 1427h121z" />
    <glyph glyph-name=".notdef" horiz-adv-x="1024" 
 />
    <glyph glyph-name=".null" horiz-adv-x="0" 
 />
    <glyph glyph-name="nonmarkingreturn" horiz-adv-x="681" 
 />
    <glyph glyph-name="space" unicode=" " horiz-adv-x="491" 
 />
    <glyph glyph-name="exclam" unicode="!" horiz-adv-x="575" 
d="M262 88q0 -47 -26 -76t-72 -28q-70 0 -70 59q0 47 26 76t73 28q69 0 69 -59zM465 1366l-172 -977h-119l172 977h119z" />
    <glyph glyph-name="quotedbl" unicode="&#x22;" horiz-adv-x="880" 
d="M463 1366l-80 -444h-111l80 444h111zM768 1366l-80 -444h-110l79 444h111z" />
    <glyph glyph-name="numbersign" unicode="#" horiz-adv-x="1150" 
d="M750 850h-275l-74 -281h275zM1118 850h-260l-76 -281h232v-104h-258l-123 -465h-107l123 465h-276l-123 -465h-107l123 465h-233v104h260l76 281h-232v104h260l123 467h107l-125 -467h276l125 467h107l-125 -467h233v-104z" />
    <glyph glyph-name="dollar" unicode="$" horiz-adv-x="1130" 
d="M836 508q0 82 -48 108t-178 35l-96 -545q141 4 211 71t98 220q13 68 13 111zM606 1257q-134 -4 -198 -61t-89 -199q-8 -57 -8 -75q-2 -86 45 -115t164 -37zM180 240q0 -70 51 -99t172 -32l99 548q-152 13 -229 69t-74 187q0 37 10 95q35 192 131 272t285 86l34 195h111
l-35 -197q143 -6 227 -52t85 -167q0 -35 -7 -74h-114q6 37 6 64q-2 67 -50 93t-165 29l-88 -495q169 -12 243 -60t76 -176q0 -57 -12 -137q-35 -209 -136 -296t-304 -93l-35 -203h-111l35 205q-143 6 -230 52t-89 163q0 35 6 78h114q-6 -31 -6 -55z" />
    <glyph glyph-name="percent" unicode="%" horiz-adv-x="1763" 
d="M676 1180q0 61 -34 83t-103 21q-127 0 -164 -78q-17 -37 -51 -215t-34 -238t32 -82q31 -22 104 -22q127 0 166 80q20 43 52 217t32 234zM1475 608q0 61 -34 83t-104 22q-127 0 -163 -78q-18 -37 -52 -215t-32 -239q0 -60 30 -82t105 -21q127 0 166 80q20 43 52 216
t32 234zM778 1174q0 -70 -22 -191t-30 -170q-7 -49 -19 -76q-13 -28 -26 -57t-45 -60q-68 -65 -206 -65q-139 0 -190 56q-52 56 -52 140t16 161t29 172q14 95 43 156q29 60 55 77q26 19 66 41t142 22q239 1 239 -206zM1413 1366l-932 -1366h-108l930 1366h110zM1577 602
q1 -52 -15 -140q-28 -158 -36 -212q-8 -55 -20 -84q-13 -28 -26 -57t-44 -59q-68 -66 -207 -66t-191 56q-51 56 -51 163q-1 61 15 137t25 140q9 63 22 113q12 51 38 96q25 45 47 60q64 44 110 52t93 8q240 0 240 -207z" />
    <glyph glyph-name="ampersand" unicode="&#x26;" horiz-adv-x="1230" 
d="M555 664q-178 0 -252 -58t-107 -240q-33 -183 63 -233q71 -37 223 -35t230 37t114 105t61 213l37 211h-369zM644 1268q-156 0 -224 -51t-94 -199q-8 -47 -9 -92q3 -90 57 -120t181 -30h389l23 131h114l-22 -131h123l-21 -112h-123l-37 -211q-16 -97 -32 -157
q-17 -60 -53 -127t-87 -101q-123 -83 -340 -83q-217 1 -317 63t-98 222q0 43 20 157t72 194q53 80 158 104q-123 53 -125 186q0 59 10 111q35 201 134 280t319 78q381 0 380 -231q-2 -49 -6 -78h-116q4 18 4 51q2 80 -60 113q-64 33 -220 33z" />
    <glyph glyph-name="quotesingle" unicode="'" horiz-adv-x="575" 
d="M463 1366l-80 -444h-111l80 444h111z" />
    <glyph glyph-name="parenleft" unicode="(" horiz-adv-x="724" 
d="M219 -61q0 -80 8 -113q13 -66 65 -90t193 -23l-18 -104q-178 0 -262 52t-99 179q-4 25 -4 92q0 264 90 769t193 718q61 127 163 179t279 53l-18 -105q-135 0 -200 -32t-105 -101q-96 -164 -190 -696t-95 -778z" />
    <glyph glyph-name="parenright" unicode=")" horiz-adv-x="724" 
d="M623 1327q0 -265 -90 -769t-193 -718q-62 -127 -164 -179t-278 -52l18 104q135 0 200 32t105 101q97 164 191 696t94 779q0 80 -8 113q-14 66 -66 90t-192 22l18 105q178 -1 262 -53t98 -179q5 -24 5 -92z" />
    <glyph glyph-name="asterisk" unicode="*" horiz-adv-x="1071" 
d="M1083 989l-434 -127l195 -327l-86 -60l-195 328l-307 -328l-82 60l309 327l-389 127l49 94l389 -125l72 408h105l-72 -408l430 125z" />
    <glyph glyph-name="plus" unicode="+" horiz-adv-x="1165" 
d="M1073 438h-434v-438h-115v438h-432v109h432v436h115v-436h434v-109z" />
    <glyph glyph-name="comma" unicode="," horiz-adv-x="425" 
d="M168 143l-29 -166q-14 -88 -41 -137t-90 -96l-71 -53l-64 76q16 11 45 33q68 50 78 70q26 49 35 107l28 166h109z" />
    <glyph glyph-name="hyphen" unicode="-" horiz-adv-x="983" 
d="M778 547l-18 -109h-623l19 109h622z" />
    <glyph glyph-name="period" unicode="." horiz-adv-x="425" 
d="M188 88q0 -47 -26 -76t-72 -28q-70 0 -70 59q0 47 26 76t73 28q69 0 69 -59z" />
    <glyph glyph-name="slash" unicode="/" horiz-adv-x="1009" 
d="M1149 1546l-1172 -1718h-116l1169 1718h119z" />
    <glyph glyph-name="zero" unicode="0" horiz-adv-x="1150" 
d="M938 1073q0 113 -67 155t-195 42t-198 -38q-72 -38 -114 -124t-98 -404t-55 -424q0 -106 68 -146t192 -40q217 0 297 127q58 91 114 415t56 437zM1055 1057q0 -114 -52 -411t-72 -350q-47 -128 -80 -164q-82 -87 -138 -108q-111 -40 -240 -40q-211 2 -294 89t-83 246
q0 96 26 248q38 216 56 326q39 243 118 333q79 91 137 111q124 43 245 43q207 0 292 -84t85 -239z" />
    <glyph glyph-name="one" unicode="1" horiz-adv-x="917" 
d="M784 109l-18 -109h-782l18 109h332l194 1099l-305 -239l-67 84l411 313h109l-223 -1257h331z" />
    <glyph glyph-name="two" unicode="2" horiz-adv-x="1126" 
d="M1061 1096q0 -53 -8 -103q-35 -197 -148 -286q-90 -73 -322 -133q-233 -60 -293 -110t-85 -196l-29 -159h717l-19 -109h-837l53 307q18 99 66 177q26 46 97 90q71 45 139 64q69 19 132 36q246 68 303 117t86 125t29 174q0 96 -56 138t-211 42t-233 -43t-96 -156h-117
q31 172 137 241q106 68 304 68q199 0 295 -65t96 -219z" />
    <glyph glyph-name="three" unicode="3" horiz-adv-x="1138" 
d="M1042 1126q0 -39 -10 -104q-43 -244 -205 -317q119 -49 119 -191q0 -51 -14 -133q-37 -215 -151 -306t-330 -91q-283 0 -359 125q-31 51 -31 102t7 84h118q-4 -18 -4 -49q0 -82 62 -117t217 -35q153 0 237 60t113 221q12 72 12 119q0 96 -58 128t-218 31h-209l20 111h209
q164 0 242 49t104 205q10 61 11 98q0 86 -60 120t-217 34q-155 0 -235 -45t-101 -154h-118q29 172 140 241q111 68 313 68t299 -60t97 -194z" />
    <glyph glyph-name="four" unicode="4" horiz-adv-x="1130" 
d="M793 1169l-578 -667h459zM993 502l-18 -109h-199l-69 -393h-121l69 393h-606l19 105l763 868h117l-153 -864h198z" />
    <glyph glyph-name="five" unicode="5" horiz-adv-x="1150" 
d="M608 866q193 0 278 -74t85 -225q0 -74 -15 -147q-42 -242 -150 -339t-343 -97q-377 0 -377 233q0 35 6 78h115q-6 -29 -6 -49q0 -82 59 -117t220 -35t242 68t114 250q16 92 16 149q0 99 -54 147t-194 48q-299 0 -330 -170h-110l137 780h778l-20 -111h-662l-82 -469
q100 80 293 80z" />
    <glyph glyph-name="six" unicode="6" horiz-adv-x="1148" 
d="M852 551q0 113 -55 159t-185 46q-330 0 -387 -326q-10 -51 -10 -113q-1 -117 63 -170t214 -53t231 73q82 73 115 253q14 90 14 131zM1053 1143q0 -33 -6 -72h-117q4 18 4 51q0 147 -242 148q-133 0 -207 -39q-73 -39 -117 -129t-96 -371q143 135 332 135t279 -72t90 -233
q0 -49 -15 -139q-41 -229 -151 -334q-111 -104 -328 -104q-150 0 -253 59t-124 168q-6 35 -6 126t44 344t100 409t162 224q106 66 280 66q372 -2 371 -237z" />
    <glyph glyph-name="seven" unicode="7" horiz-adv-x="931" 
d="M1010 1366l-19 -106l-815 -1260h-139l815 1255h-709l21 111h846z" />
    <glyph glyph-name="eight" unicode="8" horiz-adv-x="1183" 
d="M590 651q-184 0 -259 -53t-106 -225q-10 -57 -10 -94q-2 -109 60 -147q61 -38 227 -38t244 56t109 224q30 169 -34 226q-33 29 -82 40t-149 11zM967 1114q1 88 -59 122t-223 34t-235 -52t-98 -196q-10 -57 -10 -92q0 -82 37 -113q63 -55 230 -55t253 55q68 45 94 201
q11 61 11 96zM1087 1124q1 -41 -17 -142t-64 -168t-152 -105q135 -53 135 -207q0 -55 -12 -125q-33 -197 -146 -293q-67 -55 -139 -78t-198 -22q-266 0 -347 100q-51 63 -51 170q0 55 22 166q22 110 74 182t154 107q-125 55 -125 194q0 51 12 119q35 198 139 278t314 80
q211 0 306 -60t95 -196z" />
    <glyph glyph-name="nine" unicode="9" horiz-adv-x="1148" 
d="M934 1047q0 117 -64 170t-212 53q-150 0 -232 -73t-115 -253q-14 -90 -14 -133q0 -113 55 -158t185 -45q330 0 387 326q10 52 10 113zM1053 1031q0 -85 -44 -343q-45 -258 -101 -414t-162 -224q-106 -67 -287 -66q-362 0 -363 249q0 29 6 60h117q-4 -18 -4 -51
q0 -147 242 -148q133 0 207 39t118 129t95 371q-143 -135 -329 -135t-280 69q-92 70 -92 221q0 74 14 154q41 230 152 334t328 104q150 0 253 -59t124 -168q6 -37 6 -122z" />
    <glyph glyph-name="colon" unicode=":" horiz-adv-x="425" 
d="M188 88q0 -47 -26 -76t-72 -28q-70 0 -70 59q0 47 26 76t73 28q69 0 69 -59zM338 940q0 -47 -26 -76t-72 -28q-70 0 -70 59q0 47 26 76t72 28q70 0 70 -59z" />
    <glyph glyph-name="semicolon" unicode=";" horiz-adv-x="425" 
d="M168 143l-29 -166q-14 -88 -41 -137t-90 -96l-71 -53l-64 76q16 11 45 33q68 50 78 70q26 49 35 107l28 166h109zM338 940q0 -47 -26 -76t-72 -28q-70 0 -70 59q0 47 26 76t72 28q70 0 70 -59z" />
    <glyph glyph-name="less" unicode="&#x3c;" horiz-adv-x="1163" 
d="M1081 106l-43 -106l-956 438v111l956 434l43 -106l-860 -381z" />
    <glyph glyph-name="equal" unicode="=" horiz-adv-x="1163" 
d="M1069 242h-975v108h975v-108zM1069 637h-975v108h975v-108z" />
    <glyph glyph-name="greater" unicode="&#x3e;" horiz-adv-x="1163" 
d="M1081 438l-956 -438l-43 106l860 390l-860 381l43 106l956 -434v-111z" />
    <glyph glyph-name="question" unicode="?" horiz-adv-x="860" 
d="M375 88q0 -47 -26 -76t-73 -28q-70 0 -69 59q0 47 25 76q26 29 73 28q70 0 70 -59zM883 1124q0 -47 -9 -90q-22 -129 -90 -207t-178 -123t-139 -86t-47 -143l-14 -86h-117l20 119q19 113 67 176t104 87q56 23 112 45q135 52 166 218q8 43 8 86q-2 82 -53 116t-186 34
t-202 -44t-87 -155h-113q31 170 127 240q96 69 276 69t268 -60q87 -60 87 -196z" />
    <glyph glyph-name="at" unicode="@" horiz-adv-x="1579" 
d="M803 948q-129 0 -179 -72t-74 -212t-26 -202q-1 -137 178 -136q147 0 218 65q70 66 102 244q12 70 12 123q2 106 -50 148t-181 42zM700 221q-289 0 -286 254q0 68 17 165t38 163q51 168 181 220q75 30 186 30q168 0 241 -99l15 84h102l-123 -700q63 -2 111 37
q96 84 155 420q20 117 21 206q0 165 -98 221t-350 56t-365 -66q-66 -36 -108 -80t-75 -126t-51 -161t-55 -287t-37 -284q0 -170 98 -240t371 -69q180 0 304 35t200 147l84 -51q-102 -156 -287 -199q-139 -34 -330 -34q-309 0 -429 92t-119 301q0 114 37 324q36 210 60 306
q57 230 151 327q117 122 305 151q102 16 241 16q309 0 436 -76t127 -272q0 -195 -61 -439q-16 -69 -52 -148t-84 -119q-114 -96 -319 -93l17 86q-117 -98 -269 -98z" />
    <glyph glyph-name="A" unicode="A" horiz-adv-x="1251" 
d="M862 510l-139 696l-389 -696h528zM1092 0h-125l-82 403h-611l-223 -403h-133l770 1366h117z" />
    <glyph glyph-name="B" unicode="B" horiz-adv-x="1318" 
d="M989 475q0 37 -8 68t-32 50t-44 31q-37 22 -203 21h-401l-94 -534h297q181 0 244 8t91 24t60 45q53 46 79 186q12 64 11 101zM1092 1104q0 79 -50 121q-36 32 -234 32h-400l-89 -503h319q134 0 173 2t94 13t83 37t54 75q50 91 50 223zM1116 504q0 -49 -18 -156t-81 -210
q-42 -65 -126 -99t-168 -37q-85 -2 -239 -2h-421l242 1366h457q215 0 285 -18q161 -48 163 -238q0 -59 -10 -111q-41 -231 -199 -294q115 -51 115 -201z" />
    <glyph glyph-name="C" unicode="C" horiz-adv-x="1304" 
d="M1233 1108q0 -39 -10 -96h-115q8 47 8 92q0 90 -69 126q-70 36 -208 36t-209 -14t-123 -48q-52 -35 -86 -76t-69 -133t-77 -337q-43 -246 -44 -318q0 -131 69 -186q70 -56 272 -56t298 56t123 198h115q-37 -204 -163 -286t-381 -82t-354 85t-99 247t84 571q14 68 46 165
t73 143q123 135 273 166q97 19 228 19q219 0 319 -61t99 -211z" />
    <glyph glyph-name="D" unicode="D" horiz-adv-x="1349" 
d="M1122 1018q0 189 -154 221q-81 16 -259 16h-299l-201 -1144h340q100 0 167 8q131 16 203 93q72 78 115 262q18 78 53 264t35 280zM1133 372q-20 -77 -43 -120t-58 -91t-77 -74t-119 -56t-275 -31h-498l242 1366h416q209 0 315 -27q203 -52 203 -308t-106 -659z" />
    <glyph glyph-name="E" unicode="E" horiz-adv-x="1187" 
d="M1159 1366l-20 -111h-729l-88 -499h708l-18 -111h-709l-94 -534h729l-20 -111h-855l242 1366h854z" />
    <glyph glyph-name="F" unicode="F" horiz-adv-x="1138" 
d="M1139 1366l-21 -111h-710l-89 -499h693l-19 -111h-692l-115 -645h-123l242 1366h834z" />
    <glyph glyph-name="G" unicode="G" horiz-adv-x="1339" 
d="M111 328q0 80 46 351q46 272 67 325q61 157 89 187q27 31 63 67t79 54t117 42q74 26 271 26t305 -63q107 -64 107 -211q0 -47 -8 -94h-119q8 39 9 80q0 98 -75 136q-74 38 -224 38t-231 -24t-133 -62t-90 -118q-38 -79 -58 -161t-58 -294t-39 -281q0 -125 69 -176
q69 -52 236 -52t284 49q78 33 148 143q47 74 70 172q23 99 39 185h-438l18 109h547q-100 -569 -133 -756h-104l24 141q-154 -157 -445 -157t-370 109q-39 55 -51 105t-12 130z" />
    <glyph glyph-name="H" unicode="H" horiz-adv-x="1327" 
d="M1264 1366l-242 -1366h-123l117 645h-717l-113 -645h-123l242 1366h123l-111 -610h717l107 610h123z" />
    <glyph glyph-name="I" unicode="I" horiz-adv-x="491" 
d="M428 1366l-242 -1366h-123l242 1366h123z" />
    <glyph glyph-name="J" unicode="J" horiz-adv-x="1075" 
d="M358 -16q-180 0 -267 60t-87 204q0 47 10 104h115q-10 -61 -10 -98q0 -92 56 -125t190 -33q279 0 335 178q16 53 34 161t51 292q34 184 114 639h123q-80 -455 -113 -637t-53 -301t-41 -180q-49 -148 -163 -206t-294 -58z" />
    <glyph glyph-name="K" unicode="K" horiz-adv-x="1169" 
d="M1274 1366l-877 -674l641 -692h-166l-573 629l-111 -629h-125l242 1366h123l-106 -594l772 594h180z" />
    <glyph glyph-name="L" unicode="L" horiz-adv-x="1038" 
d="M918 111l-21 -111h-834l242 1366h123l-221 -1255h711z" />
    <glyph glyph-name="M" unicode="M" horiz-adv-x="1683" 
d="M1620 1366l-242 -1366h-121l205 1171l-682 -1171h-121l-272 1171l-207 -1171h-117l242 1366h148l292 -1225l719 1225h156z" />
    <glyph glyph-name="N" unicode="N" horiz-adv-x="1327" 
d="M1264 1366l-242 -1366h-131l-500 1184l-207 -1184h-121l242 1366h131l498 -1173l207 1173h123z" />
    <glyph glyph-name="O" unicode="O" horiz-adv-x="1361" 
d="M1130 1036q0 127 -69 178q-70 52 -265 52t-287 -62q-52 -35 -87 -75t-70 -132t-76 -333q-42 -240 -43 -318q1 -133 63 -190q62 -58 291 -58t322 102q37 40 62 80t52 128t67 314t40 314zM1251 1044q0 -104 -49 -384t-98 -392q-86 -199 -295 -256q-102 -29 -248 -28
q-256 0 -353 85t-97 261q0 86 37 300t54 291t62 185q44 108 106 154q62 48 172 84t263 36q252 0 349 -83t97 -253z" />
    <glyph glyph-name="P" unicode="P" horiz-adv-x="1241" 
d="M1065 934q20 90 20 162t-41 110t-93 42q-109 9 -157 8q-49 -1 -65 -1h-321l-95 -532h322q197 0 254 16q131 35 176 195zM1210 1098q0 -38 -14 -126t-50 -160t-77 -111q-72 -70 -253 -85q-62 -4 -175 -4h-346l-109 -612h-123l242 1366h387q164 0 218 -2t127 -22t112 -62
q61 -61 61 -182z" />
    <glyph glyph-name="Q" unicode="Q" horiz-adv-x="1361" 
d="M1130 1036q0 127 -69 178q-70 52 -265 52t-287 -62q-52 -35 -87 -75t-70 -132t-76 -333q-42 -240 -42 -312t10 -112q26 -98 140 -125q67 -16 173 -17l-51 199l112 43l60 -236q152 18 244 106q71 69 119 266q19 80 54 276t35 284zM1251 1044q0 -120 -47 -378
q-47 -259 -66 -312q-49 -138 -81 -176q-31 -37 -74 -80t-128 -71q-85 -27 -148 -35l63 -236l-113 -45l-75 273h-21q-256 0 -353 85t-97 261q0 86 37 300t54 291t62 185q44 108 106 154q62 48 172 84t263 36q252 0 349 -83t97 -253z" />
    <glyph glyph-name="R" unicode="R" horiz-adv-x="1314" 
d="M1087 1085q0 43 -16 79q-15 36 -35 54q-42 37 -203 37h-425l-91 -518h325q136 0 174 1q38 2 92 14t80 38t51 73q48 89 48 222zM1208 1107q0 -54 -12 -132q-43 -233 -205 -295q115 -37 115 -174q0 -35 -23 -170l-59 -336h-119l60 334q20 127 20 173t-44 86q-41 32 -164 32
h-480l-111 -625h-123l242 1366h370q182 0 267 -6t141 -33q56 -28 75 -55q18 -27 34 -69t16 -96z" />
    <glyph glyph-name="S" unicode="S" horiz-adv-x="1302" 
d="M182 893q0 37 11 98q39 219 166 304q128 85 385 85t365 -62t108 -210q0 -39 -11 -96h-114q8 56 8 90t-17 67q-31 64 -108 80q-77 17 -211 17q-228 0 -326 -58t-125 -215q-8 -43 -8 -91q-1 -48 17 -80q31 -56 135 -62q103 -6 270 -8q166 -2 238 -23q160 -45 159 -221
q0 -43 -10 -105q-39 -221 -175 -320q-137 -99 -393 -99t-366 63t-108 213q0 39 10 96h119q-8 -41 -8 -82q-1 -98 69 -137t280 -39t315 68q103 68 132 227q10 57 10 87q0 84 -34 113q-34 27 -59 32q-59 14 -138 14l-127 2q-225 4 -303 29q-156 51 -156 223z" />
    <glyph glyph-name="T" unicode="T" horiz-adv-x="1056" 
d="M1128 1366l-20 -111h-436l-221 -1255h-123l221 1255h-438l20 111h997z" />
    <glyph glyph-name="U" unicode="U" horiz-adv-x="1300" 
d="M518 -16q-422 0 -422 311q0 71 58 393l118 678h123l-119 -678q-6 -39 -32 -171t-25 -193q0 -115 67 -170q67 -56 222 -56q154 0 242 32t136 116t64 148q38 155 43 202q4 47 9 70t122 700h123l-119 -678q-33 -186 -59 -311q-84 -393 -551 -393z" />
    <glyph glyph-name="V" unicode="V" horiz-adv-x="1150" 
d="M1264 1366l-754 -1366h-115l-266 1366h121l229 -1198l651 1198h134z" />
    <glyph glyph-name="W" unicode="W" horiz-adv-x="1781" 
d="M1819 1366l-592 -1366h-121l-123 1188l-543 -1188h-135l-102 1366h123l82 -1178l538 1178h129l123 -1173l502 1173h119z" />
    <glyph glyph-name="X" unicode="X" horiz-adv-x="1126" 
d="M1184 1366l-547 -670l317 -696h-133l-268 596l-473 -596h-148l562 696l-308 670h133l256 -571l461 571h148z" />
    <glyph glyph-name="Y" unicode="Y" horiz-adv-x="1075" 
d="M1192 1366l-608 -766l-107 -600h-121l107 600l-338 766h131l283 -649l512 649h141z" />
    <glyph glyph-name="Z" unicode="Z" horiz-adv-x="1226" 
d="M1212 1366l-20 -111l-1012 -1144h811l-20 -111h-957l21 109l1012 1146h-811l20 111h956z" />
    <glyph glyph-name="bracketleft" unicode="[" horiz-adv-x="702" 
d="M807 1651l-19 -105h-303l-323 -1833h303l-19 -104h-421l360 2042h422z" />
    <glyph glyph-name="backslash" unicode="\" horiz-adv-x="1064" 
d="M872 -172h-116l-563 1718h116z" />
    <glyph glyph-name="bracketright" unicode="]" horiz-adv-x="702" 
d="M678 1651l-361 -2042h-421l18 104h305l324 1833h-305l18 105h422z" />
    <glyph glyph-name="asciicircum" unicode="^" horiz-adv-x="1163" 
d="M1073 428l-106 -43l-389 860l-381 -860l-107 43l434 956h111z" />
    <glyph glyph-name="underscore" unicode="_" horiz-adv-x="1024" 
d="M934 -508l-21 -113h-1024l21 113h1024z" />
    <glyph glyph-name="grave" unicode="`" horiz-adv-x="841" 
d="M690 1108h-129l-217 258h129z" />
    <glyph glyph-name="a" unicode="a" 
d="M446 483q-140 0 -206 -39t-88 -161q-6 -29 -7 -54q-1 -75 49 -107t160 -32q189 0 277 56q87 56 123 194q14 53 30 143h-338zM356 -16q-334 0 -333 239q0 119 41 191q41 73 77 104q86 72 332 72h330l6 33q16 88 16 133q0 76 -50 104t-170 29q-191 0 -270 -44
q-78 -44 -93 -140h-113q29 163 149 229t303 66t276 -54q93 -53 91 -186q0 -43 -26 -195l-101 -565h-114l20 111q-106 -127 -371 -127z" />
    <glyph glyph-name="b" unicode="b" horiz-adv-x="1130" 
d="M879 724q0 162 -203 161q-203 0 -298 -84t-136 -309q-18 -100 -19 -170q0 -128 65 -178t229 -50t238 106q38 56 58 121t43 196t23 207zM498 -16q-250 0 -328 127l-18 -111h-115l252 1427h121l-99 -555q121 127 327 127t284 -70q75 -71 75 -213t-45 -341
q-27 -139 -56 -186q-71 -116 -145 -153q-104 -52 -253 -52z" />
    <glyph glyph-name="c" unicode="c" horiz-adv-x="1052" 
d="M954 760q0 -25 -6 -55h-110q4 33 4 43q0 84 -71 112t-181 29q-110 0 -179 -23t-109 -81t-58 -118t-40 -178t-22 -208q0 -91 58 -139t206 -48q209 0 277 86q31 39 41 99h110q-30 -166 -142 -231q-112 -64 -306 -64t-278 76q-85 76 -85 223q0 146 44 330q44 185 101 248
q88 98 208 123q72 15 168 15q370 1 370 -239z" />
    <glyph glyph-name="d" unicode="d" horiz-adv-x="1126" 
d="M836 668q0 123 -66 170t-228 47t-230 -91q-69 -91 -105 -305q-23 -131 -23 -188q0 -103 52 -155t176 -52q184 0 275 90t130 305q19 105 19 179zM421 -16q-204 0 -281 81t-77 230q0 98 35 274t74 239q61 103 150 147q90 44 239 44q244 0 322 -127l98 555h121l-252 -1427
h-117l21 119q-129 -135 -333 -135z" />
    <glyph glyph-name="e" unicode="e" 
d="M836 696q0 106 -60 150t-214 43q-154 0 -232 -74t-109 -244h602q13 70 13 125zM948 696q0 -74 -26 -233h-721q-19 -98 -19 -186q0 -87 58 -135t204 -48q205 0 276 86q32 39 42 99h110q-30 -166 -142 -231q-112 -64 -306 -64t-277 76q-84 76 -84 237q-1 73 19 187
q59 341 176 429t322 87q204 -2 286 -76t82 -228z" />
    <glyph glyph-name="f" unicode="f" horiz-adv-x="884" 
d="M950 1274q0 -35 -4 -55h-117q2 10 2 30q0 80 -186 80q-115 0 -171 -38t-75 -142l-30 -166h428l-19 -106h-430l-153 -877h-119l153 877h-166l21 106h166l31 168q29 155 115 223t245 68q309 0 309 -168z" />
    <glyph glyph-name="g" unicode="g" horiz-adv-x="1124" 
d="M836 649q0 131 -66 183t-228 53q-162 0 -230 -88q-67 -88 -103 -299q-21 -119 -21 -204t52 -133t176 -48q178 0 271 83t132 302q17 92 17 151zM367 -397q-162 0 -264 54q-101 54 -103 169q0 33 4 51h115q-2 -10 -2 -29q0 -137 241 -137q289 0 347 185q12 45 27 129
t20 102q-68 -65 -142 -97t-182 -32q-201 0 -281 77q-79 77 -79 228t54 361q15 61 48 133q94 205 389 202q250 0 328 -131l20 115h117l-158 -891q-27 -158 -49 -227q-88 -262 -450 -262z" />
    <glyph glyph-name="h" unicode="h" horiz-adv-x="1085" 
d="M952 756q0 -72 -30 -248l-91 -508h-120l88 496q33 180 33 246q-1 145 -216 145q-156 0 -248 -85q-88 -83 -132 -353l-80 -449h-119l242 1366h118l-88 -494q117 127 316 127q145 0 236 -57t91 -186z" />
    <glyph glyph-name="i" unicode="i" horiz-adv-x="430" 
d="M330 983l-172 -983h-121l172 983h121zM406 1319q0 -41 -27 -69t-70 -27q-66 0 -65 61q0 45 24 71q25 26 68 25q70 0 70 -61z" />
    <glyph glyph-name="j" unicode="j" horiz-adv-x="432" 
d="M-240 -397q-135 0 -219 52t-84 159q0 14 4 43h115l-2 -27q4 -121 186 -121q232 0 269 244l180 1030h119l-189 -1077q-53 -303 -379 -303zM408 1319q0 -41 -27 -69t-70 -27q-66 0 -65 61q0 45 24 71q25 26 68 25q70 0 70 -61z" />
    <glyph glyph-name="k" unicode="k" horiz-adv-x="950" 
d="M987 983l-641 -459l479 -524h-161l-422 479l-86 -479h-119l252 1427h119l-150 -843l551 399h178z" />
    <glyph glyph-name="l" unicode="l" horiz-adv-x="434" 
d="M410 1427l-252 -1427h-121l252 1427h121z" />
    <glyph glyph-name="m" unicode="m" horiz-adv-x="1638" 
d="M1505 770q0 -61 -20 -176l-105 -594h-118l104 598q20 122 20 174t-38 84t-121 31q-125 0 -209 -51q-55 -33 -98 -121q-43 -87 -74 -275l-78 -440h-119l105 598q20 128 20 178q0 112 -182 111q-104 0 -186 -51q-52 -32 -93 -112q-40 -80 -54 -154q-15 -73 -26 -134
l-77 -436h-119l174 983h115l-21 -111q113 127 307 127q236 0 273 -157q131 158 336 157q284 0 284 -229z" />
    <glyph glyph-name="n" unicode="n" horiz-adv-x="1085" 
d="M952 756q0 -72 -30 -248l-91 -508h-120l88 496q33 180 33 246q-1 145 -216 145q-156 0 -248 -85q-88 -83 -132 -353l-80 -449h-119l174 983h115l-21 -115q117 131 320 131q145 0 236 -57t91 -186z" />
    <glyph glyph-name="o" unicode="o" horiz-adv-x="1107" 
d="M854 706q0 183 -234 183q-194 0 -284 -66q-37 -27 -64 -85t-38 -106q-12 -48 -32 -166t-20 -163q0 -109 56 -159t215 -50q158 0 249 66q37 27 64 86t38 105q50 209 50 355zM975 694q0 -76 -23 -210q-22 -134 -50 -216q-28 -84 -82 -154t-143 -101q-89 -30 -226 -29
q-215 0 -301 76t-87 239q0 74 23 204t50 214q66 199 228 253q89 30 226 29q211 1 298 -75t87 -230z" />
    <glyph glyph-name="p" unicode="p" horiz-adv-x="1130" 
d="M511 98q167 0 235 90t100 268q31 178 31 259q-1 81 -47 125t-162 45q-195 0 -290 -83t-136 -310q-16 -98 -17 -158q-1 -140 59 -188t227 -48zM997 705q0 -82 -20 -197q-21 -115 -37 -177t-52 -135t-85 -114q-119 -100 -334 -99t-293 128l-88 -502h-121l242 1374h117
l-21 -119q123 135 336 135t285 -72t71 -222z" />
    <glyph glyph-name="q" unicode="q" horiz-adv-x="1122" 
d="M836 651q0 133 -62 183t-228 51q-165 0 -234 -91t-105 -305q-23 -131 -23 -184q0 -107 50 -157t178 -50q178 0 272 84t133 307q19 115 19 162zM424 -16q-201 0 -281 78t-80 246q0 167 70 403q18 63 39 97q64 108 134 140q112 51 253 51q248 0 326 -129l20 113h117
l-242 -1374h-121l89 502q-123 -127 -324 -127z" />
    <glyph glyph-name="r" unicode="r" horiz-adv-x="894" 
d="M885 778q0 -31 -6 -65h-111q6 31 6 57q0 61 -43 89t-133 28t-152 -36t-95 -80t-61 -121q-28 -78 -36 -116t-21 -108l-75 -426h-121l174 983h117l-21 -115q119 131 301 131q277 0 277 -221z" />
    <glyph glyph-name="s" unicode="s" horiz-adv-x="1028" 
d="M404 561q39 0 68 -2q30 -2 72 -4t92 -5t73 -9q117 -31 137 -108q8 -33 8 -71t-8 -81q-31 -169 -131 -233t-299 -64t-291 52t-92 173q0 33 6 70h111q-4 -18 -5 -50q-1 -75 57 -105t212 -30t237 50q82 50 82 200q0 60 -52 78t-202 18q-193 6 -250 27q-104 39 -106 158
q0 43 8 86q31 168 128 228t316 60q353 0 353 -219q0 -35 -6 -75h-111q4 18 4 49q0 74 -53 104q-54 30 -158 31q-104 0 -156 -7t-103 -29q-50 -22 -75 -69q-24 -47 -24 -103t11 -75q26 -45 147 -45z" />
    <glyph glyph-name="t" unicode="t" horiz-adv-x="907" 
d="M256 221q0 -71 42 -99t148 -28t162 42q57 42 74 143h111q-29 -158 -118 -227t-245 -68q-293 0 -293 219q0 35 6 73l105 601h-166l20 106h166l68 383h119l-68 -383h449l-21 -106h-448l-105 -601q-6 -31 -6 -55z" />
    <glyph glyph-name="u" unicode="u" 
d="M393 -16q-145 0 -236 57t-91 186q0 72 30 248l90 508h121l-88 -496q-33 -179 -33 -245q0 -146 215 -146q157 0 249 85q89 84 132 354l80 448h119l-174 -983h-115l21 115q-117 -131 -320 -131z" />
    <glyph glyph-name="v" unicode="v" horiz-adv-x="935" 
d="M965 983l-555 -983h-119l-213 983h119l174 -838l467 838h127z" />
    <glyph glyph-name="w" unicode="w" horiz-adv-x="1411" 
d="M1419 983l-471 -983h-125l-100 809l-385 -809h-125l-123 983h117l94 -813l387 813h125l98 -811l379 811h129z" />
    <glyph glyph-name="x" unicode="x" horiz-adv-x="933" 
d="M942 983l-436 -479l276 -504h-139l-219 412l-365 -412h-147l453 502l-267 481h140l208 -391l349 391h147z" />
    <glyph glyph-name="y" unicode="y" horiz-adv-x="931" 
d="M948 983l-747 -1374h-125l213 391l-187 983h119l154 -840l442 840h131z" />
    <glyph glyph-name="z" unicode="z" horiz-adv-x="970" 
d="M924 983l-17 -96l-743 -776h608l-20 -111h-775l17 96l747 781h-612l21 106h774z" />
    <glyph glyph-name="braceleft" unicode="{" horiz-adv-x="741" 
d="M250 628q0 -11 6 -18l94 -108q33 -39 33 -86q0 -10 -4 -39l-64 -369q-14 -78 -14 -142t30 -98q31 -34 65 -44t100 -11l-19 -104q-172 0 -232 73t-61 173q0 57 17 155l65 379q4 27 -28 60q-33 33 -69 73t-36 96t84 127l131 111q2 2 2 6l76 428q23 127 54 198
q32 71 102 128q90 76 262 76l-19 -105q-119 0 -187 -56t-97 -239l-74 -413q-8 -45 -44 -89t-74 -72q-39 -28 -69 -54t-30 -36z" />
    <glyph glyph-name="bar" unicode="|" horiz-adv-x="585" 
d="M350 -391h-114v1757h114v-1757z" />
    <glyph glyph-name="braceright" unicode="}" horiz-adv-x="735" 
d="M602 655q0 -74 -84 -143l-131 -111q-4 -4 -4 -12l-68 -379q-23 -128 -55 -198t-100 -127q-90 -76 -262 -76l18 104q118 -1 184 55t101 240l67 371q8 45 44 89t74 72t75 58t18 49l-94 109q-31 34 -32 62t3 61l70 413q14 80 14 143t-30 97t-64 45q-35 10 -100 10l18 105
q172 0 232 -73t61 -169q0 -55 -16 -160l-72 -436q1 -18 67 -84t66 -115z" />
    <glyph glyph-name="asciitilde" unicode="~" horiz-adv-x="1163" 
d="M926 401q-76 -53 -169 -53t-172 65q-17 13 -25 18t-38 28q-31 23 -68 32t-53 9q-55 0 -104 -35l-160 -113l-63 97l166 118q76 53 164 53t151 -45q22 -11 56 -39t78 -46q44 -19 86 -19t91 35l162 110l62 -96z" />
    <glyph glyph-name="exclamdown" unicode="&#xa1;" horiz-adv-x="575" 
d="M276 594l-172 -977h-118l172 977h118zM356 940q0 -47 -26 -76t-72 -28q-70 0 -70 59q0 47 26 76t73 28q69 0 69 -59z" />
    <glyph glyph-name="cent" unicode="&#xa2;" horiz-adv-x="1056" 
d="M184 284q0 -85 47 -132t160 -56l137 791q-88 -6 -144 -33t-91 -84q-35 -56 -51 -114t-37 -172t-21 -200zM956 760q0 -25 -6 -55h-110q4 29 4 43q0 131 -205 139l-139 -793q238 12 266 185h111q-27 -158 -131 -224t-265 -71l-32 -179h-111l33 181q-166 12 -236 89t-69 214
q0 155 54 367q16 62 49 136q34 74 79 110q109 91 301 97l31 179h110l-31 -181q297 -22 297 -237z" />
    <glyph glyph-name="sterling" unicode="&#xa3;" horiz-adv-x="1150" 
d="M1116 1174q0 -48 -6 -103h-115q6 31 6 57q0 86 -59 114q-58 28 -156 28t-153 -8t-93 -33t-61 -45q-39 -34 -61 -145l-56 -302h596l-18 -108h-596l-92 -520h706l-18 -109h-942l18 109h115l92 520h-114l18 108h115l37 201q33 178 65 244q96 199 399 198q202 0 284 -50
q37 -22 63 -65t26 -91z" />
    <glyph glyph-name="currency" unicode="&#xa4;" horiz-adv-x="1150" 
d="M995 1118q0 90 -64 121q-65 31 -153 31t-141 -7t-132 -58q-26 -15 -46 -51l-33 -58q-25 -45 -66 -246h373l-18 -109h-373l-20 -114h372l-18 -109h-373q-25 -166 -24 -207q0 -111 55 -163q54 -52 198 -52t222 40t98 159h117q-31 -174 -137 -242q-106 -67 -302 -67
q-194 0 -282 82t-88 239q0 88 22 211h-104l18 109h105l20 114h-104l18 109h105q20 133 48 219t81 163q103 150 376 148q173 0 271 -54t96 -189q0 -31 -6 -66h-117q6 31 6 47z" />
    <glyph glyph-name="yen" unicode="&#xa5;" horiz-adv-x="1091" 
d="M1186 1366l-400 -516h172l-18 -107h-235l-89 -114h304l-19 -107h-321l-93 -522h-120l92 522h-322l19 107h305l-49 114h-236l19 107h172l-217 516h131l270 -651l493 651h142z" />
    <glyph glyph-name="brokenbar" unicode="&#xa6;" horiz-adv-x="585" 
d="M350 -391h-114v627h114v-627zM350 739h-114v627h114v-627z" />
    <glyph glyph-name="section" unicode="&#xa7;" horiz-adv-x="1146" 
d="M836 615q0 57 -8 79t-28 36q-22 14 -44 26q-22 13 -125 12q-102 0 -134 -1q-96 -3 -141 -39q-78 -59 -84 -204q0 -67 29 -84q29 -18 52 -30t125 -13q101 0 133 1q32 0 74 10t67 29q24 19 54 70t30 108zM870 184q0 -43 -8 -84q-33 -184 -133 -248t-290 -67
q-191 -2 -283 52t-90 186q0 18 8 71h114q-6 -27 -6 -53q-2 -80 56 -112q58 -33 199 -31q140 2 212 39q94 49 101 227q0 63 -38 101q-20 20 -79 23q-58 3 -117 3q-174 0 -268 43t-96 172q0 20 8 78q33 180 164 233q-86 45 -86 166q0 41 8 82q33 184 133 249q100 64 288 66
q187 2 279 -50t94 -181q0 -35 -6 -78h-114q6 29 6 53q2 80 -56 112t-199 31q-140 -1 -212 -38t-90 -145t-2 -140q16 -31 32 -47t75 -19t170 -4t201 -35q113 -46 111 -180q0 -20 -8 -77q-33 -180 -164 -234q86 -45 86 -164z" />
    <glyph glyph-name="dieresis" unicode="&#xa8;" horiz-adv-x="847" 
d="M393 1309q-1 -41 -27 -69t-69 -28q-66 0 -66 62q0 45 25 71t68 25q69 0 69 -61zM834 1309q0 -41 -27 -69t-70 -28q-66 0 -65 62q0 45 24 71q25 26 68 25q70 0 70 -61z" />
    <glyph glyph-name="copyright" unicode="&#xa9;" horiz-adv-x="1701" 
d="M1255 510q0 -57 -8 -96q-45 -217 -393 -217q-240 0 -338 104q-53 57 -73 137q-19 80 -19 245t19 244q58 242 411 242q254 0 340 -102q61 -70 61 -209h-108q0 100 -39 139q-74 70 -256 70t-254 -78q-35 -37 -48 -97t-13 -208t13 -208q13 -62 48 -99q72 -78 253 -78t257 72
q39 39 39 139h108zM1427 690q-1 210 -27 314t-87 163q-117 111 -463 111t-463 -111q-59 -59 -86 -165t-27 -319q0 -212 26 -315t87 -163q125 -119 463 -119t463 119q61 59 87 167t27 318zM1538 685q0 -230 -35 -355t-115 -203t-206 -111q-127 -32 -332 -32t-332 32
q-256 65 -320 314q-34 127 -34 358t34 356t112 201t205 106q126 29 335 29t335 -29q251 -60 319 -309q34 -127 34 -357z" />
    <glyph glyph-name="ordfeminine" unicode="&#xaa;" horiz-adv-x="774" 
d="M416 1012q-92 0 -150 -27t-59 -125q-2 -48 34 -70t124 -22q139 0 199 56t87 188h-235zM782 1210q0 -33 -18 -129l-70 -393h-84l15 84q-109 -94 -271 -94q-250 0 -250 172q0 12 5 37q20 131 101 173t226 42h232l8 43q6 35 6 57t-23 49q-33 39 -159 39q-201 0 -221 -112
h-97q36 202 318 202t282 -170z" />
    <glyph glyph-name="guillemotleft" unicode="&#xab;" horiz-adv-x="915" 
d="M170 464q0 -89 50 -162t82 -110t36 -45l-82 -69q-2 4 -35 42t-41 49t-35 46t-35 55q-9 20 -31 63t-22 114t50 149t101 129q144 140 198 180l67 -84q-14 -12 -67 -55q-236 -191 -236 -302zM860 821q-14 -12 -67 -55q-172 -139 -215 -230q-54 -114 39 -248q41 -59 72 -96
q32 -37 36 -45l-82 -69q-2 4 -35 42t-41 49t-35 46t-35 55q-9 20 -30 61t-22 114q-2 73 50 154t102 129q141 138 196 177z" />
    <glyph glyph-name="logicalnot" unicode="&#xac;" horiz-adv-x="1163" 
d="M1069 0h-115v637h-860v108h975v-745z" />
    <glyph glyph-name="registered" unicode="&#xae;" horiz-adv-x="1099" 
d="M684 1046q0 62 -17 79t-126 18h-113v-180h119q90 0 106 8q31 13 31 75zM764 631h-80v166q0 51 -14 71t-46 22t-83 3h-111v-262h-82v583h199q70 0 104 -6q113 -20 113 -157q0 -78 -59 -121q59 -39 59 -129v-170zM932 919q0 243 -72 315t-310 71q-238 0 -310 -71
q-70 -71 -70 -316q0 -244 72 -316t308 -72t310 73q72 73 72 316zM1012 919q0 -153 -22 -237t-72 -133q-96 -96 -368 -96t-368 96q-51 49 -72 133q-22 84 -22 238t22 238t72 132q92 90 368 90t368 -90q50 -50 72 -134t22 -237z" />
    <glyph glyph-name="macron" unicode="&#xaf;" horiz-adv-x="849" 
d="M891 1346l-19 -103h-679l18 103h680z" />
    <glyph glyph-name="degree" unicode="&#xb0;" horiz-adv-x="1161" 
d="M774 1069q0 117 -39 162t-153 45t-155 -45q-40 -45 -40 -162t40 -161t155 -44q116 0 154 44t38 161zM887 1073q0 -163 -74 -239q-73 -76 -231 -76t-233 76t-75 238t74 236q74 72 234 72t232 -72t73 -235z" />
    <glyph glyph-name="plusminus" unicode="&#xb1;" horiz-adv-x="1163" 
d="M1094 -109h-1024v109h1024v-109zM1071 492h-434v-386h-115v386h-432v108h432v383h115v-383h434v-108z" />
    <glyph glyph-name="twosuperior" unicode="&#xb2;" horiz-adv-x="808" 
d="M735 1204q0 -95 -34 -156q-33 -60 -75 -86q-81 -50 -220 -81q-90 -24 -123 -44q-33 -19 -43 -45t-19 -69l-14 -80h432l-16 -90h-535l33 190q14 85 66 138t211 93q56 14 104 28t90 51q41 37 41 139q0 53 -34 75q-34 21 -117 21t-127 -24t-56 -95h-102q20 115 88 163
t194 48q256 0 256 -176z" />
    <glyph glyph-name="threesuperior" unicode="&#xb3;" horiz-adv-x="808" 
d="M741 1212q0 -185 -118 -235q63 -29 63 -115q0 -39 -8 -80q-24 -135 -94 -187t-207 -52q-264 0 -258 170q0 12 4 41h98q-14 -72 28 -95q42 -24 136 -24q94 -1 135 25t58 120q6 35 6 58q0 57 -35 75t-121 19h-141l16 92h141q92 0 135 23q42 23 56 104q6 29 6 49
q0 48 -33 68q-34 20 -122 20t-131 -25q-42 -26 -56 -94h-96q20 117 88 164t196 47q254 0 254 -168z" />
    <glyph glyph-name="acute" unicode="&#xb4;" horiz-adv-x="843" 
d="M745 1366l-305 -258h-147l307 258h145z" />
    <glyph glyph-name="mu" unicode="&#xb5;" horiz-adv-x="1093" 
d="M414 -16q-190 0 -258 77l-80 -452h-121l242 1374h120l-90 -518q-31 -177 -29 -239t47 -96q46 -34 139 -34q144 0 232 45q53 27 96 102q44 74 58 149t27 143l77 448h119l-172 -983h-114l18 115q-121 -131 -311 -131z" />
    <glyph glyph-name="paragraph" unicode="&#xb6;" horiz-adv-x="1142" 
d="M641 1255q-207 0 -269 -38t-85 -97q-43 -114 -44 -219q-1 -104 54 -136t184 -32h103l92 522h-35zM451 625q-154 0 -241 59t-85 207q0 39 17 135t77 200q83 133 341 139q44 1 124 1h356l-241 -1366h-115l221 1255h-114l-222 -1255h-114l112 625h-116z" />
    <glyph glyph-name="periodcentered" unicode="&#xb7;" horiz-adv-x="425" 
d="M297 709q0 -47 -26 -76t-72 -29q-70 0 -70 60q0 48 26 76t72 28q70 0 70 -59z" />
    <glyph glyph-name="cedilla" unicode="&#xb8;" horiz-adv-x="1054" 
d="M328 -223q0 57 -68 57h-55l28 166h86l-16 -100q113 -1 113 -101q0 -12 -4 -37q-24 -153 -183 -153q-81 1 -115 23t-34 75q0 10 4 39h80q-2 -10 -2 -30t16 -28t60 -7q90 0 90 96z" />
    <glyph glyph-name="onesuperior" unicode="&#xb9;" horiz-adv-x="808" 
d="M586 635l-17 -88h-473l17 88h184l104 596l-155 -121l-49 66l245 190h88l-129 -731h185z" />
    <glyph glyph-name="ordmasculine" unicode="&#xba;" horiz-adv-x="768" 
d="M678 1172q0 56 -41 86t-167 30t-172 -53t-68 -180t-21 -152q0 -71 41 -101q40 -30 166 -30t175 54q47 54 67 172t20 174zM774 1153q0 -55 -12 -123q-35 -198 -105 -274t-240 -76q-171 0 -237 52t-65 171q0 55 12 127q35 199 103 275q69 75 240 75q172 0 238 -54t66 -173z
" />
    <glyph glyph-name="guillemotright" unicode="&#xbb;" horiz-adv-x="917" 
d="M401 543q0 -49 -10 -87q-13 -49 -67 -126q-54 -76 -155 -160t-110 -92l-69 82q14 12 66 53q169 133 212 221q20 41 20 87t-36 117q-38 72 -60 100t-75 96l84 71q1 -2 33 -42t40 -52t36 -49t38 -59t32 -66t21 -94zM791 542q-1 -48 -11 -86q-14 -49 -67 -126
q-54 -76 -155 -160t-109 -92l-70 82q14 12 66 53q169 134 212 221q21 41 21 87t-37 117q-37 72 -59 100t-76 96l84 71q2 -2 34 -42t40 -52t36 -49t37 -59q10 -22 32 -67t22 -94z" />
    <glyph glyph-name="onequarter" unicode="&#xbc;" horiz-adv-x="1617" 
d="M1239 668l-324 -369h261zM586 635l-17 -88h-473l17 88h184l104 596l-155 -121l-49 66l245 190h88l-129 -731h185zM1399 299l-15 -84h-122l-37 -215h-103l39 215h-373l15 84l473 520h94l-94 -520h123zM1350 1366l-932 -1366h-109l930 1366h111z" />
    <glyph glyph-name="onehalf" unicode="&#xbd;" horiz-adv-x="1617" 
d="M586 635l-17 -88h-473l17 88h184l104 596l-155 -121l-49 66l245 190h88l-129 -731h185zM1350 1366l-932 -1366h-109l930 1366h111zM1538 651q0 -95 -34 -156t-76 -87q-90 -54 -220 -80q-90 -24 -123 -44q-33 -19 -43 -45t-18 -69l-14 -80h432l-17 -90h-534l33 190
q15 88 67 140t210 91q57 13 105 27t80 45q50 46 50 146q0 53 -34 75t-117 22t-127 -26q-44 -24 -56 -94h-103q20 115 88 163t195 48q256 0 256 -176z" />
    <glyph glyph-name="threequarters" unicode="&#xbe;" horiz-adv-x="1622" 
d="M1239 668l-324 -369h261zM741 1212q0 -185 -118 -235q63 -29 63 -115q0 -39 -8 -80q-24 -135 -94 -187t-207 -52q-264 0 -258 170q0 12 4 41h98q-14 -72 28 -95q42 -24 136 -24q94 -1 135 25t58 120q6 35 6 58q0 57 -35 75t-121 19h-141l16 92h141q92 0 135 23
q42 23 56 104q6 29 6 49q0 48 -33 68q-34 20 -122 20t-131 -25q-42 -26 -56 -94h-96q20 117 88 164t196 47q254 0 254 -168zM1399 299l-15 -84h-122l-37 -215h-103l39 215h-373l15 84l473 520h94l-94 -520h123zM1350 1366l-932 -1366h-109l930 1366h111z" />
    <glyph glyph-name="questiondown" unicode="&#xbf;" horiz-adv-x="860" 
d="M-82 -135q0 47 8 90q23 129 90 207q68 78 178 123t141 86q30 41 46 143l12 80h117l-18 -113q-18 -113 -66 -176t-104 -87q-58 -24 -114 -46q-174 -66 -173 -303q2 -82 53 -116t186 -34t202 44t87 155h113q-31 -170 -127 -240q-97 -70 -277 -70t-267 61q-87 60 -87 196z
M594 940q0 -47 -26 -76t-72 -28q-70 0 -70 59q0 47 26 76t72 28q70 0 70 -59z" />
    <glyph glyph-name="Agrave" unicode="&#xc0;" horiz-adv-x="1251" 
d="M862 510l-139 696l-389 -696h528zM1092 0h-125l-82 403h-611l-223 -403h-133l770 1366h117zM942 1507h-129l-217 258h129z" />
    <glyph glyph-name="Aacute" unicode="&#xc1;" horiz-adv-x="1251" 
d="M862 510l-139 696l-389 -696h528zM1092 0h-125l-82 403h-611l-223 -403h-133l770 1366h117zM1055 1765l-305 -258h-148l307 258h146z" />
    <glyph glyph-name="Acircumflex" unicode="&#xc2;" horiz-adv-x="1251" 
d="M862 510l-139 696l-389 -696h528zM1092 0h-125l-82 403h-611l-223 -403h-133l770 1366h117zM1085 1507h-129l-149 170l-207 -170h-145l317 258h86z" />
    <glyph glyph-name="Atilde" unicode="&#xc3;" horiz-adv-x="1251" 
d="M912 1573q-56 0 -107 31q-17 18 -38 28t-42 22t-54 11q-34 0 -67 -16l-149 -72l-31 92q42 25 126 61q84 37 142 37t130 -49q67 -41 102 -41t71 17l148 71l31 -92l-140 -67q-66 -33 -122 -33zM862 510l-139 696l-389 -696h528zM1092 0h-125l-82 403h-611l-223 -403h-133
l770 1366h117z" />
    <glyph glyph-name="Adieresis" unicode="&#xc4;" horiz-adv-x="1251" 
d="M862 510l-139 696l-389 -696h528zM1092 0h-125l-82 403h-611l-223 -403h-133l770 1366h117zM662 1698q0 -41 -27 -69t-70 -27q-66 0 -65 61q0 45 24 71q25 26 68 25q70 0 70 -61zM1102 1698q0 -41 -27 -69t-69 -27q-66 0 -66 61q0 45 25 71t67 25q70 0 70 -61z" />
    <glyph glyph-name="Aring" unicode="&#xc5;" horiz-adv-x="1251" 
d="M862 510l-139 696l-389 -696h528zM755 1366q79 0 109 26t39 85q10 59 10 94t-26 52q-27 17 -103 17t-107 -28q-30 -28 -41 -88q-11 -62 -11 -96t25 -48q26 -14 105 -14zM520 1434q0 23 8 79q23 125 78 173t182 49q229 0 230 -170q0 -29 -6 -64q-37 -203 -191 -223
l269 -1278h-123l-82 403h-611l-223 -403h-133l719 1280q-117 18 -117 154z" />
    <glyph glyph-name="AE" unicode="&#xc6;" horiz-adv-x="1861" 
d="M1032 1194l-565 -674h446zM1833 1366l-21 -111h-649l-88 -499h629l-18 -111h-631l-92 -534h649l-21 -111h-770l74 414h-514l-350 -414h-148l1153 1366h797z" />
    <glyph glyph-name="Ccedilla" unicode="&#xc7;" horiz-adv-x="1304" 
d="M492 -166h-56l27 154q-190 18 -272 97q-81 79 -81 237t85 565q14 68 46 165t73 143q123 135 273 166q97 19 228 19q219 0 319 -61t99 -211q0 -39 -10 -96h-115q8 47 8 92q0 90 -69 126q-70 36 -208 36t-209 -14t-123 -48q-52 -35 -86 -76t-69 -133t-77 -337
q-43 -246 -44 -318q0 -131 69 -186q70 -56 272 -56t298 56t123 198h115q-37 -205 -166 -289t-393 -79l-14 -84q113 0 112 -101q0 -12 -4 -37q-25 -154 -188 -153q-76 1 -110 23t-34 75q0 10 4 39h80q-2 -10 -2 -30q1 -20 17 -28t60 -7q44 0 63 20t26 76q0 57 -67 57z" />
    <glyph glyph-name="Egrave" unicode="&#xc8;" horiz-adv-x="1187" 
d="M928 1507h-129l-217 258h129zM1159 1366l-20 -111h-729l-88 -499h708l-18 -111h-709l-94 -534h729l-20 -111h-855l242 1366h854z" />
    <glyph glyph-name="Eacute" unicode="&#xc9;" horiz-adv-x="1187" 
d="M1159 1366l-20 -111h-729l-88 -499h708l-18 -111h-709l-94 -534h729l-20 -111h-855l242 1366h854zM1028 1765l-305 -258h-148l308 258h145z" />
    <glyph glyph-name="Ecircumflex" unicode="&#xca;" horiz-adv-x="1187" 
d="M1092 1507h-129l-150 170l-207 -170h-145l317 258h86zM1159 1366l-20 -111h-729l-88 -499h708l-18 -111h-709l-94 -534h729l-20 -111h-855l242 1366h854z" />
    <glyph glyph-name="Edieresis" unicode="&#xcb;" horiz-adv-x="1187" 
d="M1159 1366l-20 -111h-729l-88 -499h708l-18 -111h-709l-94 -534h729l-20 -111h-855l242 1366h854zM670 1704q0 -41 -27 -69t-70 -27q-66 0 -65 61q0 45 24 71q25 26 68 25q70 0 70 -61zM1110 1704q0 -41 -27 -69t-69 -27q-66 0 -66 61q0 45 25 71t67 25q70 0 70 -61z" />
    <glyph glyph-name="Igrave" unicode="&#xcc;" horiz-adv-x="491" 
d="M618 1507h-129l-217 258h129zM428 1366l-242 -1366h-123l242 1366h123z" />
    <glyph glyph-name="Iacute" unicode="&#xcd;" horiz-adv-x="491" 
d="M428 1366l-242 -1366h-123l242 1366h123zM682 1765l-305 -258h-148l308 258h145z" />
    <glyph glyph-name="Icircumflex" unicode="&#xce;" horiz-adv-x="491" 
d="M733 1507h-129l-149 170l-207 -170h-146l318 258h86zM428 1366l-242 -1366h-123l242 1366h123z" />
    <glyph glyph-name="Idieresis" unicode="&#xcf;" horiz-adv-x="491" 
d="M428 1366l-242 -1366h-123l242 1366h123zM313 1704q-1 -41 -27 -69t-69 -27q-66 0 -65 61q0 45 24 71q25 26 68 25q69 0 69 -61zM754 1704q0 -41 -27 -69t-70 -27q-66 0 -65 61q0 45 24 71q25 26 68 25q70 0 70 -61z" />
    <glyph glyph-name="Eth" unicode="&#xd0;" horiz-adv-x="1394" 
d="M1167 1018q0 189 -154 221q-81 16 -259 16h-299l-90 -512h352l-19 -110h-352l-92 -522h340q100 0 167 8q131 16 203 93q72 78 115 262q18 78 53 264t35 280zM1178 372q-20 -77 -43 -120t-58 -91t-77 -74t-119 -56t-275 -31h-497l112 633h-149l18 110h150l110 623h416
q209 0 315 -27q203 -52 203 -308t-106 -659z" />
    <glyph glyph-name="Ntilde" unicode="&#xd1;" horiz-adv-x="1327" 
d="M1264 1366l-242 -1366h-131l-500 1184l-207 -1184h-121l242 1366h131l498 -1173l207 1173h123zM951 1573q-56 0 -107 31q-17 18 -38 28t-42 22t-54 11q-34 0 -67 -16l-149 -72l-31 92q34 20 110 54t103 39t69 5t112 -45q71 -45 106 -45t71 17l148 71l30 -92l-139 -67
q-66 -33 -122 -33z" />
    <glyph glyph-name="Ograve" unicode="&#xd2;" horiz-adv-x="1361" 
d="M1130 1036q0 127 -69 178q-70 52 -265 52t-287 -62q-52 -35 -87 -75t-70 -132t-76 -333q-42 -240 -43 -318q1 -133 63 -190q62 -58 291 -58t322 102q37 40 62 80t52 128t67 314t40 314zM1251 1044q0 -104 -49 -384t-98 -392q-86 -199 -295 -256q-102 -29 -248 -28
q-256 0 -353 85t-97 261q0 86 37 300t54 291t62 185q44 108 106 154q62 48 172 84t263 36q252 0 349 -83t97 -253zM1042 1507h-129l-217 258h129z" />
    <glyph glyph-name="Oacute" unicode="&#xd3;" horiz-adv-x="1361" 
d="M1130 1036q0 127 -69 178q-70 52 -265 52t-287 -62q-52 -35 -87 -75t-70 -132t-76 -333q-42 -240 -43 -318q1 -133 63 -190q62 -58 291 -58t322 102q37 40 62 80t52 128t67 314t40 314zM1251 1044q0 -104 -49 -384t-98 -392q-86 -199 -295 -256q-102 -29 -248 -28
q-256 0 -353 85t-97 261q0 86 37 300t54 291t62 185q44 108 106 154q62 48 172 84t263 36q252 0 349 -83t97 -253zM1069 1765l-305 -258h-148l308 258h145z" />
    <glyph glyph-name="Ocircumflex" unicode="&#xd4;" horiz-adv-x="1361" 
d="M1141 1507h-129l-150 170l-207 -170h-145l317 258h86zM1130 1036q0 127 -69 178q-70 52 -265 52t-287 -62q-52 -35 -87 -75t-70 -132t-76 -333q-42 -240 -43 -318q1 -133 63 -190q62 -58 291 -58t322 102q37 40 62 80t52 128t67 314t40 314zM1251 1044q0 -104 -49 -384
t-98 -392q-86 -199 -295 -256q-102 -29 -248 -28q-256 0 -353 85t-97 261q0 86 37 300t54 291t62 185q44 108 106 154q62 48 172 84t263 36q252 0 349 -83t97 -253z" />
    <glyph glyph-name="Otilde" unicode="&#xd5;" horiz-adv-x="1361" 
d="M1130 1036q0 127 -69 178q-70 52 -265 52t-287 -62q-52 -35 -87 -75t-70 -132t-76 -333q-42 -240 -43 -318q1 -133 63 -190q62 -58 291 -58t322 102q37 40 62 80t52 128t67 314t40 314zM1251 1044q0 -104 -49 -384t-98 -392q-86 -199 -295 -256q-102 -29 -248 -28
q-256 0 -353 85t-97 261q0 86 37 300t54 291t62 185q44 108 106 154q62 48 172 84t263 36q252 0 349 -83t97 -253zM970 1573q-56 0 -108 31q-20 20 -40 29q-19 9 -40 21q-21 11 -54 11q-34 0 -66 -16l-150 -72l-31 92q32 19 108 53t104 40q28 5 70 5t113 -45t105 -45
q35 0 72 17l147 71l31 -92l-139 -67q-66 -33 -122 -33z" />
    <glyph glyph-name="Odieresis" unicode="&#xd6;" horiz-adv-x="1361" 
d="M1130 1036q0 127 -69 178q-70 52 -265 52t-287 -62q-52 -35 -87 -75t-70 -132t-76 -333q-42 -240 -43 -318q1 -133 63 -190q62 -58 291 -58t322 102q37 40 62 80t52 128t67 314t40 314zM1251 1044q0 -104 -49 -384t-98 -392q-86 -199 -295 -256q-102 -29 -248 -28
q-256 0 -353 85t-97 261q0 86 37 300t54 291t62 185q44 108 106 154q62 48 172 84t263 36q252 0 349 -83t97 -253zM719 1698q0 -41 -27 -69t-69 -27q-66 0 -66 61q0 45 25 71t67 25q70 0 70 -61zM1159 1698q-1 -41 -27 -69t-69 -27q-66 0 -66 61q0 45 25 71t68 25
q69 0 69 -61z" />
    <glyph glyph-name="multiply" unicode="&#xd7;" horiz-adv-x="1161" 
d="M1047 129l-78 -78l-389 389l-387 -389l-78 78l389 387l-389 389l78 78l387 -389l389 389l78 -78l-390 -389z" />
    <glyph glyph-name="Oslash" unicode="&#xd8;" horiz-adv-x="1361" 
d="M854 1264h-45q-199 4 -297 -59q-53 -33 -87 -73t-69 -130t-79 -325q-45 -235 -47 -333t33 -154q34 -56 134 -77zM506 102l51 -2q209 -4 333 82q92 66 146 278q20 80 60 292t40 295q1 83 -38 133t-133 71zM764 1378q82 0 139 -4l105 273l106 -25l-102 -262
q137 -31 191 -110q54 -78 53 -192t-53 -398t-101 -394q-88 -197 -295 -254q-106 -29 -252 -26q-35 0 -96 4l-111 -279l-106 23l108 270q-135 33 -189 115q-54 83 -52 201t37 310t50 256q54 235 119 308q125 138 271 166q96 18 178 18z" />
    <glyph glyph-name="Ugrave" unicode="&#xd9;" horiz-adv-x="1300" 
d="M518 -16q-422 0 -422 311q0 71 58 393l118 678h123l-119 -678q-6 -39 -32 -171t-25 -193q0 -115 67 -170q67 -56 222 -56q154 0 242 32t136 116t64 148q38 155 43 202q4 47 9 70t122 700h123l-119 -678q-33 -186 -59 -311q-84 -393 -551 -393zM997 1507h-129l-217 258
h129z" />
    <glyph glyph-name="Uacute" unicode="&#xda;" horiz-adv-x="1300" 
d="M518 -16q-422 0 -422 311q0 71 58 393l118 678h123l-119 -678q-6 -39 -32 -171t-25 -193q0 -115 67 -170q67 -56 222 -56q154 0 242 32t136 116t64 148q38 155 43 202q4 47 9 70t122 700h123l-119 -678q-33 -186 -59 -311q-84 -393 -551 -393zM1104 1765l-305 -258h-148
l307 258h146z" />
    <glyph glyph-name="Ucircumflex" unicode="&#xdb;" horiz-adv-x="1300" 
d="M1141 1507h-129l-150 170l-207 -170h-145l317 258h86zM518 -16q-422 0 -422 311q0 71 58 393l118 678h123l-119 -678q-6 -39 -32 -171t-25 -193q0 -115 67 -170q67 -56 222 -56q154 0 242 32t136 116t64 148q38 155 43 202q4 47 9 70t122 700h123l-119 -678
q-33 -186 -59 -311q-84 -393 -551 -393z" />
    <glyph glyph-name="Udieresis" unicode="&#xdc;" horiz-adv-x="1300" 
d="M674 1698q0 -41 -27 -69t-69 -27q-66 0 -66 61q0 45 25 71t67 25q70 0 70 -61zM1114 1698q0 -41 -27 -69t-69 -27q-66 0 -66 61q0 45 25 71t67 25q70 0 70 -61zM518 -16q-422 0 -422 311q0 71 58 393l118 678h123l-119 -678q-6 -39 -32 -171t-25 -193q0 -115 67 -170
q67 -56 222 -56q154 0 242 32t136 116t64 148q38 155 43 202q4 47 9 70t122 700h123l-119 -678q-33 -186 -59 -311q-84 -393 -551 -393z" />
    <glyph glyph-name="Yacute" unicode="&#xdd;" horiz-adv-x="1075" 
d="M1192 1366l-608 -766l-107 -600h-121l107 600l-338 766h131l283 -649l512 649h141zM971 1765l-305 -258h-148l307 258h146z" />
    <glyph glyph-name="Thorn" unicode="&#xde;" horiz-adv-x="1187" 
d="M1012 633q20 90 20 162t-41 110t-93 42q-109 9 -157 8q-49 -1 -65 -1h-322l-94 -532h322q197 0 254 16q131 35 176 195zM1157 797q0 -39 -14 -127t-50 -158q-36 -72 -77 -112q-72 -70 -253 -85q-62 -4 -175 -4h-346l-56 -311h-123l242 1366h123l-53 -301h294
q133 0 187 -2q54 -3 128 -23q73 -20 112 -61q61 -61 61 -182z" />
    <glyph glyph-name="germandbls" unicode="&#xdf;" horiz-adv-x="1146" 
d="M969 543q0 -74 -13 -142q-40 -235 -162 -319t-327 -84h-176l18 106h160q172 0 255 60t114 229q12 70 12 119q0 109 -69 152t-220 43h-143l18 106h144q172 0 264 61q68 47 94 201q10 61 10 96q-2 90 -60 125t-182 35t-190 -19q-66 -20 -102 -70t-50 -98q-15 -48 -32 -143
l-176 -1001h-119l174 995q31 174 57 236q98 209 416 211q195 0 288 -60t95 -198q0 -45 -10 -103q-43 -252 -207 -325q51 -18 85 -78t34 -135z" />
    <glyph glyph-name="agrave" unicode="&#xe0;" 
d="M793 1108h-129l-218 258h129zM446 483q-140 0 -206 -39t-88 -161q-6 -29 -7 -54q-1 -75 49 -107t160 -32q189 0 277 56q87 56 123 194q14 53 30 143h-338zM356 -16q-334 0 -333 239q0 119 41 191q41 73 77 104q86 72 332 72h330l6 33q16 88 16 133q0 76 -50 104t-170 29
q-191 0 -270 -44q-78 -44 -93 -140h-113q29 163 149 229t303 66t276 -54q93 -53 91 -186q0 -43 -26 -195l-101 -565h-114l20 111q-106 -127 -371 -127z" />
    <glyph glyph-name="aacute" unicode="&#xe1;" 
d="M446 483q-140 0 -206 -39t-88 -161q-6 -29 -7 -54q-1 -75 49 -107t160 -32q189 0 277 56q87 56 123 194q14 53 30 143h-338zM356 -16q-334 0 -333 239q0 119 41 191q41 73 77 104q86 72 332 72h330l6 33q16 88 16 133q0 76 -50 104t-170 29q-191 0 -270 -44
q-78 -44 -93 -140h-113q29 163 149 229t303 66t276 -54q93 -53 91 -186q0 -43 -26 -195l-101 -565h-114l20 111q-106 -127 -371 -127zM881 1366l-306 -258h-147l307 258h146z" />
    <glyph glyph-name="acircumflex" unicode="&#xe2;" 
d="M446 483q-140 0 -206 -39t-88 -161q-6 -29 -7 -54q-1 -75 49 -107t160 -32q189 0 277 56q87 56 123 194q14 53 30 143h-338zM356 -16q-334 0 -333 239q0 119 41 191q41 73 77 104q86 72 332 72h330l6 33q16 88 16 133q0 76 -50 104t-170 29q-191 0 -270 -44
q-78 -44 -93 -140h-113q29 163 149 229t303 66t276 -54q93 -53 91 -186q0 -43 -26 -195l-101 -565h-114l20 111q-106 -127 -371 -127zM928 1108h-129l-150 170l-207 -170h-145l317 258h86z" />
    <glyph glyph-name="atilde" unicode="&#xe3;" 
d="M446 483q-140 0 -206 -39t-88 -161q-6 -29 -7 -54q-1 -75 49 -107t160 -32q189 0 277 56q87 56 123 194q14 53 30 143h-338zM356 -16q-334 0 -333 239q0 119 41 191q41 73 77 104q86 72 332 72h330l6 33q16 88 16 133q0 76 -50 104t-170 29q-191 0 -270 -44
q-78 -44 -93 -140h-113q29 163 149 229t303 66t276 -54q93 -53 91 -186q0 -43 -26 -195l-101 -565h-114l20 111q-106 -127 -371 -127zM503 1266q-32 0 -65 -17l-149 -71l-31 92q10 6 50 25t58 27q94 46 153 46q60 0 108 -31q16 -8 55 -33q39 -26 75 -26t72 16l148 72l31 -92
l-140 -68q-126 -63 -229 -2q-19 19 -39 29q-20 9 -42 21q-23 12 -55 12z" />
    <glyph glyph-name="adieresis" unicode="&#xe4;" 
d="M506 1309q0 -41 -27 -69t-69 -28q-66 0 -66 62q0 45 25 71t67 25q70 0 70 -61zM946 1309q0 -41 -26 -69t-70 -28q-66 0 -66 62q0 45 25 71t68 25q69 0 69 -61zM446 483q-140 0 -206 -39t-88 -161q-6 -29 -7 -54q-1 -75 49 -107t160 -32q189 0 277 56q87 56 123 194
q14 53 30 143h-338zM356 -16q-334 0 -333 239q0 119 41 191q41 73 77 104q86 72 332 72h330l6 33q16 88 16 133q0 76 -50 104t-170 29q-191 0 -270 -44q-78 -44 -93 -140h-113q29 163 149 229t303 66t276 -54q93 -53 91 -186q0 -43 -26 -195l-101 -565h-114l20 111
q-106 -127 -371 -127z" />
    <glyph glyph-name="aring" unicode="&#xe5;" 
d="M446 483q-140 0 -206 -39t-88 -161q-6 -29 -7 -54q-1 -75 49 -107t160 -32q189 0 277 56q87 56 123 194q14 53 30 143h-338zM477 1067q0 -45 26 -59q25 -14 105 -14t111 25q31 27 43 93t12 96t-26 48q-27 18 -106 18t-110 -29t-43 -97t-12 -81zM825 770q0 118 -194 119
q-146 -1 -204 -13t-90 -30q-80 -45 -95 -141h-113q17 101 86 183q23 26 71 50q83 43 115 43q-38 30 -17 159q21 128 87 178t188 50q123 0 171 -35t49 -116q0 -18 -9 -72q-23 -135 -82 -170q160 -41 160 -215q0 -43 -26 -195l-101 -565h-114l20 111q-106 -127 -371 -127
q-334 0 -333 239q0 119 41 191q41 73 77 104q86 72 332 72h330l6 33q16 85 16 147z" />
    <glyph glyph-name="ae" unicode="&#xe6;" horiz-adv-x="1785" 
d="M446 475q-142 0 -210 -36t-89 -158q-4 -18 -4 -50q-1 -73 55 -107t175 -34t193 22q132 39 184 191q21 61 41 172h-345zM1540 696q0 106 -59 150t-213 43q-154 0 -232 -72t-108 -233h602q10 65 10 112zM1653 696q0 -80 -25 -221h-721q-23 -129 -19 -214t65 -126
q60 -41 196 -41q207 0 275 86q32 39 42 99h111q-29 -166 -141 -231q-112 -64 -311 -64q-287 1 -324 180q-129 -180 -436 -180q-152 0 -246 58t-95 179t41 194q42 72 80 102q90 69 330 69h334l6 32q16 78 16 130t-26 81q-49 59 -248 59t-272 -85q-33 -39 -43 -98h-113
q49 295 459 294q279 0 330 -143q115 143 362 143q209 -1 291 -75t82 -228z" />
    <glyph glyph-name="ccedilla" unicode="&#xe7;" horiz-adv-x="1054" 
d="M473 -223q0 57 -67 57h-56l27 150q-170 16 -241 89q-70 73 -70 216t44 326t100 246q88 98 208 123q72 15 168 15q370 1 370 -239q0 -25 -6 -55h-110q4 33 4 43q0 84 -71 112t-181 29q-110 0 -179 -23t-109 -81t-58 -118t-40 -178t-22 -208q0 -91 58 -139t207 -48
q208 0 276 86q31 39 41 99h111q-29 -163 -138 -227t-276 -68l-14 -84q113 0 112 -101q0 -12 -4 -37q-25 -154 -188 -153q-76 1 -110 23t-34 75q0 10 4 39h80q-2 -10 -2 -30q1 -20 17 -28t60 -7q89 0 89 96z" />
    <glyph glyph-name="egrave" unicode="&#xe8;" 
d="M791 1108h-129l-218 258h129zM836 696q0 106 -60 150t-214 43q-154 0 -232 -74t-109 -244h602q13 70 13 125zM948 696q0 -74 -26 -233h-721q-19 -98 -19 -186q0 -87 58 -135t204 -48q205 0 276 86q32 39 42 99h110q-30 -166 -142 -231q-112 -64 -306 -64t-277 76
q-84 76 -84 237q-1 73 19 187q59 341 176 429t322 87q204 -2 286 -76t82 -228z" />
    <glyph glyph-name="eacute" unicode="&#xe9;" 
d="M836 696q0 106 -60 150t-214 43q-154 0 -232 -74t-109 -244h602q13 70 13 125zM948 696q0 -74 -26 -233h-721q-19 -98 -19 -186q0 -87 58 -135t204 -48q205 0 276 86q32 39 42 99h110q-30 -166 -142 -231q-112 -64 -306 -64t-277 76q-84 76 -84 237q-1 73 19 187
q59 341 176 429t322 87q204 -2 286 -76t82 -228zM885 1366l-305 -258h-148l307 258h146z" />
    <glyph glyph-name="ecircumflex" unicode="&#xea;" 
d="M836 696q0 106 -60 150t-214 43q-154 0 -232 -74t-109 -244h602q13 70 13 125zM948 696q0 -74 -26 -233h-721q-19 -98 -19 -186q0 -87 58 -135t204 -48q205 0 276 86q32 39 42 99h110q-30 -166 -142 -231q-112 -64 -306 -64t-277 76q-84 76 -84 237q-1 73 19 187
q59 341 176 429t322 87q204 -2 286 -76t82 -228zM928 1108h-129l-150 170l-207 -170h-145l317 258h86z" />
    <glyph glyph-name="edieresis" unicode="&#xeb;" 
d="M508 1309q0 -41 -27 -69t-69 -28q-66 0 -66 62q0 45 25 71t67 25q70 0 70 -61zM948 1309q0 -41 -26 -69t-70 -28q-66 0 -66 62q0 45 25 71t68 25q69 0 69 -61zM836 696q0 106 -60 150t-214 43q-154 0 -232 -74t-109 -244h602q13 70 13 125zM948 696q0 -74 -26 -233h-721
q-19 -98 -19 -186q0 -87 58 -135t204 -48q205 0 276 86q32 39 42 99h110q-30 -166 -142 -231q-112 -64 -306 -64t-277 76q-84 76 -84 237q-1 73 19 187q59 341 176 429t322 87q204 -2 286 -76t82 -228z" />
    <glyph glyph-name="igrave" unicode="&#xec;" horiz-adv-x="425" 
d="M485 1108h-129l-217 258h129zM330 983l-172 -983h-121l172 983h121z" />
    <glyph glyph-name="iacute" unicode="&#xed;" horiz-adv-x="425" 
d="M539 1366l-306 -258h-147l307 258h146zM330 983l-172 -983h-121l172 983h121z" />
    <glyph glyph-name="icircumflex" unicode="&#xee;" horiz-adv-x="425" 
d="M602 1108h-129l-149 170l-207 -170h-146l318 258h86zM330 983l-172 -983h-121l172 983h121z" />
    <glyph glyph-name="idieresis" unicode="&#xef;" horiz-adv-x="425" 
d="M178 1309q0 -41 -26 -69t-70 -28q-66 0 -66 62q0 45 25 71t68 25q69 0 69 -61zM618 1309q0 -41 -26 -69t-70 -28q-66 0 -65 62q0 45 24 71q25 26 68 25q69 0 69 -61zM330 983l-172 -983h-121l172 983h121z" />
    <glyph glyph-name="eth" unicode="&#xf0;" horiz-adv-x="1105" 
d="M231 146q59 -52 220 -52t251 66q37 27 64 85t39 106q45 179 45 303t-69 176t-191 54t-190 -26q-114 -46 -163 -207q-19 -61 -39 -173t-22 -171q-4 -109 55 -161zM973 694q0 -74 -23 -209q-22 -133 -50 -217t-81 -154t-142 -101q-89 -30 -226 -29q-211 0 -298 72t-90 227
q1 161 57 369q45 168 139 249q116 100 321 98q72 0 131 -12l-179 215l-141 -92l-49 78l133 86l-88 108l96 70l92 -115l144 97l51 -78l-137 -90l225 -285q68 -85 92 -149t23 -138z" />
    <glyph glyph-name="ntilde" unicode="&#xf1;" horiz-adv-x="1085" 
d="M952 756q0 -72 -30 -248l-91 -508h-120l88 496q33 180 33 246q-1 145 -216 145q-156 0 -248 -85q-88 -83 -132 -353l-80 -449h-119l174 983h115l-21 -115q117 131 320 131q145 0 236 -57t91 -186zM514 1266q-25 0 -57 -17l-150 -71l-31 92q10 6 50 25t58 27q90 46 152 46
t109 -31q20 -11 58 -35t73 -24t72 16l147 72l31 -92l-139 -68q-125 -63 -230 -2q-22 22 -41 31q-18 8 -33 16q-15 7 -29 11t-40 4z" />
    <glyph glyph-name="ograve" unicode="&#xf2;" horiz-adv-x="1107" 
d="M842 1108h-129l-217 258h129zM854 706q0 183 -234 183q-194 0 -284 -66q-37 -27 -64 -85t-38 -106q-12 -48 -32 -166t-20 -163q0 -109 56 -159t215 -50q158 0 249 66q37 27 64 86t38 105q50 209 50 355zM975 694q0 -76 -23 -210q-22 -134 -50 -216q-28 -84 -82 -154
t-143 -101q-89 -30 -226 -29q-215 0 -301 76t-87 239q0 74 23 204t50 214q66 199 228 253q89 30 226 29q211 1 298 -75t87 -230z" />
    <glyph glyph-name="oacute" unicode="&#xf3;" horiz-adv-x="1107" 
d="M854 706q0 183 -234 183q-194 0 -284 -66q-37 -27 -64 -85t-38 -106q-12 -48 -32 -166t-20 -163q0 -109 56 -159t215 -50q158 0 249 66q37 27 64 86t38 105q50 209 50 355zM975 694q0 -76 -23 -210q-22 -134 -50 -216q-28 -84 -82 -154t-143 -101q-89 -30 -226 -29
q-215 0 -301 76t-87 239q0 74 23 204t50 214q66 199 228 253q89 30 226 29q211 1 298 -75t87 -230zM858 1366l-305 -258h-147l307 258h145z" />
    <glyph glyph-name="ocircumflex" unicode="&#xf4;" horiz-adv-x="1107" 
d="M854 706q0 183 -234 183q-194 0 -284 -66q-37 -27 -64 -85t-38 -106q-12 -48 -32 -166t-20 -163q0 -109 56 -159t215 -50q158 0 249 66q37 27 64 86t38 105q50 209 50 355zM975 694q0 -76 -23 -210q-22 -134 -50 -216q-28 -84 -82 -154t-143 -101q-89 -30 -226 -29
q-215 0 -301 76t-87 239q0 74 23 204t50 214q66 199 228 253q89 30 226 29q211 1 298 -75t87 -230zM944 1108h-129l-149 170l-207 -170h-146l318 258h86z" />
    <glyph glyph-name="otilde" unicode="&#xf5;" horiz-adv-x="1107" 
d="M854 706q0 183 -234 183q-194 0 -284 -66q-37 -27 -64 -85t-38 -106q-12 -48 -32 -166t-20 -163q0 -109 56 -159t215 -50q158 0 249 66q37 27 64 86t38 105q50 209 50 355zM975 694q0 -76 -23 -210q-22 -134 -50 -216q-28 -84 -82 -154t-143 -101q-89 -30 -226 -29
q-215 0 -301 76t-87 239q0 74 23 204t50 214q66 199 228 253q89 30 226 29q211 1 298 -75t87 -230zM520 1266q-25 0 -57 -17l-150 -71l-30 92q10 6 50 25t57 27t59 28q42 18 99 18q56 0 103 -31q20 -11 58 -35t73 -24t72 16l147 72l31 -92l-139 -68q-126 -63 -229 -2
q-21 21 -41 30q-19 9 -34 17q-15 7 -29 11t-40 4z" />
    <glyph glyph-name="odieresis" unicode="&#xf6;" horiz-adv-x="1107" 
d="M522 1309q0 -41 -26 -69t-70 -28q-66 0 -66 62q0 45 25 71t68 25q69 0 69 -61zM963 1309q0 -41 -27 -69t-70 -28q-66 0 -65 62q0 45 24 71q25 26 68 25q70 0 70 -61zM854 706q0 183 -234 183q-194 0 -284 -66q-37 -27 -64 -85t-38 -106q-12 -48 -32 -166t-20 -163
q0 -109 56 -159t215 -50q158 0 249 66q37 27 64 86t38 105q50 209 50 355zM975 694q0 -76 -23 -210q-22 -134 -50 -216q-28 -84 -82 -154t-143 -101q-89 -30 -226 -29q-215 0 -301 76t-87 239q0 74 23 204t50 214q66 199 228 253q89 30 226 29q211 1 298 -75t87 -230z" />
    <glyph glyph-name="divide" unicode="&#xf7;" horiz-adv-x="1163" 
d="M664 66q0 -82 -82 -82t-82 82t82 81q82 1 82 -81zM1069 438h-975v109h975v-109zM664 918q0 -82 -82 -82t-82 82t82 81q82 1 82 -81z" />
    <glyph glyph-name="oslash" unicode="&#xf8;" horiz-adv-x="1107" 
d="M594 889q-112 0 -182 -23t-110 -83t-57 -117t-41 -181t-24 -189q0 -124 84 -169l404 756q-68 6 -74 6zM856 694q0 121 -80 162l-407 -756l77 -6q158 0 226 47q40 27 64 54q53 58 86 244q34 187 34 255zM977 690q1 -84 -21 -200q-64 -344 -185 -428t-325 -78q-45 0 -84 5
t-47 5l-104 -193l-105 39l103 185q-150 63 -148 278q0 61 25 197t53 221q69 201 229 252q89 29 226 26l129 -10l100 187l103 -39l-97 -176q150 -70 148 -271z" />
    <glyph glyph-name="ugrave" unicode="&#xf9;" 
d="M807 1108h-129l-217 258h129zM393 -16q-145 0 -236 57t-91 186q0 72 30 248l90 508h121l-88 -496q-33 -179 -33 -245q0 -146 215 -146q157 0 249 85q89 84 132 354l80 448h119l-174 -983h-115l21 115q-117 -131 -320 -131z" />
    <glyph glyph-name="uacute" unicode="&#xfa;" 
d="M393 -16q-145 0 -236 57t-91 186q0 72 30 248l90 508h121l-88 -496q-33 -179 -33 -245q0 -146 215 -146q157 0 249 85q89 84 132 354l80 448h119l-174 -983h-115l21 115q-117 -131 -320 -131zM885 1366l-305 -258h-148l307 258h146z" />
    <glyph glyph-name="ucircumflex" unicode="&#xfb;" 
d="M393 -16q-145 0 -236 57t-91 186q0 72 30 248l90 508h121l-88 -496q-33 -179 -33 -245q0 -146 215 -146q157 0 249 85q89 84 132 354l80 448h119l-174 -983h-115l21 115q-117 -131 -320 -131zM930 1108h-129l-150 170l-207 -170h-145l317 258h86z" />
    <glyph glyph-name="udieresis" unicode="&#xfc;" 
d="M508 1309q0 -41 -27 -69t-69 -28q-66 0 -66 62q0 45 25 71t67 25q70 0 70 -61zM948 1309q0 -41 -26 -69t-70 -28q-66 0 -66 62q0 45 25 71t68 25q69 0 69 -61zM393 -16q-145 0 -236 57t-91 186q0 72 30 248l90 508h121l-88 -496q-33 -179 -33 -245q0 -146 215 -146
q157 0 249 85q89 84 132 354l80 448h119l-174 -983h-115l21 115q-117 -131 -320 -131z" />
    <glyph glyph-name="yacute" unicode="&#xfd;" horiz-adv-x="931" 
d="M797 1366l-305 -258h-148l307 258h146zM948 983l-747 -1374h-125l213 391l-187 983h119l154 -840l442 840h131z" />
    <glyph glyph-name="thorn" unicode="&#xfe;" horiz-adv-x="1130" 
d="M511 98q167 0 235 90t100 268q31 178 31 259q-1 81 -47 125t-162 45q-195 0 -290 -83t-136 -310q-16 -98 -17 -158q-1 -140 59 -188t227 -48zM997 705q0 -82 -20 -197q-21 -115 -37 -177t-52 -135t-85 -114q-119 -100 -334 -99t-293 128l-88 -502h-121l320 1818h121
l-99 -563q106 135 348 135q197 0 269 -72t71 -222z" />
    <glyph glyph-name="ydieresis" unicode="&#xff;" horiz-adv-x="931" 
d="M948 983l-747 -1374h-125l213 391l-187 983h119l154 -840l442 840h131zM401 1309q-1 -41 -27 -69t-69 -28q-66 0 -65 62q0 45 24 71q25 26 68 25q69 0 69 -61zM842 1309q0 -41 -27 -69t-70 -28q-66 0 -65 62q0 45 25 71t67 25q70 0 70 -61z" />
    <glyph glyph-name="dotlessi" unicode="&#x131;" horiz-adv-x="430" 
d="M330 983l-172 -983h-121l172 983h121z" />
    <glyph glyph-name="Lslash" unicode="&#x141;" horiz-adv-x="1077" 
d="M956 111l-20 -111h-834l103 580l-131 -115l-64 74l221 192l113 635h121l-94 -530l186 159l59 -73l-272 -238l-100 -573h712z" />
    <glyph glyph-name="lslash" unicode="&#x142;" horiz-adv-x="428" 
d="M496 895l-222 -205l-120 -690h-119l104 588l-133 -121l-61 70l221 202l121 688h119l-105 -585l135 125z" />
    <glyph glyph-name="OE" unicode="&#x152;" horiz-adv-x="1867" 
d="M799 1255q-297 1 -380 -107t-145 -456q-2 -6 -24 -134t-21 -198q0 -141 78 -195t291 -54h231l201 1144h-231zM586 0q-266 0 -371 87q-104 87 -104 273q0 109 31 279t58 305t63 189q36 55 82 107q111 126 441 126h1053l-20 -111h-666l-88 -499h645l-18 -111h-645l-95 -534
h666l-21 -111h-1011z" />
    <glyph glyph-name="oe" unicode="&#x153;" horiz-adv-x="1835" 
d="M866 684q0 106 -58 156t-217 49q-159 0 -249 -65q-39 -28 -67 -85q-27 -57 -39 -107q-54 -233 -54 -337q0 -105 60 -153t219 -48q160 0 250 64q37 27 63 84q27 57 39 105q13 48 33 164t20 173zM1589 692q0 109 -58 153t-214 44t-234 -74t-108 -244h602q12 68 12 121z
M1702 700q0 -92 -27 -237h-721q-20 -121 -18 -182q2 -95 60 -141t202 -46q205 0 276 86q32 39 42 99h110q-30 -166 -142 -231t-288 -64q-319 0 -354 184q-102 -184 -383 -184q-215 0 -305 74t-91 241q0 70 23 202t52 217q71 201 233 253q90 29 229 28q322 0 356 -186
q102 186 375 186q203 1 287 -73t84 -226z" />
    <glyph glyph-name="Scaron" unicode="&#x160;" horiz-adv-x="1302" 
d="M182 893q0 37 11 98q39 219 166 304q128 85 385 85t365 -62t108 -210q0 -39 -11 -96h-114q8 56 8 90t-17 67q-31 64 -108 80q-77 17 -211 17q-228 0 -326 -58t-125 -215q-8 -43 -8 -91q-1 -48 17 -80q31 -56 135 -62q103 -6 270 -8q166 -2 238 -23q160 -45 159 -221
q0 -43 -10 -105q-39 -221 -175 -320q-137 -99 -393 -99t-366 63t-108 213q0 39 10 96h119q-8 -41 -8 -82q-1 -98 69 -137t280 -39t315 68q103 68 132 227q10 57 10 87q0 84 -34 113q-34 27 -59 32q-59 14 -138 14l-127 2q-225 4 -303 29q-156 51 -156 223zM1155 1745
l-317 -258h-86l-228 258h129l150 -170l207 170h145z" />
    <glyph glyph-name="scaron" unicode="&#x161;" horiz-adv-x="1028" 
d="M958 1366l-317 -258h-86l-227 258h129l149 -170l207 170h145zM404 561q39 0 68 -2q30 -2 72 -4t92 -5t73 -9q117 -31 137 -108q8 -33 8 -71t-8 -81q-31 -169 -131 -233t-299 -64t-291 52t-92 173q0 33 6 70h111q-4 -18 -5 -50q-1 -75 57 -105t212 -30t237 50
q82 50 82 200q0 60 -52 78t-202 18q-193 6 -250 27q-104 39 -106 158q0 43 8 86q31 168 128 228t316 60q353 0 353 -219q0 -35 -6 -75h-111q4 18 4 49q0 74 -53 104q-54 30 -158 31q-104 0 -156 -7t-103 -29q-50 -22 -75 -69q-24 -47 -24 -103t11 -75q26 -45 147 -45z" />
    <glyph glyph-name="Ydieresis" unicode="&#x178;" horiz-adv-x="1075" 
d="M578 1704q0 -41 -27 -69t-70 -27q-66 0 -65 61q0 45 24 71q25 26 68 25q70 0 70 -61zM1018 1704q0 -41 -27 -69t-69 -27q-66 0 -66 61q0 45 25 71t67 25q70 0 70 -61zM1192 1366l-608 -766l-107 -600h-121l107 600l-338 766h131l283 -649l512 649h141z" />
    <glyph glyph-name="Zcaron" unicode="&#x17d;" horiz-adv-x="1226" 
d="M1212 1366l-20 -111l-1012 -1144h811l-20 -111h-957l21 109l1012 1146h-811l20 111h956zM1110 1745l-317 -258h-86l-228 258h129l150 -170l207 170h145z" />
    <glyph glyph-name="zcaron" unicode="&#x17e;" horiz-adv-x="970" 
d="M881 1366l-318 -258h-86l-227 258h129l149 -170l207 170h146zM924 983l-17 -96l-743 -776h608l-20 -111h-775l17 96l747 781h-612l21 106h774z" />
    <glyph glyph-name="florin" unicode="&#x192;" horiz-adv-x="1150" 
d="M1116 1174q0 -48 -6 -103h-115q6 31 6 57q0 86 -59 114q-58 28 -156 28t-153 -8t-93 -33t-61 -45q-39 -34 -61 -145l-56 -302h596l-18 -108h-596l-180 -1020h-121l180 1020h-114l18 108h115l37 201q33 178 65 244q96 199 399 198q202 0 284 -50q37 -22 63 -65t26 -91z
" />
    <glyph glyph-name="circumflex" unicode="&#x2c6;" horiz-adv-x="849" 
d="M817 1108h-129l-149 170l-207 -170h-146l318 258h86z" />
    <glyph glyph-name="caron" unicode="&#x2c7;" horiz-adv-x="847" 
d="M860 1366l-317 -258h-86l-228 258h129l150 -170l207 170h145z" />
    <glyph glyph-name="breve" unicode="&#x2d8;" horiz-adv-x="849" 
d="M510 1110q-143 0 -201 41q-57 41 -55 135q0 41 8 80h113q-8 -53 -8 -68q1 -51 33 -67q32 -17 130 -17t136 28q37 28 53 124h112q-25 -145 -101 -201q-77 -55 -220 -55z" />
    <glyph glyph-name="dotaccent" unicode="&#x2d9;" horiz-adv-x="847" 
d="M612 1309q0 -41 -26 -69t-70 -28q-66 0 -65 62q0 45 24 71q25 26 68 25q69 0 69 -61z" />
    <glyph glyph-name="ring" unicode="&#x2da;" horiz-adv-x="849" 
d="M516 1139q72 -1 98 27t38 92t12 96q0 30 -23 44t-95 15q-72 0 -101 -27q-28 -27 -39 -87t-11 -96t24 -50q25 -14 97 -14zM754 1352q0 -37 -6 -72q-23 -127 -74 -178q-52 -51 -164 -51t-160 36q-47 37 -47 119q0 33 8 74q23 123 75 172t162 49q110 -1 158 -35t48 -114z
" />
    <glyph glyph-name="ogonek" unicode="&#x2db;" horiz-adv-x="860" 
d="M400 -391q-82 0 -112 30t-30 71t8 93q20 115 66 156t153 41l-12 -72q-70 0 -89 -22q-18 -22 -30 -82q-12 -62 -12 -94q2 -49 60 -49t73 11q16 11 25 50h82q-12 -74 -56 -104t-126 -29z" />
    <glyph glyph-name="tilde" unicode="&#x2dc;" horiz-adv-x="849" 
d="M391 1266q-25 0 -57 -17l-150 -71l-30 92q10 6 50 25t57 27t59 28q42 18 99 18q56 0 103 -31q20 -11 58 -35t73 -24t72 16l147 72l31 -92l-139 -68q-126 -63 -229 -2q-21 21 -41 30q-19 9 -34 17q-16 7 -30 11t-39 4z" />
    <glyph glyph-name="hungarumlaut" unicode="&#x2dd;" horiz-adv-x="849" 
d="M598 1366l-387 -313h-148l388 313h147zM973 1366l-387 -313h-144l383 313h148z" />
    <glyph glyph-name="pi" unicode="&#x3c0;" horiz-adv-x="1488" 
d="M254 414v952h948v-106l-770 4l803 -801l-78 -78l-801 801l4 -772h-106z" />
    <glyph glyph-name="endash" unicode="&#x2013;" horiz-adv-x="1150" 
d="M1063 547l-19 -109h-1024l19 109h1024z" />
    <glyph glyph-name="emdash" unicode="&#x2014;" horiz-adv-x="2048" 
d="M1819 547l-19 -109h-1638l18 109h1639z" />
    <glyph glyph-name="quoteleft" unicode="&#x2018;" horiz-adv-x="425" 
d="M498 1309q-116 -87 -125 -107l-13 -25q-12 -25 -20 -79l-29 -166h-108l28 166q14 88 41 137t90 96l72 53z" />
    <glyph glyph-name="quoteright" unicode="&#x2019;" horiz-adv-x="425" 
d="M395 1366l-28 -166q-14 -88 -41 -137t-90 -96l-72 -54l-64 76q116 87 125 107l13 25q12 25 20 79l29 166h108z" />
    <glyph glyph-name="quotesinglbase" unicode="&#x201a;" horiz-adv-x="425" 
d="M168 143l-29 -166q-14 -88 -41 -137t-90 -96l-71 -53l-64 76q16 11 45 33q68 50 78 70q26 49 35 107l28 166h109z" />
    <glyph glyph-name="quotedblleft" unicode="&#x201c;" horiz-adv-x="759" 
d="M498 1309q-116 -87 -125 -107l-13 -25q-12 -25 -20 -79l-29 -166h-108l28 166q14 88 41 137t90 96l72 53zM829 1309q-71 -54 -79 -61t-24 -22q-16 -16 -21 -24t-15 -29t-18 -75l-29 -166h-108l28 166q14 88 41 137t90 96l72 53z" />
    <glyph glyph-name="quotedblright" unicode="&#x201d;" horiz-adv-x="757" 
d="M395 1366l-28 -166q-14 -88 -41 -137t-90 -96l-72 -54l-64 76q116 87 125 107l13 25q12 25 20 79l29 166h108zM727 1366l-29 -166q-14 -88 -41 -137t-90 -96l-71 -54l-64 76q116 87 125 107q25 50 33 104l28 166h109z" />
    <glyph glyph-name="quotedblbase" unicode="&#x201e;" horiz-adv-x="757" 
d="M168 143l-29 -166q-14 -88 -41 -137t-90 -96l-71 -53l-64 76q16 11 45 33q68 50 78 70q26 49 35 107l28 166h109zM500 143l-29 -166q-14 -88 -41 -137t-90 -96l-72 -53l-63 76q16 11 45 33t51 41t27 29q25 47 34 107l29 166h109z" />
    <glyph glyph-name="dagger" unicode="&#x2020;" horiz-adv-x="1153" 
d="M997 983l-20 -106h-307l-187 -1063h-116l188 1063h-307l20 106h307l66 383h117l-68 -383h307z" />
    <glyph glyph-name="daggerdbl" unicode="&#x2021;" horiz-adv-x="1148" 
d="M997 983l-20 -106h-307l-66 -365h305l-18 -106h-305l-103 -592h-116l104 592h-307l18 106h307l66 365h-307l20 106h307l66 383h117l-68 -383h307z" />
    <glyph glyph-name="bullet" unicode="&#x2022;" horiz-adv-x="1026" 
d="M488 494q-94 0 -133 32q-40 32 -40 101q0 27 7 57q18 100 71 146t154 47q162 0 164 -125q0 -31 -6 -68q-19 -100 -71 -145t-146 -45z" />
    <glyph glyph-name="ellipsis" unicode="&#x2026;" horiz-adv-x="2048" 
d="M426 88q0 -47 -26 -76t-72 -28q-70 0 -70 59q0 47 26 76t72 28q70 0 70 -59zM1108 88q0 -47 -26 -76t-72 -28q-70 0 -70 59q0 47 27 76t71 28q70 0 70 -59zM1792 88q0 -47 -26 -76t-72 -28q-70 0 -70 59q0 47 26 76t72 28q70 0 70 -59z" />
    <glyph glyph-name="perthousand" unicode="&#x2030;" horiz-adv-x="2433" 
d="M676 1180q0 61 -34 83t-103 21q-127 0 -164 -78q-17 -37 -51 -215t-34 -238t32 -82q31 -22 104 -22q127 0 166 80q20 43 52 217t32 234zM1475 608q0 61 -34 83t-104 22q-127 0 -163 -78q-18 -37 -52 -215t-32 -239q0 -60 30 -82t105 -21q127 0 166 80q20 43 52 216
t32 234zM2144 608q0 61 -34 83t-103 22q-127 0 -164 -78q-18 -37 -51 -215t-33 -239q0 -60 31 -82t104 -21q127 0 166 80q20 43 52 216t32 234zM778 1174q0 -70 -22 -191t-30 -170q-7 -49 -19 -76q-13 -28 -26 -57t-45 -60q-68 -65 -206 -65q-139 0 -190 56q-52 56 -52 140
t16 161t29 172q14 95 43 156q29 60 55 77q26 19 66 41t142 22q239 1 239 -206zM1413 1366l-932 -1366h-108l930 1366h110zM1577 602q1 -52 -15 -140q-28 -158 -36 -212q-8 -55 -20 -84q-13 -28 -26 -57t-44 -59q-68 -66 -207 -66t-191 56q-51 56 -51 163q-1 61 15 137
t25 140q9 63 22 113q12 51 38 96q25 45 47 60q64 44 110 52t93 8q240 0 240 -207zM2247 602q1 -52 -15 -140t-23 -130t-10 -63q-3 -22 -13 -62t-30 -84q-42 -90 -113 -114q-71 -25 -149 -25q-135 0 -186 56t-51 163q0 61 15 137t31 178q16 101 31 129q15 27 31 57t38 45
q64 44 111 52q46 8 93 8q240 0 240 -207z" />
    <glyph glyph-name="guilsinglleft" unicode="&#x2039;" horiz-adv-x="528" 
d="M170 464q0 -89 50 -162t82 -110t36 -45l-82 -69q-2 4 -35 42t-41 49t-35 46t-35 55q-9 20 -31 63t-22 114t50 149t101 129q144 140 198 180l67 -84q-14 -12 -67 -55q-236 -191 -236 -302z" />
    <glyph glyph-name="guilsinglright" unicode="&#x203a;" horiz-adv-x="528" 
d="M401 543q0 -49 -10 -87q-13 -49 -67 -126q-54 -76 -155 -160t-110 -92l-69 82q14 12 66 53q169 133 212 221q20 41 20 87t-36 117q-38 72 -60 100t-75 96l84 71q1 -2 33 -42t40 -52t36 -49t38 -59t32 -66t21 -94z" />
    <glyph glyph-name="fraction" unicode="&#x2044;" horiz-adv-x="577" 
d="M809 1366l-932 -1366h-108l929 1366h111z" />
    <glyph glyph-name="trademark" unicode="&#x2122;" horiz-adv-x="1734" 
d="M799 1366l-15 -90h-266l-141 -801h-105l142 801h-269l15 90h639zM1731 1366l-156 -891h-96l125 709l-400 -709h-108l-148 707l-123 -707h-98l156 891h123l161 -764l432 764h132z" />
    <glyph glyph-name="Omega" unicode="&#x2126;" horiz-adv-x="1488" 
d="M1202 0h-948v952h106l-4 -772l801 801l78 -78l-803 -801l770 4v-106z" />
    <glyph glyph-name="partialdiff" unicode="&#x2202;" horiz-adv-x="1298" 
d="M444 -397q-135 0 -219 52t-84 159q0 14 4 43h115l-2 -27q4 -121 186 -121q232 0 269 244l180 1030h119l-189 -1077q-53 -303 -379 -303zM950 1274q0 -35 -4 -55h-117q2 10 2 30q0 80 -186 80q-115 0 -171 -38t-75 -142l-30 -166h428l-19 -106h-430l-153 -877h-119
l153 877h-166l21 106h166l31 168q29 155 115 223t245 68q309 0 309 -168z" />
    <glyph glyph-name="Delta" unicode="&#x2206;" horiz-adv-x="1486" 
d="M1411 616h-1130l546 -540l-77 -78l-674 672l674 673l77 -77l-546 -539h1130v-111z" />
    <glyph glyph-name="product" unicode="&#x220f;" horiz-adv-x="1488" 
d="M1235 414h-107l5 772l-801 -801l-78 78l803 801l-770 -4v106h948v-952z" />
    <glyph glyph-name="summation" unicode="&#x2211;" horiz-adv-x="901" 
 />
    <glyph glyph-name="minus" unicode="&#x2212;" horiz-adv-x="1159" 
d="M1067 438h-975v109h975v-109z" />
    <glyph glyph-name="radical" unicode="&#x221a;" horiz-adv-x="1484" 
d="M688 1335h111v-1130l538 547l78 -78l-674 -674l-671 674l77 78l541 -547v1130z" />
    <glyph glyph-name="infinity" unicode="&#x221e;" horiz-adv-x="1492" 
d="M803 0h-111v1130l-540 -546l-78 78l671 673l674 -673l-78 -78l-538 546v-1130z" />
    <glyph glyph-name="integral" unicode="&#x222b;" horiz-adv-x="1488" 
d="M1235 0h-948v106l770 -4l-803 801l78 78l801 -801l-5 772h107v-952z" />
    <glyph glyph-name="approxequal" unicode="&#x2248;" horiz-adv-x="1163" 
d="M926 211q-76 -53 -167 -53t-160 54q-70 54 -85 61q-14 7 -40 21t-77 15q-51 0 -100 -35l-160 -112l-63 96l166 119q76 53 164 53t151 -45q23 -11 59 -41q74 -63 138 -63q65 0 114 34l162 111l62 -96zM926 608q-76 -53 -169 -53t-172 65q-17 13 -25 18t-40 28
q-33 23 -65 31t-71 9q-38 1 -87 -34l-160 -113l-63 96l166 119q76 53 164 53t151 -45q23 -12 59 -42q74 -62 138 -62q65 0 114 35l162 110l62 -96z" />
    <glyph glyph-name="notequal" unicode="&#x2260;" horiz-adv-x="1161" 
d="M1067 242h-670l-229 -222l-76 76l154 146h-154v108h264l297 287h-561v108h674l225 218l76 -76l-149 -142h149v-108h-260l-297 -287h557v-108z" />
    <glyph glyph-name="lessequal" unicode="&#x2264;" horiz-adv-x="1163" 
d="M1094 -109h-1024v109h1024v-109zM1090 213l-43 -107l-957 386v110l957 381l43 -106l-861 -328z" />
    <glyph glyph-name="greaterequal" unicode="&#x2265;" horiz-adv-x="1163" 
d="M1094 -109h-1024v109h1024v-109zM1073 492l-956 -386l-43 107l860 336l-860 328l43 106l956 -381v-110z" />
    <glyph glyph-name="lozenge" unicode="&#x25ca;" horiz-adv-x="1486" 
d="M76 616v111h1130l-547 539l78 77l674 -673l-674 -672l-78 78l547 540h-1130z" />
    <glyph glyph-name="CR" unicode="&#xe000;" horiz-adv-x="1024" 
 />
    <glyph glyph-name="DC1" unicode="&#xe001;" horiz-adv-x="1024" 
 />
    <glyph glyph-name="DC2" unicode="&#xe002;" horiz-adv-x="1024" 
 />
    <glyph glyph-name="DC3" unicode="&#xe003;" horiz-adv-x="1024" 
 />
    <glyph glyph-name="DC4" unicode="&#xe004;" horiz-adv-x="1024" 
 />
    <glyph glyph-name="DEL" unicode="&#xe005;" horiz-adv-x="1024" 
 />
    <glyph glyph-name="DLE" unicode="&#xe006;" horiz-adv-x="1024" 
 />
    <glyph glyph-name="HT" unicode="&#xe007;" horiz-adv-x="1024" 
 />
    <glyph glyph-name="LF" unicode="&#xe008;" horiz-adv-x="1024" 
 />
    <glyph glyph-name="NUL" unicode="&#xe009;" horiz-adv-x="1024" 
 />
    <glyph glyph-name="RS" unicode="&#xe00a;" horiz-adv-x="1024" 
 />
    <glyph glyph-name="US" unicode="&#xe00b;" horiz-adv-x="1024" 
 />
    <glyph glyph-name="apple" unicode="&#xe00c;" horiz-adv-x="1703" 
d="M1423 690q-1 210 -27 314t-87 161q-109 107 -461 107t-461 -107q-65 -63 -87 -156t-22 -317t26 -325q24 -103 82 -159t177 -85v520h-127v102h127v105q0 291 322 291q166 0 248 -66t84 -207h-115q-2 88 -52 126t-158 38t-160 -41t-52 -141v-105h444v-102h-444v-541
q80 -8 168 -8q344 0 461 113q61 57 87 165t27 318zM1540 685q0 -228 -36 -353t-116 -203t-207 -111q-128 -32 -333 -32t-333 32q-257 65 -320 313q-33 126 -33 357t33 355q65 245 319 307q127 30 334 30t334 -30q252 -62 322 -311q36 -126 36 -354z" />
    <glyph glyph-name="nbspace" unicode="&#xe00d;" horiz-adv-x="575" 
 />
    </font>
</defs>
</svg>
