<?xml version="1.0" standalone="no"?>
<!DOCTYPE svg PUBLIC "-//W3C//DTD SVG 1.1//EN" "http://www.w3.org/Graphics/SVG/1.1/DTD/svg11.dtd" >
<svg xmlns="http://www.w3.org/2000/svg">
<metadata>
Created by FontPrep 20130207 at Wed Apr  9 16:24:00 2014
 By Thomas Tau
he digitally encoded machine readable outline data for producing the typefaces licensed to you is copyrighted , 2000 by The Foundry, London. All Rights Reserved.
</metadata>
<defs>
<font id="10d035af9fe7c56e291b00b0188e614d" horiz-adv-x='1024' >
  <font-face 
    font-family="FoundryMonoline-Bold"
    font-weight="700"
    font-stretch="normal"
    units-per-em="2048"
    panose-1="2 0 8 3 3 0 0 2 0 4"
    ascent="1487"
    descent="-561"
    x-height="999"
    cap-height="1366"
    bbox="-395 -666 2335 1765.03"
    underline-thickness="102"
    underline-position="-102"
    unicode-range="U+0020-FB02"
  />
<missing-glyph 
 />
    <glyph glyph-name="fi" unicode="fi" horiz-adv-x="1155" 
d="M915 1202h-219q-6 57 -135 58q-79 0 -105 -26q-12 -11 -20 -17q-8 -7 -13 -23t-9 -25t-4 -33v-137h323v-192h-317v-807h-232v807h-159v192h159v101q0 344 387 344q344 0 344 -242zM1026 0h-231v999h231v-999z" />
    <glyph glyph-name="fl" unicode="fl" horiz-adv-x="1376" 
d="M915 1202h-219q-6 57 -135 58q-79 0 -105 -26q-12 -11 -20 -17q-8 -7 -13 -23t-9 -25t-4 -33v-137h344v-192h-338v-807h-232v807h-159v192h159v101q0 344 387 344q344 0 344 -242zM1249 0h-231v1427h231v-1427z" />
    <glyph glyph-name=".notdef" 
 />
    <glyph glyph-name=".null" horiz-adv-x="0" 
 />
    <glyph glyph-name="nonmarkingreturn" horiz-adv-x="681" 
 />
    <glyph glyph-name="space" unicode=" " horiz-adv-x="460" 
 />
    <glyph glyph-name="exclam" unicode="!" horiz-adv-x="610" 
d="M305 270q141 0 141 -143t-141 -143t-141 143t141 143zM416 389h-226v977h226v-977z" />
    <glyph glyph-name="quotedbl" unicode="&#x22;" horiz-adv-x="983" 
d="M416 922h-217v444h217v-444zM784 922h-217v444h217v-444z" />
    <glyph glyph-name="numbersign" unicode="#" horiz-adv-x="1232" 
d="M758 807h-228l-55 -195h227zM1194 807h-215l-55 -195h170v-192h-222l-116 -420h-219l116 420h-229l-117 -420h-219l117 420h-166v192h215l55 195h-170v192h223l117 422h219l-118 -422h231l117 422h198l-98 -422h166v-192z" />
    <glyph glyph-name="dollar" unicode="$" horiz-adv-x="1189" 
d="M129 987q0 187 90 273t266 104v197h205v-195q174 -14 266 -87t93 -243h-234q0 74 -49 103t-179 29t-176 -42q-46 -41 -46 -145q0 -54 14 -76q14 -21 21 -33q8 -12 26 -20t28 -13q16 -8 70 -15t72 -7q227 -20 295 -47q127 -49 158 -203q14 -65 14 -159q0 -201 -90 -295
t-283 -113v-203h-205v201q-174 12 -269 84t-95 240h233q0 -74 54 -104t192 -30q137 0 182 48t45 164t-48 149t-197 45h-11l-121 12q-110 12 -154 36q-101 53 -128 120q-39 95 -39 225z" />
    <glyph glyph-name="percent" unicode="%" horiz-adv-x="1769" 
d="M565 980q1 156 -23 206q-24 49 -112 49q-88 1 -106 -29q-8 -12 -20 -50t-13 -199q1 -162 25 -210q24 -49 98 -49t97 16q24 16 39 64q15 46 15 202zM1481 408q0 156 -24 206t-110 50t-108 -30q-8 -11 -20 -49q-13 -38 -13 -200t24 -210t98 -48t98 16q24 17 40 63t15 202z
M131 919v68q0 184 27 253q54 140 255 140q171 0 246 -77q29 -31 44 -93q20 -82 20 -188v-53q0 -7 -7 -145t-74 -204q-68 -66 -218 -65q-150 0 -230 80q-63 65 -63 284zM1358 1366l-772 -1366h-174l770 1366h176zM1047 348v68q0 182 16 224q37 97 90 127q77 42 175 42
q171 0 247 -78q29 -31 44 -92q19 -77 19 -189v-53q0 -6 -7 -144t-73 -204q-66 -65 -218 -65t-231 79q-62 64 -62 285z" />
    <glyph glyph-name="ampersand" unicode="&#x26;" horiz-adv-x="1265" 
d="M872 471v119h-299q-145 0 -190 -36t-45 -160t60 -163t217 -39t207 62q50 61 50 217zM1212 590h-118v-119q0 -137 -20 -224t-91 -153q-119 -111 -381 -110q-127 0 -210 15q-82 15 -150 57q-132 82 -131 327q0 119 26 196q27 77 111 113q-78 35 -102 114t-23 200
q1 206 109 290t341 84q328 0 413 -174q34 -70 34 -170h-227q1 78 -47 106t-180 28t-174 -42q-42 -41 -42 -146t48 -142t175 -37h299v104h222v-104h118v-213z" />
    <glyph glyph-name="quotesingle" unicode="'" horiz-adv-x="614" 
d="M416 922h-217v444h217v-444z" />
    <glyph glyph-name="parenleft" unicode="(" horiz-adv-x="749" 
d="M698 -391q-227 0 -344 57t-161 201q-66 213 -66 763t66 763q45 143 161 200q117 57 344 58v-205q-183 0 -242 -57q-30 -29 -46 -74q-56 -147 -56 -685t56 -685q33 -92 119 -114q68 -17 169 -17v-205z" />
    <glyph glyph-name="parenright" unicode=")" horiz-adv-x="749" 
d="M623 630q0 -550 -66 -763q-45 -143 -162 -201t-344 -57v205q184 0 243 57q30 29 46 74q55 147 55 685t-55 685q-33 93 -113 112q-79 19 -176 19v205q227 1 344 -57t162 -201q66 -213 66 -763z" />
    <glyph glyph-name="asterisk" unicode="*" horiz-adv-x="1085" 
d="M442 1366h199v-342l346 104l66 -180l-348 -106l210 -275l-159 -110l-215 274l-211 -274l-162 110l213 275l-348 106l63 180l346 -104v342z" />
    <glyph glyph-name="plus" unicode="+" horiz-adv-x="1232" 
d="M1165 395h-450v-395h-203v395h-444v209h446v395h201v-395h450v-209z" />
    <glyph glyph-name="comma" unicode="," horiz-adv-x="493" 
d="M358 57q0 -94 -20 -157t-78 -121l-90 -88l-150 137l30 30q22 22 38 37t32 44q23 46 23 118v217h215v-217z" />
    <glyph glyph-name="hyphen" unicode="-" horiz-adv-x="1105" 
d="M973 395h-840v209h840v-209z" />
    <glyph glyph-name="period" unicode="." horiz-adv-x="495" 
d="M248 -16q-142 0 -142 143t142 143t141 -143q0 -143 -141 -143z" />
    <glyph glyph-name="slash" unicode="/" horiz-adv-x="1091" 
d="M1061 1606l-811 -1837h-219l811 1837h219z" />
    <glyph glyph-name="zero" unicode="0" horiz-adv-x="1171" 
d="M825 682q0 298 -20 364q-21 66 -67 95t-152 29t-154 -30q-46 -30 -66 -96t-20 -362q0 -298 20 -364t67 -95t153 -29t152 30q46 28 66 94t21 364zM113 811q0 152 18 250q47 229 248 293q88 26 216 26t222 -40t141 -89t71 -152t27 -170t3 -150v-237q0 -129 -17 -227
t-38 -131q-21 -34 -47 -70q-27 -36 -61 -56t-79 -38q-82 -35 -227 -36q-274 0 -377 133q-50 62 -66 123t-23 106t-8 91t-3 95t-1 88t1 191z" />
    <glyph glyph-name="one" unicode="1" horiz-adv-x="1011" 
d="M979 0h-862v207h313v864l-211 -203l-145 158l377 340h211v-1159h317v-207z" />
    <glyph glyph-name="two" unicode="2" horiz-adv-x="1136" 
d="M1024 969q0 -115 -26 -190t-100 -124t-122 -67q-49 -18 -126 -40l-91 -26q-147 -41 -183 -78t-36 -143v-94h682v-207h-916v338q0 156 82 248q67 71 203 110l126 36q77 22 145 46t99 62q32 40 32 144t-44 146q-43 42 -177 41t-182 -29t-48 -106h-229q0 202 125 273t346 71
q220 0 330 -91t110 -320z" />
    <glyph glyph-name="three" unicode="3" horiz-adv-x="1173" 
d="M1036 420q0 -250 -114 -343t-357 -93q-341 0 -429 173q-36 71 -36 171h232q0 -74 52 -104t184 -30t185 42q52 40 52 170t-39 163t-201 33h-192v209h192q135 0 181 33q46 32 46 144t-41 148q-43 36 -179 36t-188 -32q-52 -30 -52 -104h-232q0 204 140 278q125 66 347 66
q221 0 329 -82t108 -301q0 -115 -22 -179t-101 -99q83 -37 109 -109t26 -190z" />
    <glyph glyph-name="four" unicode="4" horiz-adv-x="1163" 
d="M670 551v502l-344 -502h344zM1081 344h-194v-344h-217v344h-590v195l588 827h219v-815h194v-207z" />
    <glyph glyph-name="five" unicode="5" horiz-adv-x="1173" 
d="M1049 448q0 -258 -115 -361q-114 -103 -340 -103t-344 76t-119 268h227q0 -78 45 -106t180 -28t185 48q49 48 49 198t-38 203t-174 53t-184 -36t-48 -107h-226v813h859v-209h-635v-321q70 70 231 69q254 1 350 -99t97 -358z" />
    <glyph glyph-name="six" unicode="6" horiz-adv-x="1163" 
d="M819 448q0 150 -43 199t-172 49t-190 -58q-62 -58 -62 -194t54 -192t184 -57q131 0 180 51q49 52 49 202zM1051 442q0 -459 -461 -458q-158 0 -272 61t-160 180t-45 417q0 298 24 435q57 303 459 303q428 0 428 -344h-227q0 74 -46 105q-47 31 -141 31t-143 -16
q-49 -15 -74 -57t-35 -99t-10 -166q98 72 250 71q244 -1 348 -103t105 -360z" />
    <glyph glyph-name="seven" unicode="7" horiz-adv-x="993" 
d="M35 1157v209h923v-199l-598 -1167h-254l599 1157h-670z" />
    <glyph glyph-name="eight" unicode="8" horiz-adv-x="1171" 
d="M827 397q0 125 -53 164t-188 39q-134 0 -188 -39t-54 -164t53 -164t189 -39t188 40q53 38 53 163zM817 989q0 107 -47 145t-184 38t-185 -38q-47 -38 -47 -144t46 -144q46 -37 186 -37t185 37q46 37 46 143zM1059 383q0 -243 -128 -321t-352 -78t-346 84
q-121 84 -120 313q0 125 26 208q27 83 109 120q-78 35 -101 109t-22 198q-1 204 109 284t352 80t352 -81t109 -283q0 -123 -23 -198t-100 -109q82 -37 108 -120t27 -206z" />
    <glyph glyph-name="nine" unicode="9" horiz-adv-x="1163" 
d="M811 920q0 136 -53 192q-52 56 -184 57q-132 0 -181 -51q-49 -52 -49 -202t43 -199t172 -49t191 58q61 58 61 194zM1051 722q0 -298 -25 -435q-57 -303 -459 -303q-428 0 -428 344h228q0 -74 46 -105t140 -31t143 16q49 15 74 57t35 99t10 166q-98 -72 -250 -71
q-244 0 -348 102t-104 361q0 459 460 458q158 0 272 -61t160 -180t46 -417z" />
    <glyph glyph-name="colon" unicode=":" horiz-adv-x="493" 
d="M246 -16q-142 0 -142 143t142 143t141 -143q0 -143 -141 -143zM387 872q0 -143 -141 -143q-142 0 -142 143t142 144q141 -1 141 -144z" />
    <glyph glyph-name="semicolon" unicode=";" horiz-adv-x="493" 
d="M358 57q0 -94 -20 -157t-78 -121l-90 -88l-150 137l30 30q22 22 38 37t32 44q23 46 23 118v217h215v-217zM397 872q0 -143 -141 -143t-141 143t141 144q141 -1 141 -144z" />
    <glyph glyph-name="less" unicode="&#x3c;" horiz-adv-x="1212" 
d="M1155 201l-78 -201l-1020 401v197l1018 401l80 -202l-793 -297z" />
    <glyph glyph-name="equal" unicode="=" horiz-adv-x="1212" 
d="M1155 221h-1098v209h1098v-209zM1155 580h-1098v208h1098v-208z" />
    <glyph glyph-name="greater" unicode="&#x3e;" horiz-adv-x="1212" 
d="M1155 401l-1018 -401l-80 203l793 297l-793 299l78 200l1020 -401v-197z" />
    <glyph glyph-name="question" unicode="?" horiz-adv-x="950" 
d="M580 127q0 -143 -142 -143t-141 143q-1 143 141 143t142 -143zM907 1026q0 -232 -172 -332q-33 -18 -73 -38t-56 -29q-14 -7 -30 -27t-20 -47q-3 -27 -3 -78v-86h-234v119q0 193 99 276q40 35 114 65q74 29 110 67t36 132t-41 141q-41 46 -164 46t-167 -46t-44 -153h-225
q0 225 110 315q111 89 327 89t325 -91q108 -91 108 -323z" />
    <glyph glyph-name="at" unicode="@" horiz-adv-x="1558" 
d="M987 635q0 164 -52 222t-180 58t-160 -61t-32 -220t32 -218q32 -60 160 -60t180 58t52 221zM767 211q-242 0 -306 128q-33 65 -43 129t-10 194q0 235 84 318t242 83q157 0 253 -78v64h139v-684q154 0 154 426q0 151 -23 237q-43 162 -236 194q-85 13 -211 13
q-324 0 -413 -97q-35 -38 -57 -79q-52 -96 -53 -439q0 -344 46 -430q60 -111 146 -141q125 -41 304 -41q177 0 287 31t171 131l33 -18q31 -18 61 -37l33 -19q-59 -102 -171 -157t-201 -65t-226 -11q-292 0 -419 80q-73 45 -115 100t-67 153q-24 98 -31 196t-7 284t24 316
q52 282 291 353q124 35 306 35t283 -14q230 -32 311 -165t81 -458t-110 -432q-59 -55 -133 -72t-195 -16v64q-96 -76 -222 -76z" />
    <glyph glyph-name="A" unicode="A" horiz-adv-x="1333" 
d="M852 557l-190 541l-193 -541h383zM1317 0h-264l-127 348h-533l-125 -348h-252l529 1366h248z" />
    <glyph glyph-name="B" unicode="B" horiz-adv-x="1343" 
d="M969 391q0 121 -41 158q-20 18 -36 25q-42 18 -253 18h-244v-375h244q209 0 256 21q74 32 74 153zM958 979q0 94 -50 136q-40 36 -221 36h-292v-346h248q168 0 217 16q98 33 98 158zM1210 406q0 -211 -100 -304q-25 -22 -99 -64q-22 -10 -60 -18t-62 -14t-213 -6h-520
v1366h427q167 0 259 -2t138 -20q122 -45 160 -102q56 -84 60 -220q4 -262 -127 -317q81 -37 109 -111t28 -188z" />
    <glyph glyph-name="C" unicode="C" horiz-adv-x="1343" 
d="M1221 983h-238q0 104 -59 141t-248 37t-246 -90t-57 -389t56 -388q55 -89 245 -89t249 36q58 36 58 140h238q0 -219 -130 -308t-382 -89q-169 0 -304 42q-80 24 -172 119q-43 46 -71 159q-29 114 -29 284q0 346 12 402q32 146 58 183q27 39 57 75t74 56q43 20 119 48
t258 28q252 0 382 -89t130 -308z" />
    <glyph glyph-name="D" unicode="D" horiz-adv-x="1382" 
d="M649 1151h-256v-934h258q146 -1 204 17t80 47q57 75 66 180q9 106 9 282t-26 245q-26 70 -50 98q-41 51 -162 62q-43 3 -123 3zM1251 681q0 -206 -17 -312q-17 -105 -80 -197q-64 -92 -178 -132t-312 -40h-508v1366h506q200 0 314 -40t185 -146q53 -78 71 -186t19 -313z
" />
    <glyph glyph-name="E" unicode="E" horiz-adv-x="1218" 
d="M1096 0h-940v1366h940v-215h-703v-346h682v-213h-682v-375h703v-217z" />
    <glyph glyph-name="F" unicode="F" horiz-adv-x="1185" 
d="M1075 1151h-678v-346h660v-213h-660v-592h-241v1366h919v-215z" />
    <glyph glyph-name="G" unicode="G" horiz-adv-x="1390" 
d="M1239 0h-190v102q-123 -119 -390 -118q-154 0 -258 41t-156 93t-79 162t-31 184t-4 272t12 254q32 146 58 183q27 39 57 75t74 56q43 20 119 48t258 28q250 0 389 -89t139 -308h-240q0 102 -66 140q-67 38 -255 38t-246 -90q-57 -90 -57 -389q0 -156 10 -241
q21 -180 135 -218q58 -18 144 -18q224 0 278 75q23 30 36 56q30 59 30 262h-336v209h569v-807z" />
    <glyph glyph-name="H" unicode="H" horiz-adv-x="1351" 
d="M1196 0h-242v590h-557v-590h-241v1366h241v-559h557v559h242v-1366z" />
    <glyph glyph-name="I" unicode="I" horiz-adv-x="552" 
d="M397 0h-241v1366h241v-1366z" />
    <glyph glyph-name="J" unicode="J" horiz-adv-x="1122" 
d="M975 446q0 -135 -6 -172q-49 -291 -451 -290q-219 0 -338 88t-119 309h234q0 -111 51 -145q50 -34 150 -35q100 0 145 12q76 20 88 120q4 34 4 109v924h242v-920z" />
    <glyph glyph-name="K" unicode="K" horiz-adv-x="1314" 
d="M397 0h-241v1366h241v-553l578 553h325l-727 -678l734 -688h-353l-557 549v-549z" />
    <glyph glyph-name="L" unicode="L" horiz-adv-x="1087" 
d="M1075 0h-919v1366h241v-1149h678v-217z" />
    <glyph glyph-name="M" unicode="M" horiz-adv-x="1687" 
d="M1532 0h-225v1061l-351 -1061h-233l-346 1061v-1061h-221v1366h319l371 -1087l368 1089h318v-1368z" />
    <glyph glyph-name="N" unicode="N" horiz-adv-x="1351" 
d="M1196 0h-248l-567 981v-981h-225v1366h245l570 -973v973h225v-1366z" />
    <glyph glyph-name="O" unicode="O" horiz-adv-x="1386" 
d="M1014 684q0 299 -58 388t-263 89q-206 0 -263 -89t-57 -389t57 -389t262 -89q206 0 264 90t58 389zM1255 708q0 -132 -3 -198q-9 -194 -50 -283q-64 -135 -163 -181q-133 -62 -320 -62t-297 39t-167 89q-56 50 -85 158t-34 185q-5 78 -5 208q0 369 45 465q20 46 62 102
t100 84q139 66 328 66q188 0 298 -38t166 -87t86 -155t34 -183t5 -209z" />
    <glyph glyph-name="P" unicode="P" horiz-adv-x="1269" 
d="M956 956q0 137 -86 177q-47 18 -239 18h-234v-389h234q197 0 239 18q86 39 86 176zM1198 942q0 -98 -31 -178q-31 -78 -75 -121t-127 -65q-82 -22 -151 -28q-69 -5 -179 -5h-238v-545h-241v1366h479q263 0 362 -39t144 -115q57 -98 57 -270z" />
    <glyph glyph-name="Q" unicode="Q" horiz-adv-x="1386" 
d="M1014 706q0 278 -58 366q-58 89 -263 89q-206 0 -263 -89q-57 -90 -57 -376t43 -386t180 -107l-70 162l189 84l102 -240q121 19 159 119t38 378zM1255 730v-141q0 -122 -17 -225t-38 -139q-57 -105 -99 -135q-88 -64 -192 -86l92 -205l-188 -88l-125 273q-264 0 -375 82
q-61 45 -98 97q-84 118 -84 512q0 357 45 453q20 46 62 102t100 84q139 66 328 66q188 0 298 -38t166 -87t86 -155t34 -183t5 -187z" />
    <glyph glyph-name="R" unicode="R" horiz-adv-x="1345" 
d="M961 947q0 125 -41 161q-20 18 -48 30t-241 13h-234v-379h248q209 0 246 16q70 34 70 159zM1198 0h-235v440q0 25 -14 55q-13 31 -23 37t-56 14t-162 9h-311v-555h-241v1366h479q262 0 363 -37t144 -111q56 -98 56 -235t-30 -210t-103 -103q80 -24 106 -94
q27 -71 27 -117v-459z" />
    <glyph glyph-name="S" unicode="S" horiz-adv-x="1331" 
d="M670 -16q-274 0 -415 87q-140 87 -140 310h241q0 -104 65 -142t250 -38t244 47q59 46 59 154t-33 138t-101 34t-172 8q-104 2 -166 5t-144 23q-84 20 -130 58t-80 114q-34 74 -33 183q0 229 132 322t406 93q273 0 411 -88t138 -309h-237q0 113 -69 147q-68 34 -222 33
q-154 0 -218 -20q-64 -19 -82 -57t-18 -122t36 -112q36 -29 102 -34t149 -6q84 -1 140 -4q181 -10 252 -45q124 -62 160 -174q22 -69 22 -163q-1 -230 -137 -336t-410 -106z" />
    <glyph glyph-name="T" unicode="T" horiz-adv-x="1146" 
d="M1110 1151h-416v-1151h-241v1151h-416v215h1073v-215z" />
    <glyph glyph-name="U" unicode="U" horiz-adv-x="1335" 
d="M1188 686q0 -223 -4 -287q-22 -415 -516 -415t-516 415q-4 63 -5 287v680h242v-680q0 -264 12 -326q25 -111 123 -139q53 -16 129 -16q131 0 193 28q84 38 96 165q8 85 6 172t-2 116v680h242v-680z" />
    <glyph glyph-name="V" unicode="V" horiz-adv-x="1273" 
d="M1268 1366l-514 -1366h-238l-510 1366h258l375 -1061l375 1061h254z" />
    <glyph glyph-name="W" unicode="W" horiz-adv-x="1839" 
d="M1765 1366l-317 -1366h-254l-276 1098l-281 -1098h-252l-311 1366h235l221 -1038l263 1038h256l264 -1038l223 1038h229z" />
    <glyph glyph-name="X" unicode="X" horiz-adv-x="1286" 
d="M1243 0h-276l-326 518l-324 -518h-274l459 694l-447 672h277l313 -496l311 496h277l-449 -672z" />
    <glyph glyph-name="Y" unicode="Y" horiz-adv-x="1251" 
d="M745 0h-241v590l-500 776h281l344 -561l342 561h276l-502 -776v-590z" />
    <glyph glyph-name="Z" unicode="Z" horiz-adv-x="1288" 
d="M1165 0h-1042v209l754 942h-754v215h1042v-211l-751 -938h751v-217z" />
    <glyph glyph-name="bracketleft" unicode="[" horiz-adv-x="749" 
d="M698 -391h-526v2042h526v-205h-301v-1632h301v-205z" />
    <glyph glyph-name="backslash" unicode="\" horiz-adv-x="1091" 
d="M1061 -231h-219l-811 1837h219z" />
    <glyph glyph-name="bracketright" unicode="]" horiz-adv-x="749" 
d="M578 -391h-527v205h301v1632h-301v205h527v-2042z" />
    <glyph glyph-name="asciicircum" unicode="^" horiz-adv-x="1232" 
d="M1171 453l-206 -80l-353 727l-344 -727l-207 82l463 929h181z" />
    <glyph glyph-name="underscore" unicode="_" horiz-adv-x="1118" 
d="M1118 -666h-1118v209h1118v-209z" />
    <glyph glyph-name="grave" unicode="`" horiz-adv-x="903" 
d="M719 1108h-254l-281 258h254z" />
    <glyph glyph-name="a" unicode="a" horiz-adv-x="1107" 
d="M772 438h-268q-109 0 -148 -26t-39 -101q0 -73 41 -105q40 -32 180 -32t187 60t47 204zM993 0h-207v82q-113 -98 -307 -98t-294 72q-99 73 -99 247q0 235 185 294q95 30 241 30h256q0 113 -35 153t-185 39q-150 0 -189 -49q-19 -25 -19 -61h-225q0 183 142 250
q123 57 312 57q424 0 424 -365v-651z" />
    <glyph glyph-name="b" unicode="b" horiz-adv-x="1153" 
d="M821 498q0 178 -41 241q-40 63 -180 63t-192 -60t-52 -244t52 -244t192 -61q139 -1 180 63t41 242zM1053 504q0 -94 -5 -154t-30 -137q-25 -76 -69 -121t-126 -77t-196 -31q-182 0 -289 96v-80h-209v1427h231v-501q88 90 292 90t290 -86t104 -262q7 -70 7 -164z" />
    <glyph glyph-name="c" unicode="c" horiz-adv-x="1081" 
d="M985 299q0 -315 -426 -315q-229 0 -341 100q-48 43 -76 116q-28 72 -34 140t-8 211q0 143 35 235q35 91 83 133q111 97 341 97q426 0 426 -316h-219q0 51 -38 78t-71 30t-92 3q-149 0 -191 -65q-42 -64 -42 -246t42 -247t191 -65q79 0 121 12q80 22 80 99h219z" />
    <glyph glyph-name="d" unicode="d" horiz-adv-x="1153" 
d="M797 498q-1 184 -53 244t-191 60t-180 -62q-41 -64 -41 -242t41 -242t181 -63t191 61q52 60 52 244zM1024 0h-209v80q-106 -96 -303 -96q-238 0 -330 127q-55 76 -68 176q-14 100 -14 218q0 234 69 362q79 149 307 149t317 -90v501h231v-1427z" />
    <glyph glyph-name="e" unicode="e" horiz-adv-x="1116" 
d="M786 600q0 125 -40 175t-183 50t-185 -54t-42 -171h450zM1016 412h-684q0 -134 49 -186t192 -52q211 0 213 125h218q0 -315 -439 -315q-288 0 -383 144q-47 73 -64 156q-18 83 -18 192q-2 331 123 440q111 100 336 100q268 0 363 -130q33 -46 58 -106q36 -86 36 -368z
" />
    <glyph glyph-name="f" unicode="f" horiz-adv-x="927" 
d="M915 1202h-219q-6 57 -135 58q-80 0 -98 -16q-19 -16 -27 -22t-13 -22t-8 -21q-5 -8 -5 -55v-125h344v-192h-338v-807h-232v807h-159v192h159v101q0 344 387 344q344 0 344 -242z" />
    <glyph glyph-name="g" unicode="g" horiz-adv-x="1148" 
d="M332 508q0 -180 40 -240t180 -59t189 57q50 56 50 241q-1 185 -51 245t-189 59q-139 0 -179 -62q-40 -61 -40 -241zM1020 106q0 -162 -10 -232t-58 -129q-48 -60 -118 -89q-127 -53 -291 -53t-282 61q-65 32 -103 98t-37 156h229q0 -55 49 -87t144 -32q223 0 241 135
q4 35 4 154q-96 -88 -286 -88q-109 0 -187 32q-79 32 -119 76t-63 118t-28 133q-5 58 -5 165q0 223 70 348q80 144 330 144q203 0 311 -96v79h209v-893z" />
    <glyph glyph-name="h" unicode="h" horiz-adv-x="1120" 
d="M1006 0h-232v631q0 68 -6 80q-4 7 -10 29t-16 27t-22 18q-14 13 -32 15t-42 7q-24 4 -83 4t-120 -33q-33 -16 -66 -87q-17 -36 -17 -193v-498h-231v1427h231v-491q104 80 252 80t253 -50q66 -32 111 -131q30 -69 30 -266v-569z" />
    <glyph glyph-name="i" unicode="i" horiz-adv-x="489" 
d="M360 0h-231v999h231v-999zM371 1255q0 -59 -33 -93t-94 -34t-94 34t-33 93q0 125 127 125t127 -125z" />
    <glyph glyph-name="j" unicode="j" horiz-adv-x="489" 
d="M360 -57q0 -340 -389 -340q-162 0 -264 60t-102 194h225q4 -66 141 -66q88 0 123 32t35 118v1058h231v-1056zM371 1255q0 -59 -33 -93t-94 -34t-94 34t-33 93q0 125 127 125t127 -125z" />
    <glyph glyph-name="k" unicode="k" horiz-adv-x="1103" 
d="M362 0h-233v1427h231v-827l431 399h286l-493 -458l501 -541h-297l-426 467v-467z" />
    <glyph glyph-name="l" unicode="l" horiz-adv-x="487" 
d="M360 0h-231v1427h231v-1427z" />
    <glyph glyph-name="m" unicode="m" horiz-adv-x="1644" 
d="M1530 0h-232v618q0 55 -2 81t-16 58t-47 43t-77 11t-86 -9t-62 -33q-21 -23 -30 -37t-16 -42q-8 -27 -12 -42q-6 -22 -6 -93v-555h-229v654q0 70 -8 80q-9 12 -19 32q-23 45 -136 45q-114 0 -154 -75q-15 -30 -22 -45t-11 -59q-3 -44 -5 -56t-1 -63q1 -50 1 -56v-457
h-231v999h201v-88q104 105 273 105t261 -105q115 104 301 105q260 0 336 -174q26 -58 27 -103q2 -45 2 -57v-682z" />
    <glyph glyph-name="n" unicode="n" horiz-adv-x="1120" 
d="M1006 0h-232v631q0 68 -6 80q-4 7 -10 29t-16 27t-22 18q-14 13 -32 15t-42 7q-24 4 -83 4t-120 -33q-33 -16 -66 -87q-17 -36 -17 -193v-498h-231v999h201v-79q109 96 269 96t266 -50q66 -32 111 -131q30 -69 30 -266v-569z" />
    <glyph glyph-name="o" unicode="o" horiz-adv-x="1150" 
d="M819 500q0 182 -43 246t-201 65q-159 0 -201 -65q-42 -64 -42 -246t43 -247t201 -65t200 65q43 65 43 247zM1051 500q0 -156 -23 -250q-65 -268 -453 -267t-452 267q-23 94 -23 250t23 250q65 266 453 266q387 0 452 -266q23 -94 23 -250z" />
    <glyph glyph-name="p" unicode="p" horiz-adv-x="1153" 
d="M821 498q0 180 -42 246q-41 66 -179 67q-138 0 -190 -63q-52 -64 -52 -250t52 -248t191 -62q138 0 179 65t41 245zM1053 522q0 -108 -7 -172t-33 -136q-26 -73 -71 -120t-126 -79t-193 -31q-178 0 -263 88v-463h-231v1390h209v-79q115 100 311 96q131 -2 213 -36
t123 -108t55 -158t13 -192z" />
    <glyph glyph-name="q" unicode="q" horiz-adv-x="1144" 
d="M786 498q0 186 -51 250t-186 63q-135 0 -176 -67q-41 -66 -41 -246t41 -245t176 -65t186 62t51 248zM1016 -391h-232v463q-94 -88 -290 -88q-111 0 -188 32t-117 77q-40 44 -60 123t-25 134q-4 55 -4 165q0 224 69 353q78 148 327 148q205 0 313 -96v79h207v-1390z" />
    <glyph glyph-name="r" unicode="r" horiz-adv-x="952" 
d="M928 700h-223q0 66 -33 90t-109 23q-137 0 -180 -119q-23 -61 -23 -260v-434h-231v999h201v-90q100 107 269 107t249 -77t80 -239z" />
    <glyph glyph-name="s" unicode="s" horiz-adv-x="1064" 
d="M975 700h-213q0 72 -41 99t-161 31t-167 -23t-49 -76t7 -73q14 -37 84 -48q19 -2 149 -10t174 -18q219 -48 211 -293q-4 -177 -126 -243t-332 -62t-315 72t-106 243h213q0 -69 41 -99t170 -33t176 25t49 78q2 52 -8 78q-19 50 -151 56q-284 12 -348 54q-88 55 -108 137
q-13 52 -11 132q4 169 128 231t328 58q205 -4 305 -75t101 -241z" />
    <glyph glyph-name="t" unicode="t" horiz-adv-x="972" 
d="M934 299q0 -168 -104 -242t-269 -73q-365 0 -364 323v500h-160v192h160v367h231v-367h408v-192h-408v-500q0 -71 32 -103t113 -32q147 0 148 127h213z" />
    <glyph glyph-name="u" unicode="u" horiz-adv-x="1120" 
d="M991 0h-200v80q-109 -96 -289 -96q-238 0 -316 110q-29 41 -42 71q-29 67 -29 219v615h231v-630q0 -68 5 -78t11 -32t16 -27t22 -18q14 -13 32 -15t42 -6q110 -18 203 28q33 16 58 70q25 53 25 106v602h231v-999z" />
    <glyph glyph-name="v" unicode="v" horiz-adv-x="1073" 
d="M1044 999l-391 -999h-231l-393 999h247l265 -733l264 733h239z" />
    <glyph glyph-name="w" unicode="w" horiz-adv-x="1501" 
d="M1464 999l-270 -999h-231l-205 778l-211 -778h-240l-270 999h227l174 -745l201 745h225l203 -745l174 745h223z" />
    <glyph glyph-name="x" unicode="x" horiz-adv-x="1097" 
d="M1067 0h-272l-250 360l-252 -360h-262l381 508l-367 491h272l236 -340l240 340h264l-371 -489z" />
    <glyph glyph-name="y" unicode="y" horiz-adv-x="1062" 
d="M1028 999l-539 -1388h-243l170 414l-381 974h246l256 -718l245 718h246z" />
    <glyph glyph-name="z" unicode="z" 
d="M932 0h-840v199l553 608h-553v192h840v-198l-549 -604h549v-197z" />
    <glyph glyph-name="braceleft" unicode="{" horiz-adv-x="819" 
d="M760 -391q-133 0 -210 16q-76 16 -138 77q-62 60 -84 138t-23 205v264q0 63 -8 89q-9 26 -27 44l-34 35q-16 16 -31 28t-42 56q-28 43 -28 85t21 82t58 76q37 35 56 54q19 18 27 44t8 89v264q0 127 23 205t84 138t138 77q77 16 210 17v-205q-152 0 -191 -38t-39 -187
v-336q0 -84 -20 -118t-28 -44t-35 -36q-28 -26 -33 -32q-49 -49 -6 -92q8 -8 34 -32q71 -67 82 -126q6 -31 6 -71v-336q0 -149 39 -187t191 -38v-205z" />
    <glyph glyph-name="bar" unicode="|" horiz-adv-x="593" 
d="M410 -391h-226v1757h226v-1757z" />
    <glyph glyph-name="braceright" unicode="}" horiz-adv-x="819" 
d="M684 651q0 -18 -5 -45t-34 -61q-29 -35 -33 -39l-26 -26t-38 -39q-18 -17 -26 -43t-8 -89v-264q0 -127 -22 -205t-84 -138t-139 -76t-210 -17v205q152 0 191 38t39 187v336q0 83 25 122q25 40 57 70q33 29 41 37q43 43 -6 92q-6 6 -34 32t-50 57q-33 48 -33 141v336
q0 150 -39 188t-191 37v205q133 0 210 -16t139 -78q62 -60 84 -138q23 -78 22 -205v-264q0 -63 8 -89t26 -44t38 -36t26 -26q6 -7 34 -38t33 -60t5 -47z" />
    <glyph glyph-name="asciitilde" unicode="~" horiz-adv-x="1230" 
d="M1165 526q-72 -63 -123 -101q-142 -106 -261 -96q-71 5 -139 44q-168 96 -227 90q-19 -1 -57 -19t-68 -41t-87 -69l-137 139q72 63 122 101t121 70q139 64 287 -21q61 -35 92 -51t70 -27q39 -10 58 -8t57 19t68 40t87 70z" />
    <glyph glyph-name="exclamdown" unicode="&#xa1;" horiz-adv-x="610" 
d="M416 -367h-226v977h226v-977zM446 872q0 -143 -141 -143t-141 143t141 144q141 -1 141 -144z" />
    <glyph glyph-name="cent" unicode="&#xa2;" horiz-adv-x="1150" 
d="M1042 299q0 -283 -356 -311v-183h-201v183q-277 28 -349 232q-24 69 -30 132q-6 64 -6 152t6 151q15 158 103 250t276 107v166h201v-166q356 -29 356 -312h-251q0 80 -74 98q-53 13 -131 13q-152 0 -203 -67q-51 -66 -51 -244t51 -245t203 -67t186 48q18 25 19 63h251z
" />
    <glyph glyph-name="sterling" unicode="&#xa3;" horiz-adv-x="1214" 
d="M1141 0h-1045v209h137v385h-137v209h137v133q0 164 24 226t73 108q117 111 352 110q66 0 112 -3t114 -22t110 -53q43 -34 75 -103t31 -163h-223q0 82 -48 109q-49 27 -179 27t-170 -46q-40 -45 -39 -186v-137h571v-209h-571v-385h676v-209z" />
    <glyph glyph-name="currency" unicode="&#xa4;" horiz-adv-x="1232" 
d="M1139 328q0 -344 -445 -344q-256 0 -359 114t-116 342h-135v187h135v116h-137v187h137q11 227 115 339t360 111q444 0 445 -344h-236q0 80 -49 107q-50 27 -144 27t-142 -15q-48 -14 -72 -49t-31 -73q-8 -38 -10 -103h358v-187h-364v-116h362v-187h-356q2 -66 10 -104
q21 -100 103 -126q48 -15 142 -15q94 1 144 27q49 26 49 106h236z" />
    <glyph glyph-name="yen" unicode="&#xa5;" horiz-adv-x="1288" 
d="M1092 891v-189h-265l-69 -116h334v-189h-334v-397h-232v397h-336v189h334l-69 116h-265v189h148l-301 475h264l338 -555l346 555h266l-303 -475h144z" />
    <glyph glyph-name="brokenbar" unicode="&#xa6;" horiz-adv-x="593" 
d="M410 -391h-226v696h226v-696zM410 668h-226v698h226v-698z" />
    <glyph glyph-name="section" unicode="&#xa7;" horiz-adv-x="1204" 
d="M817 590q0 72 -49 94q-50 22 -146 23q-96 -1 -135 -7t-71 -38t-31 -103q0 -73 49 -95q50 -22 146 -22t135 6t71 39q32 31 31 103zM819 108q0 71 -37 111q-22 23 -143 23h-43q-82 0 -129 3q-131 8 -224 81t-93 249t122 230q-125 59 -125 253t140 262q120 60 324 61
t323 -73t119 -272h-232q0 76 -48 107t-174 29t-170 -30t-44 -101t26 -100t74 -30q47 -2 80 -2h43q82 0 129 -3q132 -8 215 -75q102 -79 102 -255t-122 -230q125 -60 125 -253t-139 -262q-120 -60 -324 -61q-204 0 -324 74q-119 74 -118 271h231q0 -76 48 -107
q48 -32 174 -30t170 30t44 100z" />
    <glyph glyph-name="dieresis" unicode="&#xa8;" horiz-adv-x="892" 
d="M223 1366q121 0 121 -120t-120 -120t-120 121q0 63 29 91t90 28zM666 1366q120 0 120 -120t-120 -120t-119 121q0 63 28 91q29 28 91 28z" />
    <glyph glyph-name="copyright" unicode="&#xa9;" horiz-adv-x="1634" 
d="M1206 528q0 -170 -96 -236t-291 -65q-244 1 -329 103q-84 102 -84 352t87 353t304 103t313 -65q96 -66 96 -235h-155q-1 98 -53 128t-198 30t-190 -66q-45 -66 -45 -246q0 -94 7 -143t32 -93t76 -61q50 -16 158 -16q108 1 160 29t53 128h155zM1352 708q0 154 -20 254
q-43 210 -245 251q-100 22 -274 22t-274 -23q-198 -45 -238 -255q-18 -99 -18 -273t19 -272q41 -211 240 -258q102 -25 256 -25q280 0 399 72q62 37 95 105q60 126 60 402zM1503 685q-1 -208 -31 -337t-111 -214t-210 -118q-129 -32 -337 -32t-337 34q-256 67 -316 332
q-30 129 -30 338q0 410 138 551t546 141q209 0 338 -31q257 -64 319 -327q30 -129 31 -337z" />
    <glyph glyph-name="ordfeminine" unicode="&#xaa;" horiz-adv-x="790" 
d="M561 987h-194q-80 0 -114 -18q-34 -17 -34 -69t27 -70q26 -18 122 -19q96 0 145 40q48 40 48 136zM717 688h-137v66q-96 -76 -220 -76q-295 0 -294 217q0 164 133 204q69 21 172 21h192q-1 72 -31 100t-133 27q-158 0 -157 -73h-154q0 207 324 206q145 0 225 -55t80 -188
v-449z" />
    <glyph glyph-name="guillemotleft" unicode="&#xab;" horiz-adv-x="1040" 
d="M334 396q33 -43 50 -59q16 -17 24 -25t27 -25q19 -18 26 -25l61 -59l-147 -137q-161 144 -229 234t-68 202t92 224q92 111 203 210l149 -139l-80 -80l-28 -28t-47 -48q-23 -25 -31 -39t-22 -38t-13 -74q0 -51 33 -94zM522 502q0 112 91 222t204 212l150 -139l-108 -108
q-101 -101 -110 -157t10 -98q22 -50 70 -98l24 -24q7 -7 27 -25t25 -25l62 -59l-148 -137q-161 144 -229 234t-68 202z" />
    <glyph glyph-name="logicalnot" unicode="&#xac;" horiz-adv-x="1232" 
d="M1165 0h-217v580h-880v208h1097v-788z" />
    <glyph glyph-name="registered" unicode="&#xae;" horiz-adv-x="1060" 
d="M627 1033q-1 40 -11 50t-94 11h-71v-119h77q74 0 84 4q15 14 15 54zM741 651h-110v162q0 39 -8 48t-37 11h-131v-221h-115v543h192q63 0 95 -4q115 -20 114 -137q0 -88 -57 -121q31 -14 44 -40t13 -93v-148zM877 921q0 220 -67 282q-67 63 -281 63t-279 -62
q-66 -62 -66 -284t66 -288t280 -65q214 0 280 67q67 67 67 287zM995 918q1 -148 -21 -232t-75 -135q-99 -98 -369 -98t-370 98q-53 51 -74 135q-20 84 -20 234t20 234t74 134q94 92 370 92t370 -94t95 -368z" />
    <glyph glyph-name="macron" unicode="&#xaf;" horiz-adv-x="901" 
d="M813 1165h-727v164h727v-164z" />
    <glyph glyph-name="degree" unicode="&#xb0;" horiz-adv-x="1046" 
d="M678 1069q0 92 -32 128t-123 36t-123 -36t-32 -128t32 -128t123 -36t123 36t32 128zM829 1073q1 -163 -73 -239t-233 -76t-233 76t-73 240q0 164 73 235q74 71 234 71t233 -71q72 -72 72 -236z" />
    <glyph glyph-name="plusminus" unicode="&#xb1;" horiz-adv-x="1232" 
d="M1165 -209h-1097v209h1097v-209zM1165 449h-450v-343h-203v343h-444v208h446v342h201v-342h450v-208z" />
    <glyph glyph-name="twosuperior" unicode="&#xb2;" horiz-adv-x="870" 
d="M672 1124q0 -135 -90 -196q-47 -33 -167 -64t-144 -50t-23 -81v-47h422v-139h-580v205q0 87 39 132q21 24 39 40t55 30t57 22t67 19t89 23t61 32t19 80t-27 84t-107 23q-80 0 -109 -16q-30 -16 -29 -68h-156q0 125 78 173t218 48t214 -58t74 -192z" />
    <glyph glyph-name="threesuperior" unicode="&#xb3;" horiz-adv-x="870" 
d="M684 801q0 -259 -290 -259q-150 0 -228 50q-78 49 -78 178h154q0 -51 30 -71q31 -19 116 -19t113 22q27 22 27 94q0 73 -26 93q-27 20 -117 20h-168v135h168q82 0 109 16q26 16 26 76t-24 83q-25 23 -108 23t-113 -19q-30 -18 -29 -70h-152q0 127 77 177t219 50t214 -55
t72 -178t-55 -170q63 -49 63 -176z" />
    <glyph glyph-name="acute" unicode="&#xb4;" horiz-adv-x="892" 
d="M717 1366l-283 -260h-258l283 260h258z" />
    <glyph glyph-name="mu" unicode="&#xb5;" horiz-adv-x="1134" 
d="M1006 0h-209v76q-102 -92 -271 -92q-117 0 -174 36v-411h-223v1390h231v-629q0 -68 6 -77q6 -8 11 -30q6 -23 15 -27q8 -4 22 -16t50 -19q36 -6 92 -6t100 18q46 18 70 41q48 46 48 199v546h232v-999z" />
    <glyph glyph-name="paragraph" unicode="&#xb6;" horiz-adv-x="1271" 
d="M561 776v383q-160 0 -211 -31t-51 -155q0 -129 56 -163t138 -34h68zM1094 0h-205v1159h-123v-1159h-205v571q-250 -2 -372 80q-121 81 -121 303t106 315t326 97h594v-1366z" />
    <glyph glyph-name="periodcentered" unicode="&#xb7;" horiz-adv-x="495" 
d="M248 545q-142 0 -142 143t142 143t141 -143q0 -143 -141 -143z" />
    <glyph glyph-name="cedilla" unicode="&#xb8;" horiz-adv-x="901" 
d="M621 -225q-1 -170 -181 -170t-180 151h111q0 -31 15 -40t55 -9t52 14q11 14 11 50q0 59 -74 63h-59v166h116v-78q134 -8 134 -147z" />
    <glyph glyph-name="onesuperior" unicode="&#xb9;" horiz-adv-x="831" 
d="M647 547h-522v141h180v457l-96 -82l-107 98l238 205h123v-678h184v-141z" />
    <glyph glyph-name="ordmasculine" unicode="&#xba;" horiz-adv-x="790" 
d="M573 1030q0 125 -28 168q-29 43 -150 43t-149 -43t-29 -168q0 -125 29 -168q30 -43 150 -43t149 43q28 43 28 168zM729 1030q0 -198 -79 -274t-256 -76q-272 0 -317 182q-15 62 -15 168t14 168q46 184 319 182q176 0 255 -76t79 -274z" />
    <glyph glyph-name="guillemotright" unicode="&#xbb;" horiz-adv-x="1040" 
d="M416 739q102 -122 102 -224t-65 -213q-43 -72 -232 -236l-147 137l61 59q5 6 25 24t27 26l24 24q49 49 57 68q8 18 18 37t9 58q0 39 -24 84q-24 44 -59 75l-31 31q-24 24 -27 28l-80 80l149 139q121 -109 193 -197zM963 500q0 -86 -66 -198q-21 -36 -148 -163
q-17 -16 -83 -73l-148 137q62 59 84 80q22 22 30 29q7 8 23 24l24 24q60 69 60 124t-13 79t-23 43t-32 39q-21 20 -45 44l-28 28l-80 80l150 139q63 -57 102 -96q193 -193 193 -340z" />
    <glyph glyph-name="onequarter" unicode="&#xbc;" horiz-adv-x="1685" 
d="M1276 342v287l-215 -287h215zM647 547h-522v141h180v457l-96 -82l-107 98l238 205h123v-678h184v-141zM1352 1366l-772 -1366h-174l770 1366h176zM1548 207h-123v-207h-149v207h-389v131l389 504h149v-500h123v-135z" />
    <glyph glyph-name="onehalf" unicode="&#xbd;" horiz-adv-x="1675" 
d="M647 547h-522v141h180v457l-96 -82l-107 98l238 205h123v-678h184v-141zM1352 1366l-772 -1366h-174l770 1366h176zM1612 578q0 -135 -90 -197q-47 -33 -167 -64t-144 -50t-23 -81v-47h422v-139h-580v205q0 89 40 135t85 64q105 41 197 61q66 19 85 39t19 80t-26 84
t-107 22q-80 0 -110 -16t-29 -68h-156q0 125 78 173t218 48t214 -57t74 -192z" />
    <glyph glyph-name="threequarters" unicode="&#xbe;" horiz-adv-x="1642" 
d="M1255 342v287l-215 -287h215zM678 801q0 -259 -290 -259q-150 0 -228 50q-78 49 -78 178h154q0 -51 30 -71q31 -19 116 -19t113 22q27 22 27 94q0 73 -26 93q-27 20 -117 20h-168v135h168q83 0 109 16t26 76t-25 83t-107 23t-113 -19q-30 -18 -29 -70h-152q0 127 77 177
t219 50t214 -55t72 -178t-56 -170q64 -49 64 -176zM1339 1366l-772 -1366h-174l770 1366h176zM1528 207h-123v-207h-150v207h-389v131l389 504h150v-500h123v-135z" />
    <glyph glyph-name="questiondown" unicode="&#xbf;" horiz-adv-x="950" 
d="M913 -37q-1 -225 -111 -314t-326 -89t-324 91t-109 323q0 232 172 331q33 19 74 39t55 28q45 27 49 64t4 88v86h234v-118q0 -193 -99 -277q-40 -35 -114 -65t-110 -67q-36 -39 -36 -133t41 -140t164 -46t167 46t44 153h225zM653 872q0 -143 -141 -143t-141 143t141 144
q141 -1 141 -144z" />
    <glyph glyph-name="Agrave" unicode="&#xc0;" horiz-adv-x="1333" 
d="M852 557l-190 541l-193 -541h383zM1317 0h-264l-127 348h-533l-125 -348h-252l529 1366h248zM911 1507h-254l-280 258h254z" />
    <glyph glyph-name="Aacute" unicode="&#xc1;" horiz-adv-x="1333" 
d="M852 557l-190 541l-193 -541h383zM1317 0h-264l-127 348h-533l-125 -348h-252l529 1366h248zM967 1765l-283 -260h-258l283 260h258z" />
    <glyph glyph-name="Acircumflex" unicode="&#xc2;" horiz-adv-x="1333" 
d="M852 557l-190 541l-193 -541h383zM1317 0h-264l-127 348h-533l-125 -348h-252l529 1366h248zM1047 1505h-232l-145 142l-142 -142h-235l264 260h225z" />
    <glyph glyph-name="Atilde" unicode="&#xc3;" horiz-adv-x="1333" 
d="M521 1763q97 0 159 -39q8 -6 48 -30t57 -22q16 1 41 2t79 32l109 55l73 -145l-157 -80q-164 -82 -306 26q-55 38 -78 34q-50 -7 -100 -31l-118 -60l-80 146q12 5 65 33q152 78 208 79zM852 557l-190 541l-193 -541h383zM1317 0h-264l-127 348h-533l-125 -348h-252
l529 1366h248z" />
    <glyph glyph-name="Adieresis" unicode="&#xc4;" horiz-adv-x="1333" 
d="M852 557l-190 541l-193 -541h383zM1317 0h-264l-127 348h-533l-125 -348h-252l529 1366h248zM565 1646q0 -120 -120 -120t-119 121q0 63 28 91q29 28 90 27q121 1 121 -119zM1008 1646q0 -120 -120 -120t-120 121q0 63 29 91t90 27q121 1 121 -119z" />
    <glyph glyph-name="Aring" unicode="&#xc5;" horiz-adv-x="1333" 
d="M852 557l-193 541l-190 -541h383zM778 1500q0 66 -22 90t-92 24q-68 0 -88 -23t-21 -91q0 -68 20 -88q21 -19 91 -19t91 20t21 87zM418 1513q0 125 56 173t192 49q136 0 191 -48q56 -48 56 -174q0 -172 -98 -217l502 -1296h-264l-127 348h-533l-125 -348h-252l500 1298
q-98 45 -98 215z" />
    <glyph glyph-name="AE" unicode="&#xc6;" horiz-adv-x="1945" 
d="M965 551v489l-318 -489h318zM1823 0h-858v338h-459l-221 -338h-281l914 1366h905v-215h-621v-346h600v-213h-600v-375h621v-217z" />
    <glyph glyph-name="Ccedilla" unicode="&#xc7;" horiz-adv-x="1343" 
d="M1221 983h-238q0 104 -59 141t-248 37t-246 -90t-57 -389t56 -388q55 -89 245 -89t249 36q58 36 58 140h238q0 -209 -117 -298t-342 -97v-64q133 -8 133 -147q0 -170 -180 -170t-181 151h111q0 -31 15 -40q16 -9 56 -9t51 14t11 50q0 59 -74 63h-59v152q-147 6 -247 49
t-153 94q-52 51 -78 157t-30 179t-4 271t12 254q32 146 58 183q27 39 57 75t74 56q43 20 119 48t258 28q252 0 382 -89t130 -308z" />
    <glyph glyph-name="Egrave" unicode="&#xc8;" horiz-adv-x="1218" 
d="M842 1507h-254l-281 258h254zM1096 0h-940v1366h940v-215h-703v-346h682v-213h-682v-375h703v-217z" />
    <glyph glyph-name="Eacute" unicode="&#xc9;" horiz-adv-x="1218" 
d="M1096 0h-940v1366h940v-215h-703v-346h682v-213h-682v-375h703v-217zM901 1765l-283 -260h-258l283 260h258z" />
    <glyph glyph-name="Ecircumflex" unicode="&#xca;" horiz-adv-x="1218" 
d="M995 1505h-231l-146 142l-141 -142h-235l264 260h225zM1096 0h-940v1366h940v-215h-703v-346h682v-213h-682v-375h703v-217z" />
    <glyph glyph-name="Edieresis" unicode="&#xcb;" horiz-adv-x="1218" 
d="M1096 0h-940v1366h940v-215h-703v-346h682v-213h-682v-375h703v-217zM518 1646q0 -120 -120 -120t-119 121q0 63 28 91q29 28 90 27q121 1 121 -119zM961 1646q0 -120 -120 -120t-120 121q0 63 29 91t90 27q121 1 121 -119z" />
    <glyph glyph-name="Igrave" unicode="&#xcc;" horiz-adv-x="552" 
d="M541 1507h-254l-281 258h254zM397 0h-241v1366h241v-1366z" />
    <glyph glyph-name="Iacute" unicode="&#xcd;" horiz-adv-x="552" 
d="M397 0h-241v1366h241v-1366zM555 1765l-283 -260h-258l283 260h258z" />
    <glyph glyph-name="Icircumflex" unicode="&#xce;" horiz-adv-x="552" 
d="M653 1505h-231l-146 142l-141 -142h-235l264 260h225zM397 0h-241v1366h241v-1366z" />
    <glyph glyph-name="Idieresis" unicode="&#xcf;" horiz-adv-x="552" 
d="M397 0h-241v1366h241v-1366zM176 1646q0 -120 -120 -120t-119 121q0 63 28 91q29 28 90 27q121 1 121 -119zM618 1646q0 -120 -120 -120t-119 121q0 63 29 91t90 27q120 1 120 -119z" />
    <glyph glyph-name="Eth" unicode="&#xd0;" horiz-adv-x="1406" 
d="M674 1151h-256v-354h366v-217h-366v-363h258q82 0 124 3q121 9 159 61q57 75 66 180q9 106 9 282t-26 245q-26 70 -50 98q-41 51 -161 62q-43 3 -123 3zM1276 681q0 -206 -18 -312q-18 -105 -80 -197t-177 -132t-313 -40h-508v580h-143v217h143v569h506q200 0 314 -40
t186 -146q54 -78 72 -186t18 -313z" />
    <glyph glyph-name="Ntilde" unicode="&#xd1;" horiz-adv-x="1351" 
d="M1196 0h-248l-567 981v-981h-225v1366h245l570 -973v973h225v-1366zM548 1763q77 0 140 -39q8 -6 48 -30t57 -22q16 1 41 2t79 32l109 55l74 -145l-158 -80q-160 -80 -306 26q-55 37 -78 34q-51 -7 -99 -31l-119 -60l-80 146l66 33q149 79 226 79z" />
    <glyph glyph-name="Ograve" unicode="&#xd2;" horiz-adv-x="1386" 
d="M1014 684q0 299 -58 388t-263 89q-206 0 -263 -89t-57 -389t57 -389t262 -89q206 0 264 90t58 389zM1255 708q0 -132 -3 -198q-9 -194 -50 -283q-64 -135 -163 -181q-133 -62 -320 -62t-297 39t-167 89q-56 50 -85 158t-34 185q-5 78 -5 208q0 369 45 465q20 46 62 102
t100 84q139 66 328 66q188 0 298 -38t166 -87t86 -155t34 -183t5 -209zM967 1507h-254l-281 258h254z" />
    <glyph glyph-name="Oacute" unicode="&#xd3;" horiz-adv-x="1386" 
d="M1014 684q0 299 -58 388t-263 89q-206 0 -263 -89t-57 -389t57 -389t262 -89q206 0 264 90t58 389zM1255 708q0 -132 -3 -198q-9 -194 -50 -283q-64 -135 -163 -181q-133 -62 -320 -62t-297 39t-167 89q-56 50 -85 158t-34 185q-5 78 -5 208q0 369 45 465q20 46 62 102
t100 84q139 66 328 66q188 0 298 -38t166 -87t86 -155t34 -183t5 -209zM1004 1765l-283 -260h-258l282 260h259z" />
    <glyph glyph-name="Ocircumflex" unicode="&#xd4;" horiz-adv-x="1386" 
d="M1069 1505h-231l-146 142l-141 -142h-236l265 260h225zM1014 684q0 299 -58 388t-263 89q-206 0 -263 -89t-57 -389t57 -389t262 -89q206 0 264 90t58 389zM1255 708q0 -132 -3 -198q-9 -194 -50 -283q-64 -135 -163 -181q-133 -62 -320 -62t-297 39t-167 89
q-56 50 -85 158t-34 185q-5 78 -5 208q0 369 45 465q20 46 62 102t100 84q139 66 328 66q188 0 298 -38t166 -87t86 -155t34 -183t5 -209z" />
    <glyph glyph-name="Otilde" unicode="&#xd5;" horiz-adv-x="1386" 
d="M1014 684q0 299 -58 388t-263 89q-206 0 -263 -89t-57 -389t57 -389t262 -89q206 0 264 90t58 389zM1255 708q0 -132 -3 -198q-9 -194 -50 -283q-64 -135 -163 -181q-133 -62 -320 -62t-297 39t-167 89q-56 50 -85 158t-34 185q-5 78 -5 208q0 369 45 465q20 46 62 102
t100 84q139 66 328 66q188 0 298 -38t166 -87t86 -155t34 -183t5 -209zM563 1763q78 0 123 -30t79 -46q35 -16 47 -15t36 2q25 1 80 32l108 55l74 -145l-158 -80q-160 -80 -306 26q-55 37 -78 34q-51 -7 -99 -31l-119 -60l-80 146l66 33q149 79 227 79z" />
    <glyph glyph-name="Odieresis" unicode="&#xd6;" horiz-adv-x="1386" 
d="M1014 684q0 299 -58 388t-263 89q-206 0 -263 -89t-57 -389t57 -389t262 -89q206 0 264 90t58 389zM1255 708q0 -132 -3 -198q-9 -194 -50 -283q-64 -135 -163 -181q-133 -62 -320 -62t-297 39t-167 89q-56 50 -85 158t-34 185q-5 78 -5 208q0 369 45 465q20 46 62 102
t100 84q139 66 328 66q188 0 298 -38t166 -87t86 -155t34 -183t5 -209zM604 1646q0 -120 -120 -120t-119 121q0 63 28 91q29 28 90 27q121 1 121 -119zM1047 1646q0 -120 -120 -120t-120 121q0 63 29 91t90 27q121 1 121 -119z" />
    <glyph glyph-name="multiply" unicode="&#xd7;" horiz-adv-x="1218" 
d="M1098 172l-144 -143l-346 346l-344 -346l-143 143l346 344l-346 346l143 144l344 -347l346 347l144 -144l-346 -346z" />
    <glyph glyph-name="Oslash" unicode="&#xd8;" horiz-adv-x="1386" 
d="M1014 682q4 299 -53 388t-265 91q-109 0 -168 -17q-59 -16 -96 -74t-47 -143t-12 -243q-4 -299 52 -388t263 -91q109 0 169 17q119 34 143 217q12 85 14 243zM131 552v136q2 129 5 194q4 66 20 162t52 144t96 101q105 91 394 91q51 0 58 -2l65 279l195 -49l-62 -258
q211 -61 266 -244q52 -172 32 -580q-9 -177 -31 -241q-52 -146 -120 -197q-42 -31 -100 -57q-99 -47 -281 -47q-66 0 -93 2l-68 -283l-194 45l63 268q-110 31 -189 113q-108 111 -108 423z" />
    <glyph glyph-name="Ugrave" unicode="&#xd9;" horiz-adv-x="1335" 
d="M1188 686q0 -223 -4 -287q-22 -415 -516 -415t-516 415q-4 63 -5 287v680h242v-680q0 -264 12 -326q25 -111 123 -139q53 -16 129 -16q131 0 193 28q84 38 96 165q8 85 6 172t-2 116v680h242v-680zM913 1507h-254l-280 258h254z" />
    <glyph glyph-name="Uacute" unicode="&#xda;" horiz-adv-x="1335" 
d="M1188 686q0 -223 -4 -287q-22 -415 -516 -415t-516 415q-4 63 -5 287v680h242v-680q0 -264 12 -326q25 -111 123 -139q53 -16 129 -16q131 0 193 28q84 38 96 165q8 85 6 172t-2 116v680h242v-680zM977 1765l-283 -260h-258l283 260h258z" />
    <glyph glyph-name="Ucircumflex" unicode="&#xdb;" horiz-adv-x="1335" 
d="M1055 1505h-232l-145 142l-141 -142h-236l264 260h226zM1188 686q0 -223 -4 -287q-22 -415 -516 -415t-516 415q-4 63 -5 287v680h242v-680q0 -264 12 -326q25 -111 123 -139q53 -16 129 -16q131 0 193 28q84 38 96 165q8 85 6 172t-2 116v680h242v-680z" />
    <glyph glyph-name="Udieresis" unicode="&#xdc;" horiz-adv-x="1335" 
d="M573 1646q1 -120 -119 -120t-120 121q0 63 28 91q29 28 91 27q120 1 120 -119zM1016 1646q0 -120 -120 -120t-120 121q0 63 29 91t90 27q121 1 121 -119zM1188 686q0 -223 -4 -287q-22 -415 -516 -415t-516 415q-4 63 -5 287v680h242v-680q0 -264 12 -326
q25 -111 123 -139q53 -16 129 -16q131 0 193 28q84 38 96 165q8 85 6 172t-2 116v680h242v-680z" />
    <glyph glyph-name="Yacute" unicode="&#xdd;" horiz-adv-x="1251" 
d="M745 0h-241v590l-500 776h281l344 -561l342 561h276l-502 -776v-590zM922 1765l-283 -260h-258l283 260h258z" />
    <glyph glyph-name="Thorn" unicode="&#xde;" horiz-adv-x="1269" 
d="M956 690q0 137 -86 176q-47 18 -241 19h-232v-389h234q197 0 239 18q86 39 86 176zM1198 670q0 -94 -31 -172t-75 -121t-127 -66q-82 -23 -151 -27t-179 -5h-238v-279h-241v1366h241v-266h236q234 0 330 -29t131 -69t58 -80q46 -79 46 -252z" />
    <glyph glyph-name="germandbls" unicode="&#xdf;" horiz-adv-x="1167" 
d="M479 -2v209h101q143 0 190 41t47 173t-48 173t-206 41h-84v209h84q112 0 161 22q48 22 66 64t17 134q0 91 -42 130t-172 39t-187 -46q-40 -29 -47 -126q-1 -27 -1 -86v-975h-231v1046q0 60 3 72t6 39t8 38t16 44t61 88q117 115 353 115t349 -89q112 -89 111 -294
q0 -260 -141 -316q156 -61 156 -348t-204 -359q-106 -38 -270 -38h-96z" />
    <glyph glyph-name="agrave" unicode="&#xe0;" horiz-adv-x="1107" 
d="M809 1108h-254l-281 258h254zM772 438h-268q-109 0 -148 -26t-39 -101q0 -73 41 -105q40 -32 180 -32t187 60t47 204zM993 0h-207v82q-113 -98 -307 -98t-294 72q-99 73 -99 247q0 235 185 294q95 30 241 30h256q0 113 -35 153t-185 39q-150 0 -189 -49q-19 -25 -19 -61
h-225q0 183 142 250q123 57 312 57q424 0 424 -365v-651z" />
    <glyph glyph-name="aacute" unicode="&#xe1;" horiz-adv-x="1107" 
d="M772 438h-268q-109 0 -148 -26t-39 -101q0 -73 41 -105q40 -32 180 -32t187 60t47 204zM993 0h-207v82q-113 -98 -307 -98t-294 72q-99 73 -99 247q0 235 185 294q95 30 241 30h256q0 113 -35 153t-185 39q-150 0 -189 -49q-19 -25 -19 -61h-225q0 183 142 250
q123 57 312 57q424 0 424 -365v-651zM881 1366l-283 -260h-258l283 260h258z" />
    <glyph glyph-name="acircumflex" unicode="&#xe2;" horiz-adv-x="1107" 
d="M772 438h-268q-109 0 -148 -26t-39 -101q0 -73 41 -105q40 -32 180 -32t187 60t47 204zM993 0h-207v82q-113 -98 -307 -98t-294 72q-99 73 -99 247q0 235 185 294q95 30 241 30h256q0 113 -35 153t-185 39q-150 0 -189 -49q-19 -25 -19 -61h-225q0 183 142 250
q123 57 312 57q424 0 424 -365v-651zM944 1106h-231l-146 141l-141 -141h-236l265 260h225z" />
    <glyph glyph-name="atilde" unicode="&#xe3;" horiz-adv-x="1107" 
d="M772 438h-268q-109 0 -148 -26t-39 -101q0 -73 41 -105q40 -32 180 -32t187 60t47 204zM993 0h-207v82q-113 -98 -307 -98t-294 72q-99 73 -99 247q0 235 185 294q95 30 241 30h256q0 113 -35 153t-185 39q-150 0 -189 -49q-19 -25 -19 -61h-225q0 183 142 250
q123 57 312 57q424 0 424 -365v-651zM440 1368q77 0 140 -39q13 -10 51 -32q37 -22 53 -20q16 1 41 2t80 32l108 55l74 -145l-158 -80q-147 -74 -272 4q-19 9 -63 41q-60 30 -148 -17l-119 -59l-80 145q11 6 65 34q150 79 228 79z" />
    <glyph glyph-name="adieresis" unicode="&#xe4;" horiz-adv-x="1107" 
d="M344 1366q121 0 121 -120t-120 -120t-120 121q0 63 29 91t90 28zM786 1366q121 0 121 -120t-120 -120t-119 121q0 63 28 91q29 28 90 28zM772 438h-268q-109 0 -148 -26t-39 -101q0 -73 41 -105q40 -32 180 -32t187 60t47 204zM993 0h-207v82q-113 -98 -307 -98t-294 72
q-99 73 -99 247q0 235 185 294q95 30 241 30h256q0 113 -35 153t-185 39q-150 0 -189 -49q-19 -25 -19 -61h-225q0 183 142 250q123 57 312 57q424 0 424 -365v-651z" />
    <glyph glyph-name="aring" unicode="&#xe5;" horiz-adv-x="1107" 
d="M772 438h-268q-109 0 -148 -26t-39 -101q0 -73 41 -105q40 -32 180 -32t187 60t47 204zM676 1125q0 69 -23 95t-91 26t-88 -26q-22 -26 -22 -95t22 -91t90 -22t90 22t22 91zM993 0h-207v82q-113 -98 -307 -98t-294 72q-99 73 -99 247q0 235 185 294q95 30 241 30h256
q0 113 -35 153t-185 39q-150 0 -189 -49q-19 -25 -19 -61h-225q0 227 231 284q-33 41 -33 158q-1 117 57 166t193 49t193 -49t57 -166q0 -117 -33 -158q213 -72 213 -342v-651z" />
    <glyph glyph-name="ae" unicode="&#xe6;" horiz-adv-x="1781" 
d="M508 422q-111 0 -151 -24t-40 -96t43 -100q42 -28 144 -28t153 11t78 45t34 74t9 118h-270zM1452 610q0 117 -46 167t-178 50t-180 -54t-49 -163h453zM1681 422h-686q0 -136 49 -192t193 -56q213 0 215 125h217q0 -315 -438 -315q-246 0 -350 116q-113 -117 -398 -116
q-193 0 -295 70t-102 236q0 165 90 245q74 63 215 73q53 4 127 4h258q0 121 -40 164t-189 43t-188 -49q-19 -25 -19 -61h-225q0 307 434 307q260 0 358 -111q104 111 327 111t332 -103q48 -45 74 -127t34 -160q7 -78 7 -204z" />
    <glyph glyph-name="ccedilla" unicode="&#xe7;" horiz-adv-x="1081" 
d="M985 299q0 -293 -362 -313v-64q133 -8 133 -147q0 -170 -180 -170t-181 151h111q0 -31 15 -40t55 -9t52 14q11 14 11 50q0 59 -74 63h-59v152q-203 8 -301 110q-102 107 -104 364q-1 140 7 207q6 67 34 139t76 113q111 97 341 97q426 0 426 -316h-219q0 51 -38 78t-71 30
t-92 3q-149 0 -191 -65q-42 -64 -42 -246t42 -247t191 -65q79 0 121 12q80 22 80 99h219z" />
    <glyph glyph-name="egrave" unicode="&#xe8;" horiz-adv-x="1116" 
d="M809 1108h-254l-281 258h254zM786 600q0 125 -40 175t-183 50t-185 -54t-42 -171h450zM1016 412h-684q0 -134 49 -186t192 -52q211 0 213 125h218q0 -315 -439 -315q-288 0 -383 144q-47 73 -64 156q-18 83 -18 192q-2 331 123 440q111 100 336 100q268 0 363 -130
q33 -46 58 -106q36 -86 36 -368z" />
    <glyph glyph-name="eacute" unicode="&#xe9;" horiz-adv-x="1116" 
d="M786 600q0 125 -40 175t-183 50t-185 -54t-42 -171h450zM1016 412h-684q0 -134 49 -186t192 -52q211 0 213 125h218q0 -315 -439 -315q-288 0 -383 144q-47 73 -64 156q-18 83 -18 192q-2 331 123 440q111 100 336 100q268 0 363 -130q33 -46 58 -106q36 -86 36 -368z
M858 1366l-283 -260h-258l283 260h258z" />
    <glyph glyph-name="ecircumflex" unicode="&#xea;" horiz-adv-x="1116" 
d="M786 600q0 125 -40 175t-183 50t-185 -54t-42 -171h450zM1016 412h-684q0 -134 49 -186t192 -52q211 0 213 125h218q0 -315 -439 -315q-288 0 -383 144q-47 73 -64 156q-18 83 -18 192q-2 331 123 440q111 100 336 100q268 0 363 -130q33 -46 58 -106q36 -86 36 -368z
M942 1106h-231l-146 141l-141 -141h-236l265 260h225z" />
    <glyph glyph-name="edieresis" unicode="&#xeb;" horiz-adv-x="1116" 
d="M342 1366q121 0 121 -120t-120 -120t-120 121q0 63 29 91t90 28zM784 1366q121 0 121 -120t-120 -120t-119 121q0 63 28 91q29 28 90 28zM786 600q0 125 -40 175t-183 50t-185 -54t-42 -171h450zM1016 412h-684q0 -134 49 -186t192 -52q211 0 213 125h218
q0 -315 -439 -315q-288 0 -383 144q-47 73 -64 156q-18 83 -18 192q-2 331 123 440q111 100 336 100q268 0 363 -130q33 -46 58 -106q36 -86 36 -368z" />
    <glyph glyph-name="igrave" unicode="&#xec;" horiz-adv-x="489" 
d="M360 0h-231v999h231v-999zM498 1108h-254l-281 258h254z" />
    <glyph glyph-name="iacute" unicode="&#xed;" horiz-adv-x="489" 
d="M547 1366l-283 -260h-258l283 260h258zM360 0h-231v999h231v-999z" />
    <glyph glyph-name="icircumflex" unicode="&#xee;" horiz-adv-x="489" 
d="M623 1106h-232l-145 141l-142 -141h-235l264 260h225zM360 0h-231v999h231v-999z" />
    <glyph glyph-name="idieresis" unicode="&#xef;" horiz-adv-x="489" 
d="M360 0h-231v999h231v-999zM23 1366q120 0 120 -120q1 -120 -119 -120t-120 121q0 63 28 91q29 28 91 28zM465 1366q121 0 121 -120t-120 -120t-120 121q0 63 29 91t90 28z" />
    <glyph glyph-name="eth" unicode="&#xf0;" horiz-adv-x="1144" 
d="M813 498q0 184 -57 243q-56 59 -202 59t-186 -66q-40 -67 -40 -252t38 -230q38 -46 92 -52q54 -7 144 -7q129 1 178 65q25 33 29 102q4 70 4 138zM1044 467q0 -127 -22 -216t-84 -151q-117 -116 -368 -116t-367 116q-61 58 -81 148t-20 215q-2 125 4 186t32 132
q79 217 421 214l-180 181l-113 -95l-112 117l110 94l-86 88l152 133l94 -90l104 93l117 -117l-102 -88q53 -57 134 -136t125 -123t97 -111t80 -125t46 -140t19 -209z" />
    <glyph glyph-name="ntilde" unicode="&#xf1;" horiz-adv-x="1120" 
d="M1006 0h-232v631q0 68 -6 80q-4 7 -10 29t-16 27t-22 18q-14 13 -32 15t-42 7q-24 4 -83 4t-120 -33q-33 -16 -66 -87q-17 -36 -17 -193v-498h-231v999h201v-79q109 96 269 96t266 -50q66 -32 111 -131q30 -69 30 -266v-569zM438 1368q77 0 140 -39q13 -10 51 -32
q37 -22 53 -20q16 1 41 2t80 32l108 55l74 -145l-158 -80q-147 -74 -272 4q-19 9 -63 41q-60 30 -148 -17l-119 -59l-80 145q11 6 65 34q150 79 228 79z" />
    <glyph glyph-name="ograve" unicode="&#xf2;" horiz-adv-x="1150" 
d="M868 1108h-254l-280 258h254zM819 500q0 182 -43 246t-201 65q-159 0 -201 -65q-42 -64 -42 -246t43 -247t201 -65t200 65q43 65 43 247zM1051 500q0 -156 -23 -250q-65 -268 -453 -267t-452 267q-23 94 -23 250t23 250q65 266 453 266q387 0 452 -266q23 -94 23 -250z
" />
    <glyph glyph-name="oacute" unicode="&#xf3;" horiz-adv-x="1150" 
d="M819 500q0 182 -43 246t-201 65q-159 0 -201 -65q-42 -64 -42 -246t43 -247t201 -65t200 65q43 65 43 247zM1051 500q0 -156 -23 -250q-65 -268 -453 -267t-452 267q-23 94 -23 250t23 250q65 266 453 266q387 0 452 -266q23 -94 23 -250zM905 1366l-282 -260h-258
l282 260h258z" />
    <glyph glyph-name="ocircumflex" unicode="&#xf4;" horiz-adv-x="1150" 
d="M819 500q0 182 -43 246t-201 65q-159 0 -201 -65q-42 -64 -42 -246t43 -247t201 -65t200 65q43 65 43 247zM1051 500q0 -156 -23 -250q-65 -268 -453 -267t-452 267q-23 94 -23 250t23 250q65 266 453 266q387 0 452 -266q23 -94 23 -250zM961 1106h-232l-145 141
l-142 -141h-235l264 260h225z" />
    <glyph glyph-name="otilde" unicode="&#xf5;" horiz-adv-x="1150" 
d="M819 500q0 182 -43 246t-201 65q-159 0 -201 -65q-42 -64 -42 -246t43 -247t201 -65t200 65q43 65 43 247zM1051 500q0 -156 -23 -250q-65 -268 -453 -267t-452 267q-23 94 -23 250t23 250q65 266 453 266q387 0 452 -266q23 -94 23 -250zM437 1368q97 0 159 -39
q8 -6 30 -19t39 -24t35 -9q17 1 42 2t79 32l109 55l74 -145l-158 -80q-159 -80 -306 25q-56 38 -79 35q-51 -7 -99 -32l-118 -59l-80 145q12 6 65 34q150 79 208 79z" />
    <glyph glyph-name="odieresis" unicode="&#xf6;" horiz-adv-x="1150" 
d="M365 1366q120 0 120 -120q1 -120 -119 -120t-120 121q0 63 28 91q29 28 91 28zM807 1366q121 0 121 -120t-120 -120t-120 121q0 63 29 91t90 28zM819 500q0 182 -43 246t-201 65q-159 0 -201 -65q-42 -64 -42 -246t43 -247t201 -65t200 65q43 65 43 247zM1051 500
q0 -156 -23 -250q-65 -268 -453 -267t-452 267q-23 94 -23 250t23 250q65 266 453 266q387 0 452 -266q23 -94 23 -250z" />
    <glyph glyph-name="divide" unicode="&#xf7;" horiz-adv-x="1253" 
d="M637 270q141 0 141 -143t-141 -143t-141 143t141 143zM1176 395h-1098v209h1098v-209zM778 872q0 -143 -141 -143t-141 143t141 144q141 -1 141 -144z" />
    <glyph glyph-name="oslash" unicode="&#xf8;" horiz-adv-x="1150" 
d="M819 498q2 182 -41 246t-200 67q-84 0 -132 -14q-48 -15 -74 -57t-33 -93t-7 -145q-2 -182 41 -247t200 -67q85 0 133 14q90 27 106 150q7 52 7 146zM860 958q138 -65 172 -213q21 -91 19 -248t-26 -251q-69 -270 -454 -262q-57 0 -82 2l-75 -199l-193 72l72 178
q-43 20 -97 71q-54 52 -76 146t-20 249t26 249q69 270 454 264q59 0 84 -2l67 176l191 -70z" />
    <glyph glyph-name="ugrave" unicode="&#xf9;" horiz-adv-x="1120" 
d="M836 1108h-254l-281 258h254zM991 0h-200v80q-109 -96 -289 -96q-238 0 -316 110q-29 41 -42 71q-29 67 -29 219v615h231v-630q0 -68 5 -78t11 -32t16 -27t22 -18q14 -13 32 -15t42 -6q110 -18 203 28q33 16 58 70q25 53 25 106v602h231v-999z" />
    <glyph glyph-name="uacute" unicode="&#xfa;" horiz-adv-x="1120" 
d="M991 0h-200v80q-109 -96 -289 -96q-238 0 -316 110q-29 41 -42 71q-29 67 -29 219v615h231v-630q0 -68 5 -78t11 -32t16 -27t22 -18q14 -13 32 -15t42 -6q110 -18 203 28q33 16 58 70q25 53 25 106v602h231v-999zM881 1366l-283 -260h-258l283 260h258z" />
    <glyph glyph-name="ucircumflex" unicode="&#xfb;" horiz-adv-x="1120" 
d="M991 0h-200v80q-109 -96 -289 -96q-238 0 -316 110q-29 41 -42 71q-29 67 -29 219v615h231v-630q0 -68 5 -78t11 -32t16 -27t22 -18q14 -13 32 -15t42 -6q110 -18 203 28q33 16 58 70q25 53 25 106v602h231v-999zM934 1106h-232l-145 141l-141 -141h-236l264 260h226z
" />
    <glyph glyph-name="udieresis" unicode="&#xfc;" horiz-adv-x="1120" 
d="M342 1366q121 0 121 -120t-120 -120t-120 121q0 63 29 91t90 28zM784 1366q121 0 121 -120t-120 -120t-119 121q0 63 28 91q29 28 90 28zM991 0h-200v80q-109 -96 -289 -96q-238 0 -316 110q-29 41 -42 71q-29 67 -29 219v615h231v-630q0 -68 5 -78t11 -32t16 -27t22 -18
q14 -13 32 -15t42 -6q110 -18 203 28q33 16 58 70q25 53 25 106v602h231v-999z" />
    <glyph glyph-name="yacute" unicode="&#xfd;" horiz-adv-x="1062" 
d="M854 1366l-283 -260h-258l283 260h258zM1028 999l-539 -1388h-243l170 414l-381 974h246l256 -718l245 718h246z" />
    <glyph glyph-name="thorn" unicode="&#xfe;" horiz-adv-x="1153" 
d="M821 498q0 180 -42 246q-41 66 -179 67q-138 0 -190 -63q-52 -64 -52 -250t52 -248t191 -62q138 0 179 65t41 245zM1053 522q0 -108 -7 -172t-33 -136q-26 -73 -71 -120t-126 -79t-193 -31q-178 0 -263 88v-463h-231v1818h209v-507q115 100 311 96q131 -2 213 -36
t123 -108t55 -158t13 -192z" />
    <glyph glyph-name="ydieresis" unicode="&#xff;" horiz-adv-x="1062" 
d="M1028 999l-539 -1388h-243l170 414l-381 974h246l256 -718l245 718h246zM295 1366q121 0 121 -120t-120 -120t-120 121q0 63 29 91t90 28zM737 1366q121 0 121 -120t-120 -120t-120 121q0 63 29 91t90 28z" />
    <glyph glyph-name="dotlessi" unicode="&#x131;" horiz-adv-x="489" 
d="M360 0h-231v999h231v-999z" />
    <glyph glyph-name="Lslash" unicode="&#x141;" horiz-adv-x="1236" 
d="M1225 0h-920v446l-115 -106l-153 152l268 258v616h242v-405l115 110l153 -151l-268 -258v-445h678v-217z" />
    <glyph glyph-name="lslash" unicode="&#x142;" horiz-adv-x="622" 
d="M424 0h-231v459l-72 -74l-154 139l226 232v671h231v-469l82 86l149 -143l-231 -239v-662z" />
    <glyph glyph-name="OE" unicode="&#x152;" horiz-adv-x="1859" 
d="M899 217v934h-166q-80 0 -123 -3q-120 -8 -169 -72t-59 -172q-9 -108 -9 -285q1 -177 27 -243q26 -68 48 -96q37 -49 159 -60q42 -3 124 -3h168zM1737 0h-1018q-199 0 -313 40t-178 131q-62 91 -80 197t-17 313q1 205 19 313t71 186q72 106 187 146t313 40h1016v-215
h-600v-346h579v-213h-579v-375h600v-217z" />
    <glyph glyph-name="oe" unicode="&#x153;" horiz-adv-x="1835" 
d="M819 500q0 182 -43 246t-201 65q-159 0 -201 -65q-42 -64 -42 -246t43 -247t201 -65t200 65q43 65 43 247zM1505 600q0 125 -40 175t-183 50t-185 -54t-42 -171h450zM1735 412h-684q0 -134 49 -186t192 -52q211 0 213 125h217q0 -315 -438 -315q-246 0 -350 116
q-111 -116 -362 -116q-385 1 -449 266q-23 94 -23 250t23 250q65 266 452 266q248 0 357 -117q104 117 360 117t348 -130q33 -46 59 -105q36 -85 36 -369z" />
    <glyph glyph-name="Scaron" unicode="&#x160;" horiz-adv-x="1331" 
d="M670 -16q-274 0 -415 87q-140 87 -140 310h241q0 -104 65 -142t250 -38t244 47q59 46 59 154t-33 138t-101 34t-172 8q-104 2 -166 5t-144 23q-84 20 -130 58t-80 114q-34 74 -33 183q0 229 132 322t406 93q273 0 411 -88t138 -309h-237q0 113 -69 147q-68 34 -222 33
q-154 0 -218 -20q-64 -19 -82 -57t-18 -122t36 -112q36 -29 102 -34t149 -6q84 -1 140 -4q181 -10 252 -45q124 -62 160 -174q22 -69 22 -163q-1 -230 -137 -336t-410 -106zM1040 1747l-264 -260h-225l-264 260h231l146 -141l141 141h235z" />
    <glyph glyph-name="scaron" unicode="&#x161;" horiz-adv-x="1064" 
d="M926 1366l-264 -260h-226l-264 260h231l146 -141l141 141h236zM975 700h-213q0 72 -41 99t-161 31t-167 -23t-49 -76t7 -73q14 -37 84 -48q19 -2 149 -10t174 -18q219 -48 211 -293q-4 -177 -126 -243t-332 -62t-315 72t-106 243h213q0 -69 41 -99t170 -33t176 25t49 78
q2 52 -8 78q-19 50 -151 56q-284 12 -348 54q-88 55 -108 137q-13 52 -11 132q4 169 128 231t328 58q205 -4 305 -75t101 -241z" />
    <glyph glyph-name="Ydieresis" unicode="&#x178;" horiz-adv-x="1251" 
d="M528 1646q0 -120 -120 -120t-119 121q0 63 28 91q29 28 91 27q120 1 120 -119zM971 1646q0 -120 -120 -120t-120 121q0 63 29 91t90 27q121 1 121 -119zM745 0h-241v590l-500 776h281l344 -561l342 561h276l-502 -776v-590z" />
    <glyph glyph-name="Zcaron" unicode="&#x17d;" horiz-adv-x="1288" 
d="M1165 0h-1042v209l754 942h-754v215h1042v-211l-751 -938h751v-217zM997 1747l-264 -260h-225l-264 260h231l146 -141l141 141h235z" />
    <glyph glyph-name="zcaron" unicode="&#x17e;" 
d="M897 1366l-264 -260h-225l-265 260h232l145 -141l142 141h235zM932 0h-840v199l553 608h-553v192h840v-198l-549 -604h549v-197z" />
    <glyph glyph-name="florin" unicode="&#x192;" horiz-adv-x="1210" 
d="M1139 1036h-224q0 82 -47 109t-178 27t-171 -46q-40 -45 -40 -186v-137h572v-209h-572v-985h-231v985h-137v209h137v133q0 164 24 226t72 108q117 111 352 110q66 0 112 -3t114 -22t110 -53t75 -103q32 -69 32 -163z" />
    <glyph glyph-name="circumflex" unicode="&#x2c6;" horiz-adv-x="901" 
d="M827 1106h-231l-145 141l-142 -141h-235l264 260h225z" />
    <glyph glyph-name="caron" unicode="&#x2c7;" horiz-adv-x="901" 
d="M827 1366l-264 -260h-225l-264 260h231l146 -141l141 141h235z" />
    <glyph glyph-name="breve" unicode="&#x2d8;" horiz-adv-x="901" 
d="M752 1366q0 -154 -66 -211t-236 -57t-235 57q-66 57 -65 211h143q0 -82 39 -108t119 -26q81 0 119 26t38 108h144z" />
    <glyph glyph-name="dotaccent" unicode="&#x2d9;" horiz-adv-x="901" 
d="M449 1366q120 0 120 -120q1 -120 -119 -120t-120 121q0 63 28 91q29 28 91 28z" />
    <glyph glyph-name="ring" unicode="&#x2da;" horiz-adv-x="1105" 
d="M666 1124q0 70 -23 96t-91 26t-90 -26t-22 -96t23 -96t91 -24q68 0 90 25t22 95zM805 1126q-1 -127 -59 -185t-193 -58t-194 58q-58 58 -58 185q0 128 58 184q57 56 193 56t194 -56t59 -184z" />
    <glyph glyph-name="ogonek" unicode="&#x2db;" horiz-adv-x="800" 
d="M543 -233q0 -88 -43 -123q-44 -35 -120 -35t-114 16q-82 34 -82 162q0 129 47 171t175 42v-102q-72 0 -88 -16t-17 -74q0 -60 11 -78t51 -18t50 10q9 11 9 45h121z" />
    <glyph glyph-name="tilde" unicode="&#x2dc;" horiz-adv-x="901" 
d="M304 1368q97 0 159 -39q8 -6 30 -19q21 -12 27 -16t24 -11t28 -6q11 1 36 2t80 32l109 55l73 -145l-157 -80q-159 -80 -306 25q-56 38 -79 35q-50 -7 -99 -32l-118 -59l-80 145q12 6 65 34q150 79 208 79z" />
    <glyph glyph-name="hungarumlaut" unicode="&#x2dd;" horiz-adv-x="897" 
d="M526 1366l-295 -313h-231l295 313h231zM901 1366l-295 -313h-231l295 313h231z" />
    <glyph glyph-name="pi" unicode="&#x3c0;" horiz-adv-x="1433" 
d="M197 383v983h983v-225l-607 8l664 -664l-160 -159l-663 663l8 -606h-225z" />
    <glyph glyph-name="endash" unicode="&#x2013;" horiz-adv-x="1232" 
d="M1165 395h-1097v209h1097v-209z" />
    <glyph glyph-name="emdash" unicode="&#x2014;" horiz-adv-x="2062" 
d="M1862 395h-1661v209h1661v-209z" />
    <glyph glyph-name="quoteleft" unicode="&#x2018;" horiz-adv-x="493" 
d="M350 1018v-217h-215v217q1 94 21 158t77 120l91 88l149 -137q-8 -8 -48 -47t-45 -51l-18 -36t-12 -95z" />
    <glyph glyph-name="quoteright" unicode="&#x2019;" horiz-adv-x="493" 
d="M358 1149q0 -93 -20 -157t-78 -122l-90 -88l-150 138l30 30t40 39t24 29t17 35q12 23 12 96v217h215v-217z" />
    <glyph glyph-name="quotesinglbase" unicode="&#x201a;" horiz-adv-x="503" 
d="M358 57q0 -94 -20 -157t-78 -121l-90 -88l-150 137l30 30q22 22 38 37t32 44q23 46 23 118v217h215v-217z" />
    <glyph glyph-name="quotedblleft" unicode="&#x201c;" horiz-adv-x="864" 
d="M350 801h-215v217q-1 102 15 162t71 116l90 88l150 -137q-72 -71 -91 -107t-20 -122v-217zM721 1018v-217h-215v217q0 94 20 158t78 120l90 88l150 -137q-8 -8 -48 -47t-45 -51t-17 -35t-13 -96z" />
    <glyph glyph-name="quotedblright" unicode="&#x201d;" horiz-adv-x="864" 
d="M358 1149q0 -93 -20 -157t-78 -122l-90 -88l-150 138l30 30t40 39t24 29t17 35q12 23 12 96v217h215v-217zM729 1149q0 -103 -15 -163t-71 -116l-90 -88l-150 138q71 72 91 108t20 121v217h215v-217z" />
    <glyph glyph-name="quotedblbase" unicode="&#x201e;" horiz-adv-x="874" 
d="M358 57q0 -94 -20 -157t-78 -121l-90 -88l-150 137l30 30q22 22 38 37t32 44q23 46 23 118v217h215v-217zM729 57q0 -102 -15 -162t-71 -116l-90 -88l-150 137q71 72 91 108t20 121v217h215v-217z" />
    <glyph glyph-name="dagger" unicode="&#x2020;" horiz-adv-x="1173" 
d="M999 807h-299v-993h-225v993h-301v192h301v367h225v-367h299v-192z" />
    <glyph glyph-name="daggerdbl" unicode="&#x2021;" horiz-adv-x="1173" 
d="M999 397h-299v-583h-225v583h-301v193h301v217h-301v192h301v367h225v-367h299v-192h-299v-215l299 -2v-193z" />
    <glyph glyph-name="bullet" unicode="&#x2022;" horiz-adv-x="1009" 
d="M754 684q0 -131 -58 -189q-58 -59 -190 -59q-130 0 -190 58t-60 190q0 131 59 190q59 60 191 60t190 -60t58 -190z" />
    <glyph glyph-name="ellipsis" unicode="&#x2026;" horiz-adv-x="2015" 
d="M336 270q141 0 141 -143t-141 -143t-141 143t141 143zM1008 -16q-142 0 -142 143t142 143t141 -143q0 -143 -141 -143zM1821 127q1 -143 -141 -143t-142 143t142 143t141 -143z" />
    <glyph glyph-name="perthousand" unicode="&#x2030;" horiz-adv-x="2465" 
d="M565 980q1 156 -23 206q-24 49 -112 49q-88 1 -106 -29q-8 -12 -20 -50t-13 -199q1 -162 25 -210q24 -49 98 -49t97 16q24 16 39 64q15 46 15 202zM1481 408q0 156 -24 206t-110 50t-108 -30q-8 -11 -20 -49q-13 -38 -13 -200t24 -210t98 -48t98 16q24 17 40 63t15 202z
M2177 408q0 156 -24 206t-110 50t-108 -30q-8 -11 -20 -49t-12 -200q-1 -162 23 -210t98 -48t99 16q24 17 39 63t15 202zM131 919v68q0 184 27 253q54 140 255 140q171 0 246 -77q29 -31 44 -93q20 -82 20 -188v-53q0 -7 -7 -145t-74 -204q-68 -66 -218 -65q-150 0 -230 80
q-63 65 -63 284zM1358 1366l-772 -1366h-174l770 1366h176zM1047 348v68q0 182 16 224q37 97 90 127q77 42 175 42q171 0 247 -78q29 -31 44 -92q19 -77 19 -189v-53q0 -6 -7 -144t-73 -204q-66 -65 -218 -65t-231 79q-62 64 -62 285zM1743 348v68q0 182 16 224
q37 97 90 127q77 42 176 42q171 0 246 -78q29 -31 44 -92q20 -81 20 -189v-53q0 -6 -7 -144t-74 -204q-66 -65 -218 -65t-231 79q-62 64 -62 285z" />
    <glyph glyph-name="guilsinglleft" unicode="&#x2039;" horiz-adv-x="595" 
d="M334 396q33 -43 50 -59q16 -17 24 -25t27 -25q19 -18 26 -25l61 -59l-147 -137q-161 144 -229 234t-68 202t92 224q92 111 203 210l149 -139l-80 -80l-28 -28t-47 -48q-23 -25 -31 -39t-22 -38t-13 -74q0 -51 33 -94z" />
    <glyph glyph-name="guilsinglright" unicode="&#x203a;" horiz-adv-x="595" 
d="M416 739q102 -122 102 -224t-65 -213q-43 -72 -232 -236l-147 137l61 59q5 6 25 24t27 26l24 24q49 49 57 68q8 18 18 37t9 58q0 39 -24 84q-24 44 -59 75l-31 31q-24 24 -27 28l-80 80l149 139q121 -109 193 -197z" />
    <glyph glyph-name="fraction" unicode="&#x2044;" horiz-adv-x="729" 
d="M838 1366l-772 -1366h-175l771 1366h176z" />
    <glyph glyph-name="trademark" unicode="&#x2122;" horiz-adv-x="1728" 
d="M705 1221h-254v-744h-164v744h-254v147h672v-147zM1628 477h-153v604l-209 -604h-156l-201 602v-602h-149v891h196l238 -676l240 676h194v-891z" />
    <glyph glyph-name="Omega" unicode="&#x2126;" horiz-adv-x="1435" 
d="M1180 0h-983v983h225l-8 -606l663 663l162 -159l-666 -664l607 8v-225z" />
    <glyph glyph-name="partialdiff" unicode="&#x2202;" horiz-adv-x="1155" 
d="M1047 -57q0 -340 -390 -340q-162 0 -264 60t-102 194h225q4 -66 141 -66q88 0 123 32t35 118v1058h232v-1056zM915 1202h-219q-6 57 -135 58q-79 0 -105 -26q-12 -11 -20 -17q-8 -7 -13 -23t-9 -25t-4 -33v-137h344v-192h-338v-807h-232v807h-159v192h159v101
q0 344 387 344q344 0 344 -242z" />
    <glyph glyph-name="Delta" unicode="&#x2206;" horiz-adv-x="1472" 
d="M1415 565h-938l436 -422l-159 -159l-697 694l695 694l159 -158l-434 -423h938v-226z" />
    <glyph glyph-name="product" unicode="&#x220f;" horiz-adv-x="1433" 
d="M1237 383h-225l8 606l-664 -663l-159 159l663 664l-606 -8v225h983v-983z" />
    <glyph glyph-name="summation" unicode="&#x2211;" horiz-adv-x="1280" 
 />
    <glyph glyph-name="minus" unicode="&#x2212;" horiz-adv-x="1232" 
d="M1165 395h-1097v209h1097v-209z" />
    <glyph glyph-name="radical" unicode="&#x221a;" horiz-adv-x="1495" 
d="M635 1358h225v-938l422 436l160 -160l-694 -696l-695 694l158 160l424 -434v938z" />
    <glyph glyph-name="infinity" unicode="&#x221e;" horiz-adv-x="1495" 
d="M860 0h-225v938l-422 -436l-160 160l695 696l694 -696l-158 -160l-424 436v-938z" />
    <glyph glyph-name="integral" unicode="&#x222b;" horiz-adv-x="1435" 
d="M1239 0h-983v225l606 -8l-665 664l161 159l664 -663l-8 606h225v-983z" />
    <glyph glyph-name="approxequal" unicode="&#x2248;" horiz-adv-x="1234" 
d="M1167 342q-72 -63 -123 -101q-50 -38 -120 -70q-140 -64 -291 24t-216 84q-19 -1 -57 -19t-68 -41t-87 -69l-137 139q72 63 122 101q212 160 401 52q168 -96 227 -90q20 2 58 20t68 40q30 23 86 69zM1167 717q-72 -63 -123 -101q-50 -38 -120 -70q-139 -63 -294 25
q-154 88 -213 82q-19 -2 -57 -19t-68 -40t-87 -70l-137 140q72 63 122 101q212 160 401 52q168 -96 227 -90q20 2 58 19t68 40t86 70z" />
    <glyph glyph-name="notequal" unicode="&#x2260;" horiz-adv-x="1232" 
d="M1165 227h-684l-219 -227l-133 133l88 94h-149v203h342l151 150h-493v202h692l219 228l133 -133l-92 -95h145v-202h-338l-149 -150h487v-203z" />
    <glyph glyph-name="lessequal" unicode="&#x2264;" horiz-adv-x="1232" 
d="M1165 -209h-1097v209h1097v-209zM1165 311l-78 -200l-1019 356v172l1017 360l80 -202l-751 -244z" />
    <glyph glyph-name="greaterequal" unicode="&#x2265;" horiz-adv-x="1232" 
d="M1165 -209h-1097v209h1097v-209zM1165 467l-1020 -356l-77 200l751 242l-751 244l79 202l1018 -360v-172z" />
    <glyph glyph-name="lozenge" unicode="&#x25ca;" horiz-adv-x="1476" 
d="M59 565v226h938l-434 423l160 158l694 -694l-696 -694l-160 159l436 422h-938z" />
    <glyph glyph-name="CR" unicode="&#xe000;" 
 />
    <glyph glyph-name="DC1" unicode="&#xe001;" 
 />
    <glyph glyph-name="DC2" unicode="&#xe002;" 
 />
    <glyph glyph-name="DC3" unicode="&#xe003;" 
 />
    <glyph glyph-name="DC4" unicode="&#xe004;" 
 />
    <glyph glyph-name="DEL" unicode="&#xe005;" 
 />
    <glyph glyph-name="DLE" unicode="&#xe006;" 
 />
    <glyph glyph-name="HT" unicode="&#xe007;" horiz-adv-x="3704" 
 />
    <glyph glyph-name="LF" unicode="&#xe008;" 
 />
    <glyph glyph-name="NUL" unicode="&#xe009;" 
 />
    <glyph glyph-name="RS" unicode="&#xe00a;" 
 />
    <glyph glyph-name="US" unicode="&#xe00b;" 
 />
    <glyph glyph-name="apple" unicode="&#xe00c;" horiz-adv-x="1660" 
d="M1362 689q0 200 -25 293t-77 144q-100 94 -432 94t-433 -94q-57 -55 -77 -139t-19 -295q0 -211 23 -304q24 -93 66 -135t132 -71v393h-125v154h125v94q0 303 345 303t345 -241h-172q0 84 -170 84q-96 0 -136 -32t-40 -114v-94h408v-154h-408v-423q59 -6 135 -7
q326 0 433 101q53 51 77 147q25 96 25 296zM1534 684q0 -223 -37 -348t-122 -205t-215 -114q-130 -33 -333 -33t-333 34t-214 112q-85 79 -119 205t-34 352t34 351t118 203t213 109q130 30 336 30t335 -30t213 -110q84 -79 121 -206t37 -350z" />
    <glyph glyph-name="nbspace" unicode="&#xe00d;" horiz-adv-x="622" 
 />
    </font>
</defs>
</svg>
